<mxfile host="Electron" modified="2023-05-25T07:29:35.897Z" agent="Mozilla/5.0 (X11; Linux x86_64) AppleWebKit/537.36 (KHTML, like Gecko) draw.io/21.2.8 Chrome/112.0.5615.165 Electron/24.2.0 Safari/537.36" etag="vjdJ86Pk8cf4kjK_RSSJ" version="21.2.8" type="device">
  <diagram name="第 1 页" id="jojBNYRS0gdNw8STO_Wv">
    <mxGraphModel dx="1834" dy="847" grid="0" gridSize="10" guides="1" tooltips="1" connect="1" arrows="1" fold="1" page="0" pageScale="1" pageWidth="827" pageHeight="1169" math="0" shadow="0">
      <root>
        <mxCell id="0" />
        <mxCell id="1" parent="0" />
        <mxCell id="nP1oVnhMzVwhyK_QxXf1-1" value="" style="shape=image;verticalLabelPosition=bottom;labelBackgroundColor=default;verticalAlign=top;aspect=fixed;imageAspect=0;image=data:image/png,iVBORw0KGgoAAAANSUhEUgAAAyAAAAMgCAYAAADbcAZoAAAACXBIWXMAAAsTAAALEwEAmpwYAAAKTWlDQ1BQaG90b3Nob3AgSUNDIHByb2ZpbGUAAHjanVN3WJP3Fj7f92UPVkLY8LGXbIEAIiOsCMgQWaIQkgBhhBASQMWFiApWFBURnEhVxILVCkidiOKgKLhnQYqIWotVXDjuH9yntX167+3t+9f7vOec5/zOec8PgBESJpHmomoAOVKFPDrYH49PSMTJvYACFUjgBCAQ5svCZwXFAADwA3l4fnSwP/wBr28AAgBw1S4kEsfh/4O6UCZXACCRAOAiEucLAZBSAMguVMgUAMgYALBTs2QKAJQAAGx5fEIiAKoNAOz0ST4FANipk9wXANiiHKkIAI0BAJkoRyQCQLsAYFWBUiwCwMIAoKxAIi4EwK4BgFm2MkcCgL0FAHaOWJAPQGAAgJlCLMwAIDgCAEMeE80DIEwDoDDSv+CpX3CFuEgBAMDLlc2XS9IzFLiV0Bp38vDg4iHiwmyxQmEXKRBmCeQinJebIxNI5wNMzgwAABr50cH+OD+Q5+bk4eZm52zv9MWi/mvwbyI+IfHf/ryMAgQAEE7P79pf5eXWA3DHAbB1v2upWwDaVgBo3/ldM9sJoFoK0Hr5i3k4/EAenqFQyDwdHAoLC+0lYqG9MOOLPv8z4W/gi372/EAe/tt68ABxmkCZrcCjg/1xYW52rlKO58sEQjFu9+cj/seFf/2OKdHiNLFcLBWK8ViJuFAiTcd5uVKRRCHJleIS6X8y8R+W/QmTdw0ArIZPwE62B7XLbMB+7gECiw5Y0nYAQH7zLYwaC5EAEGc0Mnn3AACTv/mPQCsBAM2XpOMAALzoGFyolBdMxggAAESggSqwQQcMwRSswA6cwR28wBcCYQZEQAwkwDwQQgbkgBwKoRiWQRlUwDrYBLWwAxqgEZrhELTBMTgN5+ASXIHrcBcGYBiewhi8hgkEQcgIE2EhOogRYo7YIs4IF5mOBCJhSDSSgKQg6YgUUSLFyHKkAqlCapFdSCPyLXIUOY1cQPqQ28ggMor8irxHMZSBslED1AJ1QLmoHxqKxqBz0XQ0D12AlqJr0Rq0Hj2AtqKn0UvodXQAfYqOY4DRMQ5mjNlhXIyHRWCJWBomxxZj5Vg1Vo81Yx1YN3YVG8CeYe8IJAKLgBPsCF6EEMJsgpCQR1hMWEOoJewjtBK6CFcJg4Qxwicik6hPtCV6EvnEeGI6sZBYRqwm7iEeIZ4lXicOE1+TSCQOyZLkTgohJZAySQtJa0jbSC2kU6Q+0hBpnEwm65Btyd7kCLKArCCXkbeQD5BPkvvJw+S3FDrFiOJMCaIkUqSUEko1ZT/lBKWfMkKZoKpRzame1AiqiDqfWkltoHZQL1OHqRM0dZolzZsWQ8ukLaPV0JppZ2n3aC/pdLoJ3YMeRZfQl9Jr6Afp5+mD9HcMDYYNg8dIYigZaxl7GacYtxkvmUymBdOXmchUMNcyG5lnmA+Yb1VYKvYqfBWRyhKVOpVWlX6V56pUVXNVP9V5qgtUq1UPq15WfaZGVbNQ46kJ1Bar1akdVbupNq7OUndSj1DPUV+jvl/9gvpjDbKGhUaghkijVGO3xhmNIRbGMmXxWELWclYD6yxrmE1iW7L57Ex2Bfsbdi97TFNDc6pmrGaRZp3mcc0BDsax4PA52ZxKziHODc57LQMtPy2x1mqtZq1+rTfaetq+2mLtcu0W7eva73VwnUCdLJ31Om0693UJuja6UbqFutt1z+o+02PreekJ9cr1Dund0Uf1bfSj9Rfq79bv0R83MDQINpAZbDE4Y/DMkGPoa5hpuNHwhOGoEctoupHEaKPRSaMnuCbuh2fjNXgXPmasbxxirDTeZdxrPGFiaTLbpMSkxeS+Kc2Ua5pmutG003TMzMgs3KzYrMnsjjnVnGueYb7ZvNv8jYWlRZzFSos2i8eW2pZ8ywWWTZb3rJhWPlZ5VvVW16xJ1lzrLOtt1ldsUBtXmwybOpvLtqitm63Edptt3xTiFI8p0in1U27aMez87ArsmuwG7Tn2YfYl9m32zx3MHBId1jt0O3xydHXMdmxwvOuk4TTDqcSpw+lXZxtnoXOd8zUXpkuQyxKXdpcXU22niqdun3rLleUa7rrStdP1o5u7m9yt2W3U3cw9xX2r+00umxvJXcM970H08PdY4nHM452nm6fC85DnL152Xlle+70eT7OcJp7WMG3I28Rb4L3Le2A6Pj1l+s7pAz7GPgKfep+Hvqa+It89viN+1n6Zfgf8nvs7+sv9j/i/4XnyFvFOBWABwQHlAb2BGoGzA2sDHwSZBKUHNQWNBbsGLww+FUIMCQ1ZH3KTb8AX8hv5YzPcZyya0RXKCJ0VWhv6MMwmTB7WEY6GzwjfEH5vpvlM6cy2CIjgR2yIuB9pGZkX+X0UKSoyqi7qUbRTdHF09yzWrORZ+2e9jvGPqYy5O9tqtnJ2Z6xqbFJsY+ybuIC4qriBeIf4RfGXEnQTJAntieTE2MQ9ieNzAudsmjOc5JpUlnRjruXcorkX5unOy553PFk1WZB8OIWYEpeyP+WDIEJQLxhP5aduTR0T8oSbhU9FvqKNolGxt7hKPJLmnVaV9jjdO31D+miGT0Z1xjMJT1IreZEZkrkj801WRNberM/ZcdktOZSclJyjUg1plrQr1zC3KLdPZisrkw3keeZtyhuTh8r35CP5c/PbFWyFTNGjtFKuUA4WTC+oK3hbGFt4uEi9SFrUM99m/ur5IwuCFny9kLBQuLCz2Lh4WfHgIr9FuxYji1MXdy4xXVK6ZHhp8NJ9y2jLspb9UOJYUlXyannc8o5Sg9KlpUMrglc0lamUycturvRauWMVYZVkVe9ql9VbVn8qF5VfrHCsqK74sEa45uJXTl/VfPV5bdra3kq3yu3rSOuk626s91m/r0q9akHV0IbwDa0b8Y3lG19tSt50oXpq9Y7NtM3KzQM1YTXtW8y2rNvyoTaj9nqdf13LVv2tq7e+2Sba1r/dd3vzDoMdFTve75TsvLUreFdrvUV99W7S7oLdjxpiG7q/5n7duEd3T8Wej3ulewf2Re/ranRvbNyvv7+yCW1SNo0eSDpw5ZuAb9qb7Zp3tXBaKg7CQeXBJ9+mfHvjUOihzsPcw83fmX+39QjrSHkr0jq/dawto22gPaG97+iMo50dXh1Hvrf/fu8x42N1xzWPV56gnSg98fnkgpPjp2Snnp1OPz3Umdx590z8mWtdUV29Z0PPnj8XdO5Mt1/3yfPe549d8Lxw9CL3Ytslt0utPa49R35w/eFIr1tv62X3y+1XPK509E3rO9Hv03/6asDVc9f41y5dn3m978bsG7duJt0cuCW69fh29u0XdwruTNxdeo94r/y+2v3qB/oP6n+0/rFlwG3g+GDAYM/DWQ/vDgmHnv6U/9OH4dJHzEfVI0YjjY+dHx8bDRq98mTOk+GnsqcTz8p+Vv9563Or59/94vtLz1j82PAL+YvPv655qfNy76uprzrHI8cfvM55PfGm/K3O233vuO+638e9H5ko/ED+UPPR+mPHp9BP9z7nfP78L/eE8/sl0p8zAABCbGlUWHRYTUw6Y29tLmFkb2JlLnhtcAAAAAAAPD94cGFja2V0IGJlZ2luPSLvu78iIGlkPSJXNU0wTXBDZWhpSHpyZVN6TlRjemtjOWQiPz4KPHg6eG1wbWV0YSB4bWxuczp4PSJhZG9iZTpuczptZXRhLyIgeDp4bXB0az0iQWRvYmUgWE1QIENvcmUgNS41LWMwMTQgNzkuMTUxNDgxLCAyMDEzLzAzLzEzLTEyOjA5OjE1ICAgICAgICAiPgogICA8cmRmOlJERiB4bWxuczpyZGY9Imh0dHA6Ly93d3cudzMub3JnLzE5OTkvMDIvMjItcmRmLXN5bnRheC1ucyMiPgogICAgICA8cmRmOkRlc2NyaXB0aW9uIHJkZjphYm91dD0iIgogICAgICAgICAgICB4bWxuczp4bXA9Imh0dHA6Ly9ucy5hZG9iZS5jb20veGFwLzEuMC8iCiAgICAgICAgICAgIHhtbG5zOmRjPSJodHRwOi8vcHVybC5vcmcvZGMvZWxlbWVudHMvMS4xLyIKICAgICAgICAgICAgeG1sbnM6eG1wTU09Imh0dHA6Ly9ucy5hZG9iZS5jb20veGFwLzEuMC9tbS8iCiAgICAgICAgICAgIHhtbG5zOnN0RXZ0PSJodHRwOi8vbnMuYWRvYmUuY29tL3hhcC8xLjAvc1R5cGUvUmVzb3VyY2VFdmVudCMiCiAgICAgICAgICAgIHhtbG5zOnN0UmVmPSJodHRwOi8vbnMuYWRvYmUuY29tL3hhcC8xLjAvc1R5cGUvUmVzb3VyY2VSZWYjIgogICAgICAgICAgICB4bWxuczpwaG90b3Nob3A9Imh0dHA6Ly9ucy5hZG9iZS5jb20vcGhvdG9zaG9wLzEuMC8iCiAgICAgICAgICAgIHhtbG5zOnRpZmY9Imh0dHA6Ly9ucy5hZG9iZS5jb20vdGlmZi8xLjAvIgogICAgICAgICAgICB4bWxuczpleGlmPSJodHRwOi8vbnMuYWRvYmUuY29tL2V4aWYvMS4wLyI+CiAgICAgICAgIDx4bXA6Q3JlYXRvclRvb2w+QWRvYmUgUGhvdG9zaG9wIENDIChXaW5kb3dzKTwveG1wOkNyZWF0b3JUb29sPgogICAgICAgICA8eG1wOkNyZWF0ZURhdGU+MjAyMS0wOC0xMVQxMjoxMzoxNyswODowMDwveG1wOkNyZWF0ZURhdGU+CiAgICAgICAgIDx4bXA6TWV0YWRhdGFEYXRlPjIwMjMtMDItMjRUMTM6MzM6MTArMDg6MDA8L3htcDpNZXRhZGF0YURhdGU+CiAgICAgICAgIDx4bXA6TW9kaWZ5RGF0ZT4yMDIzLTAyLTI0VDEzOjMzOjEwKzA4OjAwPC94bXA6TW9kaWZ5RGF0ZT4KICAgICAgICAgPGRjOmZvcm1hdD5pbWFnZS9wbmc8L2RjOmZvcm1hdD4KICAgICAgICAgPHhtcE1NOkluc3RhbmNlSUQ+eG1wLmlpZDplZTEyNTM1OS03OWJmLTA3NDUtYTM4YS0yYmQ5ZTM5NzhkZGI8L3htcE1NOkluc3RhbmNlSUQ+CiAgICAgICAgIDx4bXBNTTpEb2N1bWVudElEPnhtcC5kaWQ6ODcyMzM2NWEtYTMyYi0xYTRkLTlhYWMtOWExNWI3ZjQyNDljPC94bXBNTTpEb2N1bWVudElEPgogICAgICAgICA8eG1wTU06T3JpZ2luYWxEb2N1bWVudElEPnhtcC5kaWQ6ODcyMzM2NWEtYTMyYi0xYTRkLTlhYWMtOWExNWI3ZjQyNDljPC94bXBNTTpPcmlnaW5hbERvY3VtZW50SUQ+CiAgICAgICAgIDx4bXBNTTpIaXN0b3J5PgogICAgICAgICAgICA8cmRmOlNlcT4KICAgICAgICAgICAgICAgPHJkZjpsaSByZGY6cGFyc2VUeXBlPSJSZXNvdXJjZSI+CiAgICAgICAgICAgICAgICAgIDxzdEV2dDphY3Rpb24+Y3JlYXRlZDwvc3RFdnQ6YWN0aW9uPgogICAgICAgICAgICAgICAgICA8c3RFdnQ6aW5zdGFuY2VJRD54bXAuaWlkOjg3MjMzNjVhLWEzMmItMWE0ZC05YWFjLTlhMTViN2Y0MjQ5Yzwvc3RFdnQ6aW5zdGFuY2VJRD4KICAgICAgICAgICAgICAgICAgPHN0RXZ0OndoZW4+MjAyMS0wOC0xMVQxMjoxMzoxNyswODowMDwvc3RFdnQ6d2hlbj4KICAgICAgICAgICAgICAgICAgPHN0RXZ0OnNvZnR3YXJlQWdlbnQ+QWRvYmUgUGhvdG9zaG9wIENDIChXaW5kb3dzKTwvc3RFdnQ6c29mdHdhcmVBZ2VudD4KICAgICAgICAgICAgICAgPC9yZGY6bGk+CiAgICAgICAgICAgICAgIDxyZGY6bGkgcmRmOnBhcnNlVHlwZT0iUmVzb3VyY2UiPgogICAgICAgICAgICAgICAgICA8c3RFdnQ6YWN0aW9uPnNhdmVkPC9zdEV2dDphY3Rpb24+CiAgICAgICAgICAgICAgICAgIDxzdEV2dDppbnN0YW5jZUlEPnhtcC5paWQ6NGRhOGM4NWUtMzZhMi0yMzRjLWFlMzgtYjBiZjIyOGVkMDBhPC9zdEV2dDppbnN0YW5jZUlEPgogICAgICAgICAgICAgICAgICA8c3RFdnQ6d2hlbj4yMDIxLTA4LTExVDEyOjE2OjEyKzA4OjAwPC9zdEV2dDp3aGVuPgogICAgICAgICAgICAgICAgICA8c3RFdnQ6c29mdHdhcmVBZ2VudD5BZG9iZSBQaG90b3Nob3AgQ0MgKFdpbmRvd3MpPC9zdEV2dDpzb2Z0d2FyZUFnZW50PgogICAgICAgICAgICAgICAgICA8c3RFdnQ6Y2hhbmdlZD4vPC9zdEV2dDpjaGFuZ2VkPgogICAgICAgICAgICAgICA8L3JkZjpsaT4KICAgICAgICAgICAgICAgPHJkZjpsaSByZGY6cGFyc2VUeXBlPSJSZXNvdXJjZSI+CiAgICAgICAgICAgICAgICAgIDxzdEV2dDphY3Rpb24+c2F2ZWQ8L3N0RXZ0OmFjdGlvbj4KICAgICAgICAgICAgICAgICAgPHN0RXZ0Omluc3RhbmNlSUQ+eG1wLmlpZDo1MTY0MzNhYi1mOGRjLTczNDYtYTExNS0xMDJlNmUxMDFlMDE8L3N0RXZ0Omluc3RhbmNlSUQ+CiAgICAgICAgICAgICAgICAgIDxzdEV2dDp3aGVuPjIwMjMtMDItMjRUMTM6MzM6MTArMDg6MDA8L3N0RXZ0OndoZW4+CiAgICAgICAgICAgICAgICAgIDxzdEV2dDpzb2Z0d2FyZUFnZW50PkFkb2JlIFBob3Rvc2hvcCBDQyAoV2luZG93cyk8L3N0RXZ0OnNvZnR3YXJlQWdlbnQ+CiAgICAgICAgICAgICAgICAgIDxzdEV2dDpjaGFuZ2VkPi88L3N0RXZ0OmNoYW5nZWQ+CiAgICAgICAgICAgICAgIDwvcmRmOmxpPgogICAgICAgICAgICAgICA8cmRmOmxpIHJkZjpwYXJzZVR5cGU9IlJlc291cmNlIj4KICAgICAgICAgICAgICAgICAgPHN0RXZ0OmFjdGlvbj5jb252ZXJ0ZWQ8L3N0RXZ0OmFjdGlvbj4KICAgICAgICAgICAgICAgICAgPHN0RXZ0OnBhcmFtZXRlcnM+ZnJvbSBhcHBsaWNhdGlvbi92bmQuYWRvYmUucGhvdG9zaG9wIHRvIGltYWdlL3BuZzwvc3RFdnQ6cGFyYW1ldGVycz4KICAgICAgICAgICAgICAgPC9yZGY6bGk+CiAgICAgICAgICAgICAgIDxyZGY6bGkgcmRmOnBhcnNlVHlwZT0iUmVzb3VyY2UiPgogICAgICAgICAgICAgICAgICA8c3RFdnQ6YWN0aW9uPmRlcml2ZWQ8L3N0RXZ0OmFjdGlvbj4KICAgICAgICAgICAgICAgICAgPHN0RXZ0OnBhcmFtZXRlcnM+Y29udmVydGVkIGZyb20gYXBwbGljYXRpb24vdm5kLmFkb2JlLnBob3Rvc2hvcCB0byBpbWFnZS9wbmc8L3N0RXZ0OnBhcmFtZXRlcnM+CiAgICAgICAgICAgICAgIDwvcmRmOmxpPgogICAgICAgICAgICAgICA8cmRmOmxpIHJkZjpwYXJzZVR5cGU9IlJlc291cmNlIj4KICAgICAgICAgICAgICAgICAgPHN0RXZ0OmFjdGlvbj5zYXZlZDwvc3RFdnQ6YWN0aW9uPgogICAgICAgICAgICAgICAgICA8c3RFdnQ6aW5zdGFuY2VJRD54bXAuaWlkOmVlMTI1MzU5LTc5YmYtMDc0NS1hMzhhLTJiZDllMzk3OGRkYjwvc3RFdnQ6aW5zdGFuY2VJRD4KICAgICAgICAgICAgICAgICAgPHN0RXZ0OndoZW4+MjAyMy0wMi0yNFQxMzozMzoxMCswODowMDwvc3RFdnQ6d2hlbj4KICAgICAgICAgICAgICAgICAgPHN0RXZ0OnNvZnR3YXJlQWdlbnQ+QWRvYmUgUGhvdG9zaG9wIENDIChXaW5kb3dzKTwvc3RFdnQ6c29mdHdhcmVBZ2VudD4KICAgICAgICAgICAgICAgICAgPHN0RXZ0OmNoYW5nZWQ+Lzwvc3RFdnQ6Y2hhbmdlZD4KICAgICAgICAgICAgICAgPC9yZGY6bGk+CiAgICAgICAgICAgIDwvcmRmOlNlcT4KICAgICAgICAgPC94bXBNTTpIaXN0b3J5PgogICAgICAgICA8eG1wTU06RGVyaXZlZEZyb20gcmRmOnBhcnNlVHlwZT0iUmVzb3VyY2UiPgogICAgICAgICAgICA8c3RSZWY6aW5zdGFuY2VJRD54bXAuaWlkOjUxNjQzM2FiLWY4ZGMtNzM0Ni1hMTE1LTEwMmU2ZTEwMWUwMTwvc3RSZWY6aW5zdGFuY2VJRD4KICAgICAgICAgICAgPHN0UmVmOmRvY3VtZW50SUQ+eG1wLmRpZDo4NzIzMzY1YS1hMzJiLTFhNGQtOWFhYy05YTE1YjdmNDI0OWM8L3N0UmVmOmRvY3VtZW50SUQ+CiAgICAgICAgICAgIDxzdFJlZjpvcmlnaW5hbERvY3VtZW50SUQ+eG1wLmRpZDo4NzIzMzY1YS1hMzJiLTFhNGQtOWFhYy05YTE1YjdmNDI0OWM8L3N0UmVmOm9yaWdpbmFsRG9jdW1lbnRJRD4KICAgICAgICAgPC94bXBNTTpEZXJpdmVkRnJvbT4KICAgICAgICAgPHBob3Rvc2hvcDpDb2xvck1vZGU+MzwvcGhvdG9zaG9wOkNvbG9yTW9kZT4KICAgICAgICAgPHBob3Rvc2hvcDpJQ0NQcm9maWxlPnNSR0IgSUVDNjE5NjYtMi4xPC9waG90b3Nob3A6SUNDUHJvZmlsZT4KICAgICAgICAgPHBob3Rvc2hvcDpUZXh0TGF5ZXJzPgogICAgICAgICAgICA8cmRmOkJhZz4KICAgICAgICAgICAgICAgPHJkZjpsaSByZGY6cGFyc2VUeXBlPSJSZXNvdXJjZSI+CiAgICAgICAgICAgICAgICAgIDxwaG90b3Nob3A6TGF5ZXJOYW1lPuS5neaYn+S6kTwvcGhvdG9zaG9wOkxheWVyTmFtZT4KICAgICAgICAgICAgICAgICAgPHBob3Rvc2hvcDpMYXllclRleHQ+5Lmd5pif5LqRPC9waG90b3Nob3A6TGF5ZXJUZXh0PgogICAgICAgICAgICAgICA8L3JkZjpsaT4KICAgICAgICAgICAgPC9yZGY6QmFnPgogICAgICAgICA8L3Bob3Rvc2hvcDpUZXh0TGF5ZXJzPgogICAgICAgICA8dGlmZjpPcmllbnRhdGlvbj4xPC90aWZmOk9yaWVudGF0aW9uPgogICAgICAgICA8dGlmZjpYUmVzb2x1dGlvbj43MjAwMDAvMTAwMDA8L3RpZmY6WFJlc29sdXRpb24+CiAgICAgICAgIDx0aWZmOllSZXNvbHV0aW9uPjcyMDAwMC8xMDAwMDwvdGlmZjpZUmVzb2x1dGlvbj4KICAgICAgICAgPHRpZmY6UmVzb2x1dGlvblVuaXQ+MjwvdGlmZjpSZXNvbHV0aW9uVW5pdD4KICAgICAgICAgPGV4aWY6Q29sb3JTcGFjZT4xPC9leGlmOkNvbG9yU3BhY2U+CiAgICAgICAgIDxleGlmOlBpeGVsWERpbWVuc2lvbj44MDA8L2V4aWY6UGl4ZWxYRGltZW5zaW9uPgogICAgICAgICA8ZXhpZjpQaXhlbFlEaW1lbnNpb24+ODAwPC9leGlmOlBpeGVsWURpbWVuc2lvbj4KICAgICAgPC9yZGY6RGVzY3JpcHRpb24+CiAgIDwvcmRmOlJERj4KPC94OnhtcG1ldGE+CiAgICAgICAgICAgICAgICAgICAgICAgICAgICAgICAgICAgICAgICAgICAgICAgICAgICAgICAgICAgICAgICAgICAgICAgICAgICAgICAgICAgICAgICAgICAgICAgICAgICAKICAgICAgICAgICAgICAgICAgICAgICAgICAgICAgICAgICAgICAgICAgICAgICAgICAgICAgICAgICAgICAgICAgICAgICAgICAgICAgICAgICAgICAgICAgICAgICAgICAgIAogICAgICAgICAgICAgICAgICAgICAgICAgICAgICAgICAgICAgICAgICAgICAgICAgICAgICAgICAgICAgICAgICAgICAgICAgICAgICAgICAgICAgICAgICAgICAgICAgICAgCiAgICAgICAgICAgICAgICAgICAgICAgICAgICAgICAgICAgICAgICAgICAgICAgICAgICAgICAgICAgICAgICAgICAgICAgICAgICAgICAgICAgICAgICAgICAgICAgICAgICAKICAgICAgICAgICAgICAgICAgICAgICAgICAgICAgICAgICAgICAgICAgICAgICAgICAgICAgICAgICAgICAgICAgICAgICAgICAgICAgICAgICAgICAgICAgICAgICAgICAgIAogICAgICAgICAgICAgICAgICAgICAgICAgICAgICAgICAgICAgICAgICAgICAgICAgICAgICAgICAgICAgICAgICAgICAgICAgICAgICAgICAgICAgICAgICAgICAgICAgICAgCiAgICAgICAgICAgICAgICAgICAgICAgICAgICAgICAgICAgICAgICAgICAgICAgICAgICAgICAgICAgICAgICAgICAgICAgICAgICAgICAgICAgICAgICAgICAgICAgICAgICAKICAgICAgICAgICAgICAgICAgICAgICAgICAgICAgICAgICAgICAgICAgICAgICAgICAgICAgICAgICAgICAgICAgICAgICAgICAgICAgICAgICAgICAgICAgICAgICAgICAgIAogICAgICAgICAgICAgICAgICAgICAgICAgICAgICAgICAgICAgICAgICAgICAgICAgICAgICAgICAgICAgICAgICAgICAgICAgICAgICAgICAgICAgICAgICAgICAgICAgICAgCiAgICAgICAgICAgICAgICAgICAgICAgICAgICAgICAgICAgICAgICAgICAgICAgICAgICAgICAgICAgICAgICAgICAgICAgICAgICAgICAgICAgICAgICAgICAgICAgICAgICAKICAgICAgICAgICAgICAgICAgICAgICAgICAgICAgICAgICAgICAgICAgICAgICAgICAgICAgICAgICAgICAgICAgICAgICAgICAgICAgICAgICAgICAgICAgICAgICAgICAgIAogICAgICAgICAgICAgICAgICAgICAgICAgICAgICAgICAgICAgICAgICAgICAgICAgICAgICAgICAgICAgICAgICAgICAgICAgICAgICAgICAgICAgICAgICAgICAgICAgICAgCiAgICAgICAgICAgICAgICAgICAgICAgICAgICAgICAgICAgICAgICAgICAgICAgICAgICAgICAgICAgICAgICAgICAgICAgICAgICAgICAgICAgICAgICAgICAgICAgICAgICAKICAgICAgICAgICAgICAgICAgICAgICAgICAgICAgICAgICAgICAgICAgICAgICAgICAgICAgICAgICAgICAgICAgICAgICAgICAgICAgICAgICAgICAgICAgICAgICAgICAgIAogICAgICAgICAgICAgICAgICAgICAgICAgICAgICAgICAgICAgICAgICAgICAgICAgICAgICAgICAgICAgICAgICAgICAgICAgICAgICAgICAgICAgICAgICAgICAgICAgICAgCiAgICAgICAgICAgICAgICAgICAgICAgICAgICAgICAgICAgICAgICAgICAgICAgICAgICAgICAgICAgICAgICAgICAgICAgICAgICAgICAgICAgICAgICAgICAgICAgICAgICAKICAgICAgICAgICAgICAgICAgICAgICAgICAgICAgICAgICAgICAgICAgICAgICAgICAgICAgICAgICAgICAgICAgICAgICAgICAgICAgICAgICAgICAgICAgICAgICAgICAgIAogICAgICAgICAgICAgICAgICAgICAgICAgICAgICAgICAgICAgICAgICAgICAgICAgICAgICAgICAgICAgICAgICAgICAgICAgICAgICAgICAgICAgICAgICAgICAgICAgICAgCiAgICAgICAgICAgICAgICAgICAgICAgICAgICAgICAgICAgICAgICAgICAgICAgICAgICAgICAgICAgICAgICAgICAgICAgICAgICAgICAgICAgICAgICAgICAgICAgICAgICAKICAgICAgICAgICAgICAgICAgICAgICAgICAgICAgICAgICAgICAgICAgICAgICAgICAgICAgICAgICAgICAgICAgICAgICAgICAgICAgICAgICAgICAgICAgICAgICAgICAgIAogICAgICAgICAgICAgICAgICAgICAgICAgICAgICAgICAgICAgICAgICAgICAgICAgICAgICAgICAgICAgICAgICAgICAgICAgICAgICAgICAgICAgICAgICAgICAgICAgICAgCiAgICAgICAgICAgICAgICAgICAgICAgICAgICAgICAgICAgICAgICAgICAgICAgICAgICAgICAgICAgICAgICAgICAgICAgICAgICAgICAgICAgICAgICAgICAgICAgICAgICAKICAgICAgICAgICAgICAgICAgICAgICAgICAgICAgICAgICAgICAgICAgICAgICAgICAgICAgICAgICAgICAgICAgICAgICAgICAgICAgICAgICAgICAgICAgICAgICAgICAgIAogICAgICAgICAgICAgICAgICAgICAgICAgICAgICAgICAgICAgICAgICAgICAgICAgICAgICAgICAgICAgICAgICAgICAgICAgICAgICAgICAgICAgICAgICAgICAgICAgICAgCiAgICAgICAgICAgICAgICAgICAgICAgICAgICAgICAgICAgICAgICAgICAgICAgICAgICAgICAgICAgICAgICAgICAgICAgICAgICAgICAgICAgICAgICAgICAgICAgICAgICAKICAgICAgICAgICAgICAgICAgICAgICAgICAgICAgICAgICAgICAgICAgICAgICAgICAgICAgICAgICAgICAgICAgICAgICAgICAgICAgICAgICAgICAgICAgICAgICAgICAgIAogICAgICAgICAgICAgICAgICAgICAgICAgICAgICAgICAgICAgICAgICAgICAgICAgICAgICAgICAgICAgICAgICAgICAgICAgICAgICAgICAgICAgICAgICAgICAgICAgICAgCiAgICAgICAgICAgICAgICAgICAgICAgICAgICAgICAgICAgICAgICAgICAgICAgICAgICAgICAgICAgICAgICAgICAgICAgICAgICAgICAgICAgICAgICAgICAgICAgICAgICAKICAgICAgICAgICAgICAgICAgICAgICAgICAgICAgICAgICAgICAgICAgICAgICAgICAgICAgICAgICAgICAgICAgICAgICAgICAgICAgICAgICAgICAgICAgICAgICAgICAgIAogICAgICAgICAgICAgICAgICAgICAgICAgICAgICAgICAgICAgICAgICAgICAgICAgICAgICAgICAgICAgICAgICAgICAgICAgICAgICAgICAgICAgICAgICAgICAgICAgICAgCiAgICAgICAgICAgICAgICAgICAgICAgICAgICAgICAgICAgICAgICAgICAgICAgICAgICAgICAgICAgICAgICAgICAgICAgICAgICAgICAgICAgICAgICAgICAgICAgICAgICAKICAgICAgICAgICAgICAgICAgICAgICAgICAgICAgICAgICAgICAgICAgICAgICAgICAgICAgICAgICAgICAgICAgICAgICAgICAgICAgICAgICAgICAgICAgICAgICAgICAgIAogICAgICAgICAgICAgICAgICAgICAgICAgICAgICAgICAgICAgICAgICAgICAgICAgICAgICAgICAgICAgICAgICAgICAgICAgICAgICAgICAgICAgICAgICAgICAgICAgICAgCiAgICAgICAgICAgICAgICAgICAgICAgICAgICAgICAgICAgICAgICAgICAgICAgICAgICAgICAgICAgICAgICAgICAgICAgICAgICAgICAgICAgICAgICAgICAgICAgICAgICAKICAgICAgICAgICAgICAgICAgICAgICAgICAgICAgICAgICAgICAgICAgICAgICAgICAgICAgICAgICAgICAgICAgICAgICAgICAgICAgICAgICAgICAgICAgICAgICAgICAgIAogICAgICAgICAgICAgICAgICAgICAgICAgICAgICAgICAgICAgICAgICAgICAgICAgICAgICAgICAgICAgICAgICAgICAgICAgICAgICAgICAgICAgICAgICAgICAgICAgICAgCiAgICAgICAgICAgICAgICAgICAgICAgICAgICAgICAgICAgICAgICAgICAgICAgICAgICAgICAgICAgICAgICAgICAgICAgICAgICAgICAgICAgICAgICAgICAgICAgICAgICAKICAgICAgICAgICAgICAgICAgICAgICAgICAgICAgICAgICAgICAgICAgICAgICAgICAgICAgICAgICAgICAgICAgICAgICAgICAgICAgICAgICAgICAgICAgICAgICAgICAgIAogICAgICAgICAgICAgICAgICAgICAgICAgICAgICAgICAgICAgICAgICAgICAgICAgICAgICAgICAgICAgICAgICAgICAgICAgICAgICAgICAgICAgICAgICAgICAgICAgICAgCiAgICAgICAgICAgICAgICAgICAgICAgICAgICAgICAgICAgICAgICAgICAgICAgICAgICAgICAgICAgICAgICAgICAgICAgICAgICAgICAgICAgICAgICAgICAgICAgICAgICAKICAgICAgICAgICAgICAgICAgICAgICAgICAgICAgICAgICAgICAgICAgICAgICAgICAgICAgICAgICAgICAgICAgICAgICAgICAgICAgICAgICAgICAgICAgICAgICAgICAgIAogICAgICAgICAgICAgICAgICAgICAgICAgICAgICAgICAgICAgICAgICAgICAgICAgICAgICAgICAgICAgICAgICAgICAgICAgICAgICAgICAgICAgICAgICAgICAgICAgICAgCiAgICAgICAgICAgICAgICAgICAgICAgICAgICAgICAgICAgICAgICAgICAgICAgICAgICAgICAgICAgICAgICAgICAgICAgICAgICAgICAgICAgICAgICAgICAgICAgICAgICAKICAgICAgICAgICAgICAgICAgICAgICAgICAgICAgICAgICAgICAgICAgICAgICAgICAgICAgICAgICAgICAgICAgICAgICAgICAgICAgICAgICAgICAgICAgICAgICAgICAgIAogICAgICAgICAgICAgICAgICAgICAgICAgICAgICAgICAgICAgICAgICAgICAgICAgICAgICAgICAgICAgICAgICAgICAgICAgICAgICAgICAgICAgICAgICAgICAgICAgICAgCiAgICAgICAgICAgICAgICAgICAgICAgICAgICAgICAgICAgICAgICAgICAgICAgICAgICAgICAgICAgICAgICAgICAgICAgICAgICAgICAgICAgICAgICAgICAgICAgICAgICAKICAgICAgICAgICAgICAgICAgICAgICAgICAgICAgICAgICAgICAgICAgICAgICAgICAgICAgICAgICAgICAgICAgICAgICAgICAgICAgICAgICAgICAgICAgICAgICAgICAgIAogICAgICAgICAgICAgICAgICAgICAgICAgICAgICAgICAgICAgICAgICAgICAgICAgICAgICAgICAgICAgICAgICAgICAgICAgICAgICAgICAgICAgICAgICAgICAgICAgICAgCiAgICAgICAgICAgICAgICAgICAgICAgICAgICAgICAgICAgICAgICAgICAgICAgICAgICAgICAgICAgICAgICAgICAgICAgICAgICAgICAgICAgICAgICAgICAgICAgICAgICAKICAgICAgICAgICAgICAgICAgICAgICAgICAgICAgICAgICAgICAgICAgICAgICAgICAgICAgICAgICAgICAgICAgICAgICAgICAgICAgICAgICAgICAgICAgICAgICAgICAgIAogICAgICAgICAgICAgICAgICAgICAgICAgICAgICAgICAgICAgICAgICAgICAgICAgICAgICAgICAgICAgICAgICAgICAgICAgICAgICAgICAgICAgICAgICAgICAgICAgICAgCiAgICAgICAgICAgICAgICAgICAgICAgICAgICAgICAgICAgICAgICAgICAgICAgICAgICAgICAgICAgICAgICAgICAgICAgICAgICAgICAgICAgICAgICAgICAgICAgICAgICAKICAgICAgICAgICAgICAgICAgICAgICAgICAgICAgICAgICAgICAgICAgICAgICAgICAgICAgICAgICAgICAgICAgICAgICAgICAgICAgICAgICAgICAgICAgICAgICAgICAgIAogICAgICAgICAgICAgICAgICAgICAgICAgICAgICAgICAgICAgICAgICAgICAgICAgICAgICAgICAgICAgICAgICAgICAgICAgICAgICAgICAgICAgICAgICAgICAgICAgICAgCiAgICAgICAgICAgICAgICAgICAgICAgICAgICAgICAgICAgICAgICAgICAgICAgICAgICAgICAgICAgICAgICAgICAgICAgICAgICAgICAgICAgICAgICAgICAgICAgICAgICAKICAgICAgICAgICAgICAgICAgICAgICAgICAgICAgICAgICAgICAgICAgICAgICAgICAgICAgICAgICAgICAgICAgICAgICAgICAgICAgICAgICAgICAgICAgICAgICAgICAgIAogICAgICAgICAgICAgICAgICAgICAgICAgICAgICAgICAgICAgICAgICAgICAgICAgICAgICAgICAgICAgICAgICAgICAgICAgICAgICAgICAgICAgICAgICAgICAgICAgICAgCiAgICAgICAgICAgICAgICAgICAgICAgICAgICAgICAgICAgICAgICAgICAgICAgICAgICAgICAgICAgICAgICAgICAgICAgICAgICAgICAgICAgICAgICAgICAgICAgICAgICAKICAgICAgICAgICAgICAgICAgICAgICAgICAgICAgICAgICAgICAgICAgICAgICAgICAgICAgICAgICAgICAgICAgICAgICAgICAgICAgICAgICAgICAgICAgICAgICAgICAgIAogICAgICAgICAgICAgICAgICAgICAgICAgICAgICAgICAgICAgICAgICAgICAgICAgICAgICAgICAgICAgICAgICAgICAgICAgICAgICAgICAgICAgICAgICAgICAgICAgICAgCiAgICAgICAgICAgICAgICAgICAgICAgICAgICAgICAgICAgICAgICAgICAgICAgICAgICAgICAgICAgICAgICAgICAgICAgICAgICAgICAgICAgICAgICAgICAgICAgICAgICAKICAgICAgICAgICAgICAgICAgICAgICAgICAgICAgICAgICAgICAgICAgICAgICAgICAgICAgICAgICAgICAgICAgICAgICAgICAgICAgICAgICAgICAgICAgICAgICAgICAgIAogICAgICAgICAgICAgICAgICAgICAgICAgICAgICAgICAgICAgICAgICAgICAgICAgICAgICAgICAgICAgICAgICAgICAgICAgICAgICAgICAgICAgICAgICAgICAgICAgICAgCiAgICAgICAgICAgICAgICAgICAgICAgICAgICAgICAgICAgICAgICAgICAgICAgICAgICAgICAgICAgICAgICAgICAgICAgICAgICAgICAgICAgICAgICAgICAgICAgICAgICAKICAgICAgICAgICAgICAgICAgICAgICAgICAgICAgICAgICAgICAgICAgICAgICAgICAgICAgICAgICAgICAgICAgICAgICAgICAgICAgICAgICAgICAgICAgICAgICAgICAgIAogICAgICAgICAgICAgICAgICAgICAgICAgICAgICAgICAgICAgICAgICAgICAgICAgICAgICAgICAgICAgICAgICAgICAgICAgICAgICAgICAgICAgICAgICAgICAgICAgICAgCiAgICAgICAgICAgICAgICAgICAgICAgICAgICAgICAgICAgICAgICAgICAgICAgICAgICAgICAgICAgICAgICAgICAgICAgICAgICAgICAgICAgICAgICAgICAgICAgICAgICAKICAgICAgICAgICAgICAgICAgICAgICAgICAgICAgICAgICAgICAgICAgICAgICAgICAgICAgICAgICAgICAgICAgICAgICAgICAgICAgICAgICAgICAgICAgICAgICAgICAgIAogICAgICAgICAgICAgICAgICAgICAgICAgICAgICAgICAgICAgICAgICAgICAgICAgICAgICAgICAgICAgICAgICAgICAgICAgICAgICAgICAgICAgICAgICAgICAgICAgICAgCiAgICAgICAgICAgICAgICAgICAgICAgICAgICAgICAgICAgICAgICAgICAgICAgICAgICAgICAgICAgICAgICAgICAgICAgICAgICAgICAgICAgICAgICAgICAgICAgICAgICAKICAgICAgICAgICAgICAgICAgICAgICAgICAgICAgICAgICAgICAgICAgICAgICAgICAgICAgICAgICAgICAgICAgICAgICAgICAgICAgICAgICAgICAgICAgICAgICAgICAgIAogICAgICAgICAgICAgICAgICAgICAgICAgICAgICAgICAgICAgICAgICAgICAgICAgICAgICAgICAgICAgICAgICAgICAgICAgICAgICAgICAgICAgICAgICAgICAgICAgICAgCiAgICAgICAgICAgICAgICAgICAgICAgICAgICAgICAgICAgICAgICAgICAgICAgICAgICAgICAgICAgICAgICAgICAgICAgICAgICAgICAgICAgICAgICAgICAgICAgICAgICAKICAgICAgICAgICAgICAgICAgICAgICAgICAgICAgICAgICAgICAgICAgICAgICAgICAgICAgICAgICAgICAgICAgICAgICAgICAgICAgICAgICAgICAgICAgICAgICAgICAgIAogICAgICAgICAgICAgICAgICAgICAgICAgICAgICAgICAgICAgICAgICAgICAgICAgICAgICAgICAgICAgICAgICAgICAgICAgICAgICAgICAgICAgICAgICAgICAgICAgICAgCiAgICAgICAgICAgICAgICAgICAgICAgICAgICAgICAgICAgICAgICAgICAgICAgICAgICAgICAgICAgICAgICAgICAgICAgICAgICAgICAgICAgICAgICAgICAgICAgICAgICAKICAgICAgICAgICAgICAgICAgICAgICAgICAgICAgICAgICAgICAgICAgICAgICAgICAgICAgICAgICAgICAgICAgICAgICAgICAgICAgICAgICAgICAgICAgICAgICAgICAgIAogICAgICAgICAgICAgICAgICAgICAgICAgICAgICAgICAgICAgICAgICAgICAgICAgICAgICAgICAgICAgICAgICAgICAgICAgICAgICAgICAgICAgICAgICAgICAgICAgICAgCiAgICAgICAgICAgICAgICAgICAgICAgICAgICAgICAgICAgICAgICAgICAgICAgICAgICAgICAgICAgICAgICAgICAgICAgICAgICAgICAgICAgICAgICAgICAgICAgICAgICAKICAgICAgICAgICAgICAgICAgICAgICAgICAgICAgICAgICAgICAgICAgICAgICAgICAgICAgICAgICAgICAgICAgICAgICAgICAgICAgICAgICAgICAgICAgICAgICAgICAgIAogICAgICAgICAgICAgICAgICAgICAgICAgICAgICAgICAgICAgICAgICAgICAgICAgICAgICAgICAgICAgICAgICAgICAgICAgICAgICAgICAgICAgICAgICAgICAgICAgICAgCiAgICAgICAgICAgICAgICAgICAgICAgICAgICAgICAgICAgICAgICAgICAgICAgICAgICAgICAgICAgICAgICAgICAgICAgICAgICAgICAgICAgICAgICAgICAgICAgICAgICAKICAgICAgICAgICAgICAgICAgICAgICAgICAgICAgICAgICAgICAgICAgICAgICAgICAgICAgICAgICAgICAgICAgICAgICAgICAgICAgICAgICAgICAgICAgICAgICAgICAgIAogICAgICAgICAgICAgICAgICAgICAgICAgICAgICAgICAgICAgICAgICAgICAgICAgICAgICAgICAgICAgICAgICAgICAgICAgICAgICAgICAgICAgICAgICAgICAgICAgICAgCiAgICAgICAgICAgICAgICAgICAgICAgICAgICAgICAgICAgICAgICAgICAgICAgICAgICAgICAgICAgICAgICAgICAgICAgICAgICAgICAgICAgICAgICAgICAgICAgICAgICAKICAgICAgICAgICAgICAgICAgICAgICAgICAgICAgICAgICAgICAgICAgICAgICAgICAgICAgICAgICAgICAgICAgICAgICAgICAgICAgICAgICAgICAgICAgICAgICAgICAgIAogICAgICAgICAgICAgICAgICAgICAgICAgICAgICAgICAgICAgICAgICAgICAgICAgICAgICAgICAgICAgICAgICAgICAgICAgICAgICAgICAgICAgICAgICAgICAgICAgICAgCiAgICAgICAgICAgICAgICAgICAgICAgICAgICAgICAgICAgICAgICAgICAgICAgICAgICAgICAgICAgICAgICAgICAgICAgICAgICAgICAgICAgICAgICAgICAgICAgICAgICAKICAgICAgICAgICAgICAgICAgICAgICAgICAgICAgICAgICAgICAgICAgICAgICAgICAgICAgICAgICAgICAgICAgICAgICAgICAgICAgICAgICAgICAgICAgICAgICAgICAgIAogICAgICAgICAgICAgICAgICAgICAgICAgICAgICAgICAgICAgICAgICAgICAgICAgICAgICAgICAgICAgICAgICAgICAgICAgICAgICAgICAgICAgICAgICAgICAgICAgICAgCiAgICAgICAgICAgICAgICAgICAgICAgICAgICAgICAgICAgICAgICAgICAgICAgICAgICAgICAgICAgICAgICAgICAgICAgICAgICAgICAgICAgICAgICAgICAgICAgICAgICAKICAgICAgICAgICAgICAgICAgICAgICAgICAgICAgICAgICAgICAgICAgICAgICAgICAgICAgICAgICAgICAgICAgICAgICAgICAgICAgICAgICAgICAgICAgICAgICAgICAgIAogICAgICAgICAgICAgICAgICAgICAgICAgICAgICAgICAgICAgICAgICAgICAgICAgICAgICAgICAgICAgICAgICAgICAgICAgICAgICAgICAgICAgICAgICAgICAgICAgICAgCiAgICAgICAgICAgICAgICAgICAgICAgICAgICAgICAgICAgICAgICAgICAgICAgICAgICAgICAgICAgICAgICAgICAgICAgICAgICAgICAgICAgICAgICAgICAgICAgICAgICAKICAgICAgICAgICAgICAgICAgICAgICAgICAgICAgICAgICAgICAgICAgICAgICAgICAgICAgICAgICAgICAgICAgICAgICAgICAgICAgICAgICAgICAgICAgICAgICAgICAgIAogICAgICAgICAgICAgICAgICAgICAgICAgICAgICAgICAgICAgICAgICAgICAgICAgICAgICAgICAgICAgICAgICAgICAgICAgICAgICAgICAgICAgICAgICAgICAgICAgICAgCiAgICAgICAgICAgICAgICAgICAgICAgICAgICAgICAgICAgICAgICAgICAgICAgICAgICAgICAgICAgICAgICAgICAgICAgICAgICAgICAgICAgICAgICAgICAgICAgICAgICAKICAgICAgICAgICAgICAgICAgICAgICAgICAgICAgICAgICAgICAgICAgICAgICAgICAgICAgICAgICAgICAgICAgICAgICAgICAgICAgICAgICAgICAgICAgICAgICAgICAgIAogICAgICAgICAgICAgICAgICAgICAgICAgICAgICAgICAgICAgICAgICAgICAgICAgICAgICAgICAgICAgICAgICAgICAgICAgICAgICAgICAgICAgICAgICAgICAgICAgICAgCiAgICAgICAgICAgICAgICAgICAgICAgICAgICAgICAgICAgICAgICAgICAgICAgICAgICAgICAgICAgICAgICAgICAgICAgICAgICAgICAgICAgICAgICAgICAgICAgICAgICAKICAgICAgICAgICAgICAgICAgICAgICAgICAgICAgICAgICAgICAgICAgICAgICAgICAgICAgICAgICAgICAgICAgICAgICAgICAgICAgICAgICAgICAgICAgICAgICAgICAgIAogICAgICAgICAgICAgICAgICAgICAgICAgICAgICAgICAgICAgICAgICAgICAgICAgICAgICAgICAgICAgICAgICAgICAgICAgICAgICAgICAgICAgICAgICAgICAgICAgICAgCiAgICAgICAgICAgICAgICAgICAgICAgICAgICAgICAgICAgICAgICAgICAgICAgICAgICAgICAgICAgICAgICAgICAgICAgICAgICAgICAgICAgICAgICAgICAgICAgICAgICAKICAgICAgICAgICAgICAgICAgICAgICAgICAgICAgICAgICAgICAgICAgICAgICAgICAgICAgICAgICAgICAgICAgICAgICAgICAgICAgICAgICAgICAgICAgICAgICAgICAgIAogICAgICAgICAgICAgICAgICAgICAgICAgICAgICAgICAgICAgICAgICAgICAgICAgICAgICAgICAgICAgICAgICAgICAgICAgICAgICAgICAgICAgICAgICAgICAgICAgICAgCiAgICAgICAgICAgICAgICAgICAgICAgICAgICAgICAgICAgICAgICAgICAgICAgICAgICAgICAgICAgICAgICAgICAgICAgICAgICAgICAgICAgICAgICAgICAgICAgICAgICAKICAgICAgICAgICAgICAgICAgICAgICAgICAgICAgICAgICAgICAgICAgICAgICAgICAgICAgICAgICAgICAgICAgICAgICAgICAgICAgICAgICAgICAgICAgICAgICAgICAgIAogICAgICAgICAgICAgICAgICAgICAgICAgICAgICAgICAgICAgICAgICAgICAgICAgICAgICAgICAgICAgICAgICAgICAgICAgICAgICAgICAgICAgICAgICAgICAgICAgICAgCiAgICAgICAgICAgICAgICAgICAgICAgICAgICAgICAgICAgICAgICAgICAgICAgICAgICAgICAgICAgICAgICAgICAgICAgICAgICAgICAgICAgICAgICAgICAgICAgICAgICAKICAgICAgICAgICAgICAgICAgICAgICAgICAgICAgICAgICAgICAgICAgICAgICAgICAgICAgICAgICAgICAgICAgICAgICAgICAgICAgICAgICAgICAgICAgICAgICAgICAgIAogICAgICAgICAgICAgICAgICAgICAgICAgICAgICAgICAgICAgICAgICAgICAgICAgICAgICAgICAgICAgICAgICAgICAgICAgICAgICAgICAgICAgICAgICAgICAgICAgICAgCiAgICAgICAgICAgICAgICAgICAgICAgICAgICAgICAgICAgICAgICAgICAgICAgICAgICAgICAgICAgICAgICAgICAgICAgICAgICAgICAgICAgICAgICAgICAgICAgICAgICAKICAgICAgICAgICAgICAgICAgICAgICAgICAgICAgICAgICAgICAgICAgICAgICAgICAgICAgICAgICAgICAgICAgICAgICAgICAgICAgICAgICAgICAgICAgICAgICAgICAgIAogICAgICAgICAgICAgICAgICAgICAgICAgICAgICAgICAgICAgICAgICAgICAgICAgICAgICAgICAgICAgICAgICAgICAgICAgICAgICAgICAgICAgICAgICAgICAgICAgICAgCiAgICAgICAgICAgICAgICAgICAgICAgICAgICAgICAgICAgICAgICAgICAgICAgICAgICAgICAgICAgICAgICAgICAgICAgICAgICAgICAgICAgICAgICAgICAgICAgICAgICAKICAgICAgICAgICAgICAgICAgICAgICAgICAgICAgICAgICAgICAgICAgICAgICAgICAgICAgICAgICAgICAgICAgICAgICAgICAgICAgICAgICAgICAgICAgICAgICAgICAgIAogICAgICAgICAgICAgICAgICAgICAgICAgICAgICAgICAgICAgICAgICAgICAgICAgICAgICAgICAgICAgICAgICAgICAgICAgICAgICAgICAgICAgICAgICAgICAgICAgICAgCiAgICAgICAgICAgICAgICAgICAgICAgICAgICAgICAgICAgICAgICAgICAgICAgICAgICAgICAgICAgICAgICAgICAgICAgICAgICAgICAgICAgICAgICAgICAgICAgICAgICAKICAgICAgICAgICAgICAgICAgICAgICAgICAgICAgICAgICAgICAgICAgICAgICAgICAgICAgICAgICAgICAgICAgICAgICAgICAgICAgICAgICAgICAgICAgICAgICAgICAgIAogICAgICAgICAgICAgICAgICAgICAgICAgICAgCjw/eHBhY2tldCBlbmQ9InciPz7Y3rffAAAAIGNIUk0AAHolAACAgwAA+f8AAIDpAAB1MAAA6mAAADqYAAAXb5JfxUYAAMvVSURBVHja7P13kCTpmR54Pp9w99AitYrSWldrjW60QKOB6upGQgwwgwE4khwOh7MkjzPkLW937WhL2721M7s1O7uz29kjaTySI7bQAhozGOgG0FqLalEitY7wUK79/ojI7GqgZVXqfH5maVmqq7PeiAz3J77vfT8RxzGIiIiIiIhWg2QJiIiIiIiIAYSIiIiIiBhAiIiIiIiIGECIiIiIiIgBhIiIiIiIiAGEiIiIiIgYQIiIiIiIiAGEiIiIiIiIAYSIiIiIiBhAiIiIiIiIGECIiIiIiIgBhIiIiIiIGECIiIiIiIgYQIiIiIiIiAGEiIiIiIiIAYSIiIiIiBhAiIiIiIiIAYSIiIiIiIgBhIiIiIiIGECIiIiIiIgYQIiIiIiIiAGEiIiIiIgYQIiIiIiIiBhAiIiIiIiIAYSIiIiIiIgBhIiIiIiIGECIiIiIiIgBhIiIiIiIiAGEiIiIiIgYQIiIiIiIiBhAiIiIiIiIAYSIiIiIiIgBhIiIiIiIGECIiIiIiIgBhIiIiIiIiAGEiIiIiIgYQIiIiIiIiBhAiIiIiIiIAYSIiIiIiBhAiIiIiIiIGECIiIiIiIgBhIiIiIiIiAGEiIiIiIgYQIiIiIiIiAGEiIiIiIiIAYSIiIiIiBhAiIiIiIiIGECIiIiIiIgBhIiIiIiIGECIiIiIiIgYQIiIiIiIiAGEiIiIiIiIAYSIiIiIiBhAiIiIiIiIAYSIiIiIiIgBhIiIiIiIGECIiIiIiIgYQIiIiIiIiAGEiIiIiIiIAYSIiIiIiBhAiIiIiIiIAYSIiIiIiIgBhIiIiIiIGECIiIiIiIgYQIiIiIiIiAGEiIiIiIgYQIiIiIiIiBhAiIiIiIiIAYSIiIiIiIgBhIiIiIiIGECIiIiIiIgBhIiIiIiIiAGEiIiIiIgYQIiIiIiIiBhAiIiIiIiIAYSIiIiIiBhAiIiIiIiIGECIiIiIiIgBhIiIiIiIiAGEiIiIiIgYQIiIiIiIiAGEiIiIiIiIAYSIiIiIiBhAiIiIiIiIGECIiIiIiIgBhIiIiIiIGEBYAiIiIiIiYgAhIiIiIiIGECIiIiIiIgYQIiIiIiJiACEiIiIiImIAISIiIiIiBhAiIiIiImIAISIiIiIiYgAhIiIiIiIGECIiIiIiIgYQIiIiIiJiACEiIiIiIgYQIiIiIiIiBhAiIiIiImIAISIiIiIiYgAhIiIiIiIGECIiIiIiYgAhIiIiIiJiACEiIiIiIgYQIiIiIiIiBhAiIiIiImIAISIiIiIiBhAiIiIiIiIGECIiIiIiYgAhIiIiIiJiACEiIiIiIgYQIiIiIiJiACEiIiIiImIAISIiIiIiBhAiIiIiIiIGECIiIiIiYgAhIiIiIiJiACEiIiIiIgYQIiIiIiJiACEiIiIiIroyAo9+kVUgIlrnSvawBvCOj1gECrFo/zjqiBFti0XQFyPqiEWYB6J8LMJMjCgTI8zEIshEIkjFCJOxCBKRCKwYoY5FqFqfAxUjEkAkYxGJGDGAWMQiFO1fv+QrkhCxigRU3LqYiMWft/+QiFs/lyEgYxHLUEAFIlaegPJkrF0RK1dANUSsGgLaFrFaEFALrc9yTsR6VEKNIRYLAAKIOBCxDgEEl36M5M4EfIYQEW0cXAEhIiIiIqJVo1kCIqL1a8h+oBSLcDAUbncswt4YYWcsws4YYUcswmKMIBeJIBOLIN1e2TBjREYsQh0jUu3VjcXPMhahjBDIWAQiFoGIEYsYIWIRAog/6pen3v+3BQQkEAsIKAiIWMQaIlaxgIxErFufoSIR61DGKmitkuhAQHoi1q6AashYN0WsbQFdWVwlkbGaFdBzIpZTg9X7ZwTE6Gj2kQk+Y4iIGECIiOh9lOzhXIywCBHnY0Q5IM7FiLKxiHpiBP2eWhiIhN8di6AQCa8QCS8TCS8VCjcZCscMZVOHsiHid2yPWi9ixAgBAcQIFhNJ6/NHWIEXsYKOU5GKkoGME56KraaMzbqMzaqMzYqI9YKM9Uxf7a5RAT0lYjkjIKuAsAWkjVgsCKjKSO5Mjc84IqK1xx4QIqI10FrZCA5Gwj8UCX93JNxSKNz+UDpdoWjmI+EkIxHoVv9FKBf7MGIRoPU5bN3cb7WLVqwgoCFiGQuouPVzGbdWUVQkYyNQcbKhomRZxdasjBMTMjYuyNh8Q8bGKwLy5dHsI1N8BhIRMYAQEW3OoFE9vS9CuD8W/u5I+EOxCHojBB2x8Dsi4eci4eVC4aZC4SRD2TRC2VChcAQrd2VUlIp1nAxVlPRUnGjK2KrL2LRlbFRErMsyNuYE9JSMjRER6/MS6k0R61dHcmciVo+IiAGEiGjdK9nDhRhhtr2VKhMj7o2FtzcU7pFQNvcGsj4YyFqHL6vJQNZ1JDxcRs8FXeElDwBUbEJHWV9HmYaOMvM6Sk2oOPGWjBKvyNg4KyAn21u3Ku2tW2XWjoiIAYSIaL0Ej65IeCcj4Z4MhXsolM6OUDSHQtnIh8JNRsLTkfBUJFwVCle0mr1pXVwAYw0VW7GMzbD9EcjYdFWcsFuhJPmmjBIvqth6UsbmMyO5M/OsGhERAwgR0WqGjUIkvAMxwj2R8HfGwh8MhTcUCbc3lM2eQDbygaylfFkxIuGzYBv2wihhhPnAiHJNHaUXVJSclnFiQsXmqIiNURkb5wTUWRkbr4zkzjRYMSIiBhAiouUIGxJAJhZBGrHMxMLfGwr36lA2rg5kfa+nKgO+LGdC2VCtUbYRICKsz2lUdLmXyHaTOwRkrKJUaIZF24hyYzrKvKKj5BMytp4TsX4LIqqJWNc5aYuIiAGEiOhywkdHKNwbI+ncGIjm8VA2toWi2RNKJxmKZiKUTSMQdcntVFuPjA2oKBXqOOWrKOHIOFHXUWpaxcnzKko+o+LEYzI2f86VESIiBhAiovcLHD2R8PZEItgdI9weCWdfKJt7fVnd5qmFTk+VrUi4LBS9KxUnYjMsOmZYnNVR9oKKEmdlbJ2VsXFRQr8lYv06+0eIiBhAiGhrBw4JwASQiIR3LBTNOwNZv9FXlYOeWugKZN2M0DopvNXLwWlV9MGXUxmbkLGKRWxEOsp4ZlScMsL8izpKP6bixN/J2HgNgAfA47hfImIAISLaIoaqpw+Ewr01Es51gWzuD0VzIJD1YiBraV9VTJ7BQctFR6lYRznXiDI1FaXndZwcU1HyVRknfq4i68ejuYcvsEpExABCRLTJlOzhXCyCXRHCUiy8PYFsXh/I2hFPzW9z1HQmlE0GDlqlQJKJrbC7YoXFCzrMPqfi5C9lrM8LqPMi1ufZN0JEDCBERBvcUPX0sVA07/Rl7U5fVY760u4MZM2KhKdC4fBMDlr9i26soeJEJGMz0lGmaUS5aTMsPKOjzPdUlPzhaO6h11klImIAISLaWKHj+lA0PxZK52ggGvsDWe/3VbnTU/PJkI3ktM6oKBlbYWfDiPKzOkqPqSj5mooTz6o48cPR7CPPs0JExABCRLTOlOzhRIxoMBbBYCS8E4GsfdxV89e4eqbHkwsGVzloo5CxATPs8Kywe9wMi7/UUfoHMjaeE7GaEFBjI7kzAatERAwgRERrGz56Qtn8pC+rn/Jl5aSvKr2BaCQCWdPs7aCNqtW8nvFVnG6YYX7CCHNP6ij7qIoT3xvJnbFZISJiACEiWu3QIZxbIuEeD2XzhC9r+z01P+ToqXQkPBaINhUVJeNE2FM1w46LOsq8oqLk8yo2n5ax9VOGESJiACEiWrnQkYgRdsYi3BnK5qc8uXCPo2f2emo+83YzOc/qoM17qZaxhoqTkRV0Vqyw+xUjLHxbxYnvCoiLItYLI7kzTN9ExABCRLRM4aMnkPXP+LJ6n68qh3xp9wSymvJVRcXgWW60xS7asYYZ5QMd5epGmJsyotyzRpj9uoqTD4/kztRYISJiACEiurzQkYiEe30kvKtC6VzrycrVjp7a7ugpiysdRIthRCEZ9DWssOdNI8w9reLk4zI2npax+ThPWiciBhAiog8ZPGJEg6Fs3u2r8ucdNXXCVfO5SDoyFJ5g+CD61Yu4hIzNWEXJyAq75q2g+3Ejyv+Viqy/F1Az3JpFRAwgRETvYbB66o5A1k/70r7BV/YOXy4UXT1ncpsV0YfTGuPb6ZhhYd6I8m8aUfZnKkp9bSz76BOsDhExgBARASjZw12RcA+Hwr0tkLWPOXr6ZFOPFzlCl+jK6CgTJYOBGSvofsKIMj+UsflzGZsvcnIWETGAENGWNVQ9vS8QjS94av4BR0/v96WdDGVDRsJncYiWgYwtqCgZmlGhngh6XjTD4l+pKPnQaO7hEVaHiBhAiGjLGKyeuikUzU/7qnqrpxb2umq6y1NlxcoQrRwr7PKtoHvajPKv6TD7Yx2nHhnNPvIsK0NEDCBEtCmV7OFMLIJdoXCv92X1lKunbmrosQ5utSJaXTrKRCl/cNoKe36ko8w3VWw+JWL91kjujMPqEBEDCBFtlvDRE8jab3iq/FlXzR72VSXrS9vgqeVEa0PFVmyEucCICmUr6HrGjIp/qaLkGfaHEBEDCBFtaEPV04dC4dwTyPptniqfdPTkoKtmDVaGaP1IBH1uIui9YEb5p1WU+pGKkt8dzT10jpUhIgYQItowSvZwTyS8476sfNnR03c1jfHeQNRlLEIWh2g93gjECkaUC5PBwEgi6PmmjjL/RcbmqyO5M/OsDhGtBIUvHmUViGhZDFZP3eKp8p86evKPGubIjY4xWQhkXULwAEGidZxAEEpHhrKRD2XzcCyCWwEMFt1jU7b12iQLRETL/rLDFRAiuvLgcf+1oXA+Hij7E46aOtkwxgrs8SDamFSciFN+abZ1hkjuOyq2fjSafeR5VoaIGECIaM2V7OGOUDi3+6r8laaeuNXR0/lQNLndimij3xzEGjpKR4mwdzYZ9H3fCHP/QcbWYyO5MzVWh4iuFLdgEdFlGah++lO+Xvg/NY3J320a4yeaejwbSVdwuxXRZkggESLpikBW05HwdkXCvwmIDxTco3bVOnuBBSKiK3qJ4QoIEX1YJXvYjEVwMhDNO31V/lRTjx9vGuPpGBGLQ7SJydhAMhi0k37/E0aU+4aMrR+NZR99hpUhIgYQIlrR8BEKZ9hT87/TNMav99R8OpANGYPbrYi2xA1De1uWFXZWkkH/T4yw+P9RsfXtkdwZvgNBRB8Jt2AR0QcarJ6621PlP3P01FcbxuixpjGWioQnAG63Ito6CaS1LctTC8lYhNsgomsA7C+4Rxaq1tlRFoiIGECI6IoN2Q/uTvs7H/TU/D+qm+c/WTPP9QWqqlkZoq0tkFXDUws9sQgOytgoFZxjIu8ertjWqzxNnYgYQIjo8gxWT93m64V/2TBGfq9hXDzo6lmL062IaFEsQgSyZgWqvisW/k0SarDoHh/h2SFExABCRB/JkP3g7pS/7Q88PfvHDWPs1oZ5viOUTcntVkT0a0SEUDaUr8o5IN4FiKN590i+4B4esa3XOLKXiBhAiOi9lezhTNbbc1Wg7D9qmCP/oGa+td/VcxaDBxF9kFhE8FQl4avKDiA+ImMrXXSPTefdIxXbeiVghYiIAYSIfjV8dAWy+geOnv6XDePinY4xXghlU7AyRPRRRMIVgaznIukeB+JrBLQsOseft61XuH+TiBhAiKhlsHrqTl9V/rhpTH2xbp7b7+oZMxYhwwcRXZZY+MJXFSuUzQEBuV9A9hfcIzVOyiIiBhCiLa5kD6cy3q5Trp7585r51n0NY7Q7lA0GDyJaFqFsSl+VO0PhHpexsaPonJgpuEfHuSWLiBhAiLagoerpQ76q/DNHT/5x0xg54ugpTrgiomUXi1D4yrYi4W+DiK8VseosOMfO2darFVaHiAGEiLaAkj2cy3i772ltuRr9TM18Y8hXVcXKENFKCmRN+6rcLSD3CeiBgnu02l4N4TsfRAwgRLSJw0cikPXfcYyJf1E3zt/q6MlsJHwWhohWRSwCEahqNpSNgwLyiIDRLDrHX7StVzhqj4gBhIg2m8Hq/Sd9VfnXTWPiq3Xj4m5PzxmxiFgYIlrlEBIikDUjkl4vgOMCaqDoHrtoW6/NsTpEDCBEtAm0z/b4mKcW/rRuXvhMzXirp3WoIBHR2gllQ3lqvhOID8nY7C64x2YK7tEpbskiYgAhog0ePgJZ/6Kjp/6sbp67zdHTKTaaE9F6EYsIgawnQ9k8KKAPytioFdxjr9nWK1yeJWIAIaKNZqh6+lAgq//Y0ZO/VzcvHHT1nAFuuSKidRdCQgSypmPh9QuhDohY5wvOsTHberXM6hAxgBDRBlCyh3XO23fMk5V/2jBHv1g33ywFssYpV0S0rgWyoXxp9wLigISRKTon3rCtVxdYGSIGECJa5zLergccPf1/aRgX73GM8UIoXB4sSEQbQiR8EchGNpL+QQF5sOicmKxaZ8+zMkSbj2YJiDa+kj3cFcj6Zx09+bsN4+JxR88YrAoRbTShbIi6PFeIhHN37AfZgdp9/SpKPjqSO1NjdYg2D66AEG1wQ9XT/YGs/0HTGP2nNfPN/Z6q8I0FItrQAlnXgayWBNQRFVte0Tn+pm290mRliBhAiGiNDVZP3eDLyp83zJHfahgX+wNZ54hdItoUIunKUDY7YkQnJHRv0T02YluvTbMyRAwgRLQGSvZwIuvtvstT5X/aMEfuq5lvdUTCZ78HEW2uECJc4amFnIDcLWOjt+Aemyq4R8d4ejrRxsatGkQbUCian3X1zB/VjYtXuWrOYkWIaLOKRYi6caErFM3hlL+tywo7/1cA32FliBhAiGgVlOzhQiCr/6BpTHy1qUcPstmciLaCSPhoGGOpWER3xH6UHajd16ui5H8ayZ3hAUdEGxC3YBFtEEP2A6VA1n+vaYz/Ud08v9dTC3wDgYi2lEDWdCTdfgm1R8aWW3SOj9jWKw1WhogBhIiWO3xUT/f6yv43DXPkqw3jwmAga2w2J6ItKZQNFYhGNwSOytg0is7Jx23rlYCVIWIAIaJlMli9/2Qg7T+rGyPDDWOkO5QOm82JaEtrTchqFATkHhmbHQXn2Bu29WqFlSFiACGiKzRUPX3MV+U/q5lvfbZhjORj4bMoREQAIuGJQNl5iPigihOponP8VYYQIgYQIroCg9VTt7hq9r+vG+fubRoT6ViELAoR0SViESKU9VQkwgMK5vaic+IV23pthpUhYgAhoo8ePu521dyf181zdzSN8STAkfdERO8VQnxVTsSId8rYGig6Jy5UrdfGWRkiBhAi+hBK9rDMenvucvT0v65Zb3zM0TM844OI6EMIVNWMhLdHxaneonPi9ar12iSrQsQAQkQfIOPtetDRU/9twzh3vatnecYHEdGHFiOQNR0Lf4eMrV1F58RbVevsKOtCxABCRO+iZA+bGW/nZx09889r5pvXuHqO4YOI6DIEsmbEIiipODFQdE6MV62zF1gVIgYQIvqV8BGK5mlHT/151Xz9al+VFatCRHT5QtnQoXB2qjhZKjonzletsxdZFSIGECJqhQ8ZiuZvOMbkn9fM80cYPoiIlkOMQNZVJPwhBXNP0Tk5UbXOvsW6EDGAEG318JEIRfMLjp7606r55nGGDyKi5RXImo6EO6jixFDROTFTcI+et61XIlaGiAGEaCuGDzMUzc81jYl/WbPeOOYrW7IqREQrEUKaKpTNkoytXSq2Jgru0Tdt6xXONidaQ5olIFp9oWx+tqkn/kXdOH/QlwwfREQrJ4arZg1hqOsA/Hki6AaAb7EuRGuHKyBEq6hkD8vWqN3pf161zp70lc1tV0REqyCQdRXK5qCOUgNF5+RI1Tp7nlUhWhtcASFaRZFw73H01J/XzDevCmSNKx9ERKvIU/O6ar5xGzxgsHqqOZb9+i9YFaLVxxUQolUyWD11t6Nn/nXdPHetp+YZ/omI1kAoGyoW4UDrnJCTb1at18ZZFSIGEKLNGD5ucNXsv6laZ2/z1DwPGSQiWkOBrOtIuDt0nO7qcE6+ZFuvzbAqRAwgRJsofNx/ratm/23NfOs2V8+arAgR0foIIUC0U8aJ/g7n5PO29docq0LEAEK04Q1VT5/w1Py/qplv3e3oqQQrQkS0fvjKNgDsUFGqUHSPv8oQQsQAQrSxw4f94G5Xz/0PNfPNUwwfRETrUyBrZizCfSpKZTucqx+3rVfqrAoRAwjRxgsf1dOHPD3/b+rG+VNNYyzFihARrVMiRqBqpoDcqWKzs+iceM62Xq2yMEQMIEQbJ3zYD2z3lf3Paua5LzSM0QwrQkS03sXwZTUJiN06SqPgHn3Ztl7jSggRAwjR+leyh3O+qvy3dePibzSNsUIsQhaFiGgjEBFC2UgKqL0qSsmic/LHtvVKzMIQMYAQrVtD1dO9gaz/w6Yx+tWGebEnEh6LQkS0gcQiFIFsZFRslVSccIvO8Vdt6xW+mBMxgBCtPyV7OBXK5peaxtg/aRgXB0PZFKwKEdFGDCG+iISbl9C7VZScKLjH3rStVwJWhmj58DRmoisPHzqQjWFXzfyDhnFxWyBrklUhItq4PFVWwMV9Mrb+kRV0uQAeZlWIlg9vlIiuUCTcmz01//sNY/SoL21+TxERbYoQsqAbxsh1nir/7lD19BFWhGj5cAsW0RUYrN5/tafKf1o3z9/Bsz6IiDaXQNYMAdWro2Si6Jw8a1uvzrMqRFeO79YSXaah6un+QFZ/t25c+KSjppMAh6UQEW0uMRw9nmsYI58LZO03S/ZwjjUhYgAhWhMlezgTiMYfNPXEg01jLBsL9icSEW1GoXBFwxjpcvTUbwWy/lsle5j9s0QMIESrL5CNB5vG+O/UzHN9MXjWBxHRJg8hqJlv7nL05D+OhHsPK0LEAEK0qgaqn/qMq2b+ScMYGYqEy4IQEW0BgayLunFxn6tn/8Vg9dQdrAgRAwjRqhiqnj7iqfk/rBsXTnDiFRHR1uKpBV0zzt/oqfIfDtkP7mRFiBhAiFY6fBzwZPlfNI3xG1w9a7AiRERbTQxXzyQcPXGXryr/zVD1dD9rQsQAQrQiSvZwVyCan2ka4/c5eirLiVdERFs1goRo6vEOR08+GAr3fk7GImIAIVoRgWw84Orp32zq8a5QOIIVISLa0tcE0dBj/a6a/Z1QOGxKJ2IAIVpercMG579SM84dCGSd4YOIiOArW9XN8yc9Vf7tIfvBvawIEQMI0bIYsh/c7cvyP20YI1f7qsLvFyIiaovhqlmjaYzd5qvKPxmqnu5lTYgYQIiuSMkeTgWy+tW6OXLK0ZNJVoSIiH5VU4/lG8bo50Phfr5kDydYESIGEKLLDR86kPWvOnr6844ez8eIWBQiIvo1kfDR1OPdrpr5nVA0P8uKEDGAEF3mBcW7xlVzX24aY7tC4bLvg4iI3lMg67JhjBzy1MKXh6qn97EiRAwgRB/JUPX0gUBWf9fRk0ddNa9ZESIien8xHD1jOnr6Gl/WfmfIfqDEmhAxgBB9aIFoPtgwxk67ejrF8z6IiOjDh5CJoqMnvhhK927Wg4gBhOhDGah++lOemvtcwxjp4tYrIiL6KALZEA1jdMhT818erJ66iRUhYgAhel9D1dPHPDX3pw3j4mEeNkhERJfDl7ZsGCPXe2rhvxmyHxhkRYgYQIjePXzYD5QCUf9c05i41tGzJitCRESXy1FTSUdP3xbK5udK9nAPK0LEAEL0a0Lp3Ofo6c+7ajbLvg8iIroSsQjhqplOV81+JRTObawIEQMI0TsMVU8f8mVluG5c2BPIOr8niIjoivmqourmhcOBqg5zKhYRAwjRkpI93OPL6j9sGpPX+aoiufpBRETLIUYEV80aTT15RyDrv1Oyh1OsChEDCDF86FA2P9nU48NNPZ5nRYiIaLk19EiPo6e+FAn3tpI9zPsuIgYQ2soi4d7syfLnHD3VGwmXBSEiomUXyqZw9NR2X9m/FQn/JCtCxABCW1TJHk4EsvHZpjFxcyBrihUhIqKV4quK2dST94Si+WlWg4gBhLaoSLi3u2rurqYeLUTCZ0GIiGjFhMIRDeNil6fK9w5W77+WFSEGEKItpnXg4MI/dPTkToYPIiJarRDi6Mmjvqz88ZD9wHZWhBhAiLaIkj2cCkTz0009/jFPzVusCBERrRZXT6cdPXlPKN27S/YwD70lBhCiLRA+ZCjcO321cMrRM3mufhAR0WoKhQtHT3f7svyZSHg3sCLEAEK0+XX4qvKbDWP0eCDrguUgIqLV5ktbNY3xmwNZ+zxXQYgBhGgTa0+9+qSrZm5r6skkDxwkIqK1EIsQDT2Wc9XcPaHgVixiACHatCLh3u6p+d939FQ3wwcREa1tCAng6Kltnpr/o0h4V7EixABCtMmU7OFcIBv3NvXY1b6salaEiIjWmqfKVtOYuDkU7l0lezjBihADCNHmCR8yFM1PemrhLkdPpWIRsChERLTmIuHCVVM5Xy3cFwn3NlaEGECINokY0XZPLXylqUf3cuoVERGtJ4FsiIYeP+Er+7dL9nCBFSEGEKINrmQPZ0Lp3Onq2WtcPccmPyIiWndcPZ101dwtoXA/xq1YxABCtMFFwrvRl+UvuGquGCNiQYiIaB1eq3y4aq7PV5XfjoR/lBUhBhCiDSyQ9U82jLHrAzaeExHROuarBaupxz8WCecOVoO2At6Y0aZTsod1JLzrmnr8dkdPZtn7QURE61nrhPSJjkTQc89Q9fQ3RKxfHcmd4dI9bVpcAaFNJ0a005f2Hzh6Zk8kPBaEiIjWvUA2hatnjvuy+nuxCLpZEdrMuAJCm04kvOOunvm4p2YzrAbR8lFCQgkJU2poIWEIDSUk9CW/nlQmkspEWllItX+cUhaS0kRCGUgpEwlpIqkMWHLxQ8OQClqopc8S4h1HhkohYIjW7/lxAD8KESGGgIBA63jRMI7gx0HrcxTCiXy4kQ83CuCEPpzIQyP00Fz8iDzUAxeN0EMjdOFFARb8Oub8GqI4giUNAIAXBfCiACFafy/Ryojh6KkOHWXu1VH6YQBTrAkxgBBtAEPV0/2eLH/SUTN9gWwIVoToyggIKCFhSY2EMpCUJtLaQqL9OaXMpRCRUhYyKoGMTrSDhoGkagWPhGz9vPXj1mdD6PbnVvBohRkFLSSkkIjjtyOIaAcQJSSCOEQQR4jiqBVAhEAcxwjjCEEctT+HcCMfXhS2Q8g7g0jzks+N0IUb+WiGPl6tjQP1SZhSo2ikIYRANWiiGjjvCC5BFCF+R0QiunK+rEpXzWw3w877Svbw8yO5M2VWhRhAiNaxkj0sA1n7kqtn7/SVbbAiRB+OFAJaKFjtFYy0slrBQZrI6FaoKBhp5I0k8jqFvJFC0Uijw8igYKSQ00mklLUUSEypodAKEVK0VigWg4Jsr1m0fl1ACLTXMFZGFMeIECGOgRgxIsSI47j147gVIaI4ghQS024F/2n0p5BC4Gi2hGsKuyAgMOVWMOtVUQ7qWPDqWPDrqAYOaqHTXkF5exXFjQIEMVdJ6PJ5aiHpqbn7VWy9BuDfsyLEAEK0jsUi6PWlfW9Tjw+x94Po1wkIaClhCo20tpZWM7I6iaKRRtFIo9vModfKo8vMosNs/TxvpFrbpISGKRVMqWFKDUsaMEVr+9R6DlcSCh+UcWLEeNZewKu1cWghcXPHftzZdRhSCDRC79dWU+ygiVmvihm3iim3gmmvgmnXxqxXxbxXQzVsrZjUQxfN0IMfhVwxoQ8llI5o6LE9Osp+omQPnxnJnbFZFWIAIVqHSvawDmXzXk8tHPLUgmJFaKuTQixte0opE1mdRMFIocPMoNvMLoWMLjOHnE4urXTk2qsci6sa6zlcLNubF4jxoj2K/+3CD/CT+Vdxe+ch7Mv0IaNbZ8KllPXuN4pxhFrgoBw0YPtNVIIGKn4DtdDBvFfHpFtuf1Qw49qY82qohk3UAxdO5MOLAj5R6V2ejxFcPWv4QeWkIfJ3lOzhr3MiFjGAEK1DkfBPenLhi66a4+QQ2nIWG8AT0kBGJ5BRCXSYafRaefRaefSYeRSNNDrNDLrMLDrNDHqs1q8lpAEl5Kpsh1qvptwKvjH1NL478xzCOMLedB96zPyHqnveaG1JQ7IVZBa3evlxiIV2CJn2bMy4NmY8GzNeFRPOAsacBUy5FSz4ddTa/SVuFHCVhJZiiKtnSkaU+y0Zdr4C4CxrQgwgROsugLg3O3r6avZ+0FbQ2v7U6tfI6uTSikaP2Q4cVm4pfPRZBRSN9DsmTWmhIAVnNABALXDw47lX8cjUU5h2bRzPbcfudA+S6qO/lCyGOLQb9/sTBfQl8vCjcKlxvhY4mPZsjDbnMebMY8IpY8JdwHg7lMx6VdhBE07YWiFhINm6PLWQcNXsTUaYO8kAQgwgROvMUPX0AVfN3u7qmUIkXBaENmXgSCoTGZVAp5lZCheLH4OJIgYSRXQaWaS11R6B22oIV4LHPb0XPwrxePlNnJl4HM9UzkMKgVKyA6Vk59II3islIFo9M+3LbU4nMZAo4kBmAPXARS10YPtNTLpljDTnMOLMYay5gAm3FUimXRtlvw4n8hHG3IWzlYTCEZ6a6w5k38eH7Ad+Opp7eIxVIQYQonWgZA+bvqx+xlVz1wayzjst2hQMqZCQBvI6he72akaPmUOPlUcp2YGhRCe6rewlU6hSyGhrS26fuhJvNabxjaln8JP5V+FFAXI6iW3JLvRbxRUPbglpIGEa6EQGSAKH4yFUggYW/DpmvSqmXRsXmjM435jFSHMOE+4CJpwyZjwb9dDleSRbJSQr2/DU/B0qTjwD4P/NihADCNE6ECMa9FXlXkdP9cTgu4O0MS2+S543kug0sui2sui3itie6sKuVA9KyU70mDl0mBnkdBJZnYBun4lBl2fGs/Gt6Wfw3ZnnMOGUAQA9Vg67Uj3oMrOr/vVIIZYmke1Idrca3EMHC34dk04ZI84c3qhP4fX6JC42ZzHhlDHt2rCDJsf+bmKR8OHoye1GlL23ZA//9UjuzDyrQgwgRGuoZA+bgWzc6amFA54qa3CvNG2w0JHWFrrNLLrNHAYSRexIdWNnqhtDiU70JwroMXMoGOmlw/7Yt7E8nMjHT+Zew8OTT+JsbXIpAPRaeQwlO5DR1pp+fVIISKFQlK1Asi3ZiaPhNlSCBqbcCkaac3irMY2ztQm8UZ/CSHMOk24ZtdBBFPN1cDNpTcSaM62w55gRFm4D8DCrQgwgRGv5wiyCk74sf8ZT8wWGD9oILGmgYKSQ1yn0WnnsTvdgT7oP25KdGEx0oD9RQKeRRc5IIiE5T2GlPF0+h78e/wWeKp9bWj0whF5q5DfE+ro0aqGQ1QpZncBQogOHs0NLE7YuNufwen0Cr9Um8GptHGPOPGa8KmqBwwd604SQEJ6a6zdV8TeGqqdfHs0+woZ0YgAhWiuBaN7t6OnrfcnJV7Q+La5yJKWJLjOLPele7En3oZTswI5UN0qJVvAoGCmucKySc40ZfG3yCfzd7Auoh28PrUgqA9uSXeixcuv+cUhIA/2JAvoTBRzJlmAH+zHizOH12iTO1ltB5KXqKEab86i1D0Skjc1TC5arZm7TUeY2cCIWMYAQrY2h6ul9jpq+ydFTBZ56TuuJFK0RrDmdxK5UL3ane7A92YUdqW7sSfVhW6oTXWYWaWXBEJqhYxXNelU8Mvkkvj39LOa82jt+r8PIYEeyGz1WbkP9mwyp0Glm0GGmcSAzgIrfwIXmLF6ujuG12jheqY3hOfsiJpwy/DjgFq0NKhSOcPR0dyLouW3IfuC7o7mHR1gVYgAhWkUlezgVyOqnPFU+yslXtG5eTIVCf6KA7ckuDCY6sCPVhcPZIexM9aDfKqBoppFVyS1xsvh6VAsc/GjuFTw0+QRerY3/WmjsSxSwLdWJvE5tyH+fgGhN1rLy6DZz2Jfux7xfw1v1aTxnX8AL1RG8WZ/C2foEpl2bT4gNKJBV7any9SpOf6JkD/9/eTo6MYAQraJYBDs8VbnfVbO97P2gtWS1t8J0mzmUkh04mBnEoewgdqZ60GcV0GVmOR53Pdy4xSGesc/jr8d/gacr539tFSApTfRbBfSaeZhy418WpRAoGCkUjBS2J7twLLcNI84cztYm8FTlHJ6zL+BCe7yvE/l8gmwQkQjg6OntRpQ9pWLz6wCmWBViACFarRdhBMc9tXDQUwvs/aBVZ0qNtLLQYWZwIDOAq/I7cDg7hB3JbvQlCugwMkgri1ur1pGztUk8MvkUfjD78rs2Z+eNFErJTnSYmU33b1dCosfKodvKYn+6H9cX9+CN+iSeqVzAz+ZfwwvVEUy7NhohD3Fd/2J4as7yVNdRM+w4wgBCDCBEq2TIfmC7p8q3+7JSiEXAgtCqEBAwpEKfVcCR7BCO5bbhYHYQu1I9GEp0oLPd08HQsf4snvfxjamnMeO9+9ajgpHCjmQ3CkZqUz+HMzqBTHuS1pFsCTd37MOL1RE8vvAmfjZ/Fuea0zzgcJ2LhA9fVnoCWf9keyLWBKtCDCBEKyyU7t2emr89kHWT1aCVJoVAn1XAnnQvDmYGcSAzgP2ZfuzPDKDPyiOlLBZpHasFDn4w+zIenXwab9Sn3vPGvNvMYUeqGzmd3BJ1MaXGQKKIgUQRR7MlXJPfheuKu/HLhTfwRPktvFGfgsutWeuWrypJTy3cq6LEEwD+ihUhBhCilQ4gonGToyd2hLLJt5ppxRSMFAYTHdiT7sXx3HZcnd+JY7lt6LZySEiDJ5BvAEEc4snKW/jLsZ/j6co5hPG79+ta7ZvxoWQHkmrrva+RN1K4prALh7ND+FjnQfxk7jX8aO4VPGufx/nGLLdmrcfntqjLpp7YbYbFGxlAiAGEaAWV7GEdi+BQQ48ddtWCGYPbBGh5pZSFopHG9lQXTuS244biHhzPbcdgonUytsWDATeUs7VJPDz5JH4098o7zvt4txvwfqvVu7OVhwUklYmDmUGUEp24tXM/fjZ/Fn8/+xKerpzDaHP+fWtIqysWIXy1kAhk/cRQ9fQREeuXORGLGECIVuQFN+gOZP2LvirvYu8HLRcBgbyRRCnZiaPZbbi2sAuHsoPYnuzGYKKIjE6wSBvQtGvjG1NP49HJpzDv19738e+18tiW7EJGczsdAGR0Agczg+i3irimsAtPlc/h72dfwi/Lb2CkOQcv4uvvehAKD74s7zdE7rNGnPtfAcyzKsQAQrT8tnly4ROOmimyFHSlkspEj5nDrnQPjuW24Vi21VR+IDOAgpHi2NwNrBo4+P7si3ho8gmca8y8759VQmIgUcTOVDfS7Od5h4KRwgljO/al+3AgM4Bry7vwk/lX8WT5HMadBQQxV6HXmqOnuo0of5eOU/+FAYQYQIiWWckeNgNZP+Gp+Z2+qvAUN7osSkgUjBT6rAL2pvtwLLcNJ/M72tusijCkYvDY4II4xOPlN/DX47/AM5ULH/jnTakxmCiilOzkQIH3kFIWburYi+O5bbgqvxN/O/MCHls4i5eqo5jxbJ6svmZieKqsPFXeYwVdx0v28PmR3BmPdSEGEKLlepkVwaFA1j/uKzvDatBHfpETCp1mBjtT3TiW24YTuR04ntuGHanW2FXeeG4er9Um8NDEk/jp/GsfaopTRlsYSBTRZWZZvPexOML3po692JnqxvXFPfj+7Iv46fxreL0+iYrfYJHWiC/tQiDrn5SR8QqAF1kRYgAhWiahcG7z1Px1gaxz9YM+NEMqDFhF7M8M4ER+O07ktuNgdhBDiQ7ecG5CE04Z355+Ft+deQ6zXvVD3VR3mVn0W+z1+ShhvpTsRI+Vw65UD07ktuPvZ1/Cj+dfxUhz7j0njdHKCWTV9FT5Jh2nf8QAQgwgRMukZA+nHD19i6umB0LhcH8MfaCUsjCYKOJAO3hck9+FI7kSBhJFJDjJalNqhl677+NJvNWY/lD/TWv7VQcGE8UtOX73SljSwKHsIHakurAv0499mX78YPZlPF05hwW/zgKtolA2hatntllhx7UA/iMrQgwgRMsgEv7hQNYOumqBdwj0vtLKwmCiA0dyQ7iusAfXFnZhf6YfXWaWI3Q3sSAO8cvyG/jaxBN4qnzuQ/ckJJWBHcluDCU7YEleCi837F9X2I3dqV4cy23Do5NP4cdzr/JE9VUUI4Kn5pKBbBwZsh/YPpp7+AKrQgwgRFegZA93+LL6iUBW+zl6l95LRicwlOjAVfmduL64GyfzO7An1YduKwstuGtvsztbm8TXJp740H0fbwfWBLanutBj5Tl84AooIdFj5XBP91FsT3bhUHYQ35x6Fk9W3mJvyCoJhYtA1rdH0ru9ZA//zUjuDAtPDCBElysS3hFfVT7hyUqO1aBfldNJ7Eh142R+B67J78JV+R3Yl+lHp5nhDeUWMeVW8K3pZ/Dt6Wcx49kf6b8tGCkMJTqQ1ykWchlY0sCx3Db0WnnsTPXgW1PP4kdzr+CtxjRH9q4CX5Z7fFn8lIyNnwM4y4oQAwjRZQcQ/6CrZg/5yub+GQIASCGQ1UnsTHbjaG4bri/uxrWF3dif7kdWJyEFg8dW0Qw9/HDuZTwy+dQHnvfxq5SQ6LMK6LFy3H61zHqtPD7VcxLbk13YkerGd6afw/PVi1wNWWGumksaUeFqMyxsZwAhBhCiy1Syhwuemj/qq3IuEi4LQkgrC3vSfTiZ344bi/twTWEndqZ6kNNJKCFZoC3Ej0L8YuEN/M34L/Fk+a2PPH0pp5PYmepGn1WAyQCy7AypcDy3fWla1tennsYP517GuLPA4qyQUDaFLyu9kfCOlezhn4zkzjisCjGAEH208CEj4d4UyNpVgWhyE/8Wl1Qm9qb7cFV+B24s7sPJ/HbsTPVwlO4W9kZjEl+bfBw/mnsFzkfo+1jUYWawO92LPqvAYq4QKQQGEx24r/cEBpNFDCU78M2pZ/BKbYyHF66QQNatQNZvkbH1QwBPsSLEAEL00ZiBbN7uqYW9kfC4p2aLSikLQ4kOnMzvwG2dB3B1fif2ZwZQMLhnfyubciv45tQz+O708x/qvI93DSBGBqVkJ/JGkgVdYTmdxI3Fvegys+iz8vg/Jh7Hs5ULaIRc2V5uoWwoT5VP6Ch9MwMIMYAQfUSxCIqhaFzlqvkCp19twfQpNbrMLG4q7sPHOg/ipo692JPuQ1Yn2Fy+xTVCF38/+xLOTDyON+pTl/V3SCHQbWbRbxU4nnm1bjSEwsHMILrNHLYlu/Bfxx7DD+dexpxXY3GWUSR84arZfivsuK5kDye4DYsYQIg+SgBBdMBX1d2+qvD5ucX0WQVcW9iFWzr246aOfTiQGeBWK2rdXMUxHi+/ib8Z/yWesy8ixuVt40m1z4vpNnMcWrDKusws7us5gU4zg14rj29MPYOLzVkWZtmunSE8NWcFon7YFMVdAF5mVYgBhOhDGKqe7g1E47ZA1ooxOLpxK92YHMmWcFPHXtzeeQjHc9vRbWW54kFLXquP42sTT+CHcy+jGXqX/fd0m1nsSvegx8rx+bUGksrErR0HUDDSKBppPDz5JF6tjX/kQQL0HkFd+PBVtT8M3TtK9vDkSO7MPKtCDCBEHyBGdMRX9h2BrHGj/xaQ00nsSvXgY10HcXfXUZzIb0evlecBgvQOE04Zj0w+he9MP4cFv37Zf48UAn1WATtT3ewlWkNKSBzPbUNGJVAwUvib8V/iWfsCvIhbbpdDIKt5X1Y/IWPzMQAMIMQAQvRBIuEd9tTCIV9WuDl7EzOkwrZkF24u7sMneo7hhuJelBKdMCSDB73Tgl/H38+9hEcmn7zsvo9Lb3z7EwUMJIrs/1hjAgJ70r34jcGbUDDS+M+jP8MvFl6/rKlm9E6eWrBMVT5uhvk9AJ5hRYgBhOh9lOxh7amFvZ6aL0SCF6HNetMxmCjimsIu3N55CDcU9+BQdghZnWBx6Ne4kY/Hy2/i/xj/JZ63Ry6772NRut3/wb6i9WMo0YH7e69GSplIaws/nH0ZdU7IuiKhcIQny91JMbiX1SAGEKIPEItgXyiaBwJZ5fNyEyoYKRzODuHWjgO4s+sITuZ3oNPMsDD0nl6pjeORySfxs/mzyzK2tdPMopTsRNFIs7jrSI+Vwyd7TiClLJhC4wdzL6HMk9OvSKCqViibx4bsBwZHcw+PsSLEAEL0Lkr2cCaQ9Tt9Vd0ViYCdoZuIKTV2prpxW8dB3NV9BNcX92DAKnK7Fb2vcWcB35h6Gn878wJmPPuK/z4lJPqtAnanehlA1qGikcbd3UeRkAYSysC3p59lCLkCkXBlIGuHDJG7rWQPnxnJnfFYFWIAIfoVMcJ8IGu3+XKhD+ApuZtB67yFHK4v7sF9PSdwW+cBbEt2Ia0sFofeVy1w8IO5l/Ho5NN4qzG9bEG4P1HAjlQX+z/WqbSycHvXIRhSQQmJb08/y7NCLjeAIISnytvMsHCbChNfB8AAQgwgRL9GxN2BrB1y9VwyBscxbnQ5ncTRXAl3dB7Gx7sO42R+B6cO0YfiRQF+sfAG/mrs53jevogoXp43JBb7PzrZ/7GuJaSBmzv2Q0ICAEPIZYpFCE/NZgPZc8SIclkALCIxgBD9qgjBnkDWekLhcPvVBmZIhd2pXtzcsQ93dR3FLZ37MWAVeeAbfWgv18bwNxO/wI/nX4W7jBOROowMtiU7uQK3QULILR37WzcpQuLrU08zhHz0CIJA1mUg64Mxop0AJlgTYgAhukTJHi54qnxNKJp8i3wD6zQzOJHbgU/1nsDd3UexN93HrS70kYw68/j21LP43swLqCzj/v/F8bvbk91IKZOF3gAMqXBLx34IAYRxjG9OPYN5nyHko0WQCKFo5iPh3Viyh58dyZ1hUw0xgBAtioR3dSjr1wWyyTuDDSghDezN9OGOzsO4t+cYTuZ3oM8qsDD0kcz7NXx3+nk8OvUULjRml/05Wkp2YkeqC0kGkA0VQm4q7kMcA1Ec4VvTz17RQZRbUSDr6UDWbpWx9WMAT7AixABC9HYAOeHJ8v5QNjgWaYPptfK4obgHd3cfxe2dh3AgMwAlJAtDH0kz9PD4wpt4ePIJvLAM5338qrS2MJgoot8qQoDbATcSU2rc1LEXXhygGXn43swLqAUOC/OhA0jV9FTliI5yBxhAiAGE6J0BZI+nFjrZ/7FxGFJhb7oPH+86jNO91+C64m7kdJKFoY8sRoyXa2N4ePJJ/GLhjRU5hK5opDGQKCJv8Dm6EVnSwK0d+9EIXTRCDz+aewXNkEOdPlwAaQhflvti9O9mNYgBhKitZA93NfXETl+V2Rm6QXSaGVxb2I1P957EHZ2HsSfdC1PypYQuz8XmHL47/Ty+N/M8Zr3qsv/9Skj0WQX0W0U+TzewlLJwZ9cR1AIHjdDFY/OvI4hDFuZDRHxPlZORcHeV7OHESO4Ml4+IAYS2fPjQkfCOhrLZFwqXBVnnpBDYm+7D3d1Hcar3KlyV34kujjSlK1ANHHx/5kU8MvkkLjRnV+T/kVYWdqS6MZgoLo12pY0pp5P4RPdxVAMHZb+xItv1NqNIeDKU7vYo8g+W7OHnRnJnOOueGEBoSyuEwrklFM0elmJ9y+gErsrvwKd7r8J9PSdwMDPI0bp0RYI4xC8X3sBDk0/gGfv8sp338auyOoldqR6Ukp18zm4CPVYOn+49iVmvinro4s36FIvyAWJECGR9KBLurTI2XgfPBCEGENrSL4oi6Apl8ypfVgusxvokIDCQKOLjXYfxQN81uKVjP3qsHAtDV+zlauu8j8fmX4cfrdxWmqxOYFuyi8/bTaSU7MRn+q/Fgl/Hfx79GWY8m0V53xfyCIGsdYbCuVqJxN8wgBADCG3tAIKoI5D1vYGy2f+xDiWViaPZEj7VexL39ZzA4ewQR5jSshh15vHw5JP41tSzK3q2gxISPVYOA4kCz6TZTPfTEDiYGcRw/3WYcit4ZPIpNEJu432fay18WcmEsrEXYUeGFSEGENrqL4oDvrT7fFnjxux1ZnG87qneq3F39xFsS3axKLQsKn4DfzvzAh6efBKjzvyK/r8yOoHtyW72Km1CSkhcld+BLwzciDFnHj+bP4swZmvDe/FVRQWyPhSLoBfA66wIMYDQllSyhxO+rO4LZSMNNhGuq4v67lQv7uw+jFO9V+GG4l4UjTQLQ8siiEP8fOF1PDz5JF6qjq74/69opLEn3YtOBpBNKaUs3NKxHxebs5hxq3ilNsaivIdWH0gzF4ngQMke/sVI7kzAqhADCG29F0MR7IikczQULp+D64QlDVxT2IkH+67FXd1HsC/dzy1XtKxerY3jaxNP4Mdzr8CLVv7+p2iksTfdhw6Du042q04zg0/3XoULzVnM+VVMu+wHeS+RcKxIOCdiWL0AmNaIAYS24guhf1Ugawcj4XH71TrQYWRwR9chPNh/Le7oPISBRJFFoWU17izg4ckn8b2Z51H2G6v2vC4lO5FWbDPbzHakuvDZ/utxsTmLhyefXNGhBhtZKBwjkPUTOkofZgChtcabP1qbAIJgly/twUi4fA6u5QuAENiZ6sYXB2/CP9n5CTzQdw3DBy27WuDgb2dewEMTT+Jic25V/p8JaaDPyqPHynH87iYnIHBVfgc+03cdjmRLEODj/a4BRDakLyu7I+EfZTVorXEFhFZUyR5OAEjFCJOASEBEFoCso6Zv82QlHwmfRVojljRwPLcND/Rdgwf6r8G+dD+UYB6kZb7piSP8bOEs/mbil3ixunoHx3VbOexK96Cg2cO0FZhS42OdB/F6fRJTbgXjzgKL8qvfi8IVrp7rNKLCqYHafRMilmOA8AHhCogmYukCsSOgmgAaPDWdGEBoIwaPjkh4B0LZ3B/B3xYLfygUfm8s/M5QuB2emt3mqzLnYq6RnE7i1s4D+Gz/9bir+wiGEh0sCi27KI7xcnUMD088iZ/Pv74qfR/A2+fX7E71Iq25/Wqr6EvkcW/PMbxSG8O3pp9FZZW2+m0kniwbNeOtmxw9fVzG2pex4crYtGVslkVszKnYmBKxMSphXBysnnpNxuarI7kz86wcMYDQujJkP7gzFsGOGOFgLMLeWIRdMYIuR0/2RMLrDoVXjISXjYSTDqWTCIWjQ9lQoXC5Rr5GBhMduKv7CD7bfz1u7tjHKVe0YkacuaW+j5U87+NXKSHRbxWwM9UDS/Iyt1Usng9yqvcqXGzO4mfzZ1mUXxGLAK6eMVzMFJa+X+JErKJkqOJEoKKEI+NEXcZmVcXmgozNmd767dMCelbEalbEakpAjYlYnx/NPXSOFSUGEFpR7a1UiVgEFmKRgIj7QuGe8FX5eCicvYFslEJZ7wxkPRPIuhkJV8SAAKLWlgvR/syRu2tGCoFdqR6c7rsGn+m7FifzOzjlilZMxW/gB7Mv4+tTT+NcY2ZV/9+GVOi18hhIFKGF4oOxhWR0AjcW9+LF6gjeakxjwimzKB8gFI4IlaMBoQVEArEstPpoJAQQy9iKdZT2dJSuqSg9p6PUiIoTr/fX7n1GxdbziMUkROyIWLsAHG7dIgYQWpbgEQnvukDWTkTC2xcKd0ck3MFQOsVIuOlQuIlIuGYoHR0KR0bCY9HWISUkjuW24fMDN+DBvmuxO93DGzNaMX7UOu/jzMQv8YJ9cdX6PhbldQpDyQ50mFzd25LXrWQn7uo6itfrk/jm1LM8Jf1Diy95w3CJCIUrfGknZGwmVJzoUFFip4ytG1RsfU7GVl1FiQUZW2Mqts7L2Dw7WD31rIzNxxlEiAGEPrTFLVWRCIZihAOumtsbyuaeUDSHAlkvBtLOeKpiMmhsHAlp4MaOvfjS4M34RPcxlJKdLAqtqBerIzgz8Tgem38dTrS6gyYW+z9KiU6kOH53S1p8w+XjXYfxSnUcL1VHVz0Eb0aR8BAJT/rSNgGYADIAumRsbjfD/CEd5Wo6Si+oODmqouQbfbV7XhdQ4zLWo9yyRQwg9A4le1gD0DGiwUi4V/mqclsg68cDWd3pyUpnIOtmLAIZiwAxQhGJANxGtXF0GBnc3nUQXxq8GXd3H0VOJ1kUWlGjzjwennwS313lvo9FltTYmerGjlQ3TMFL3JZ97TPTuLG4F89UzmPUmVu1s2e2ajBx9Kwp43KHgCqKWO8Ssb5FR2nPjPJzOsqe01H6uYHqfT+WsfW0gBwDEPA0dgYQ2oKG7AcGI+Hf5qmFa0Ph7g1loxQJtxjIRj4Q9VSgqjoUDhvFN7CBRBGf7DmOLw/diusKu9nvQStu3q/h29PP4utTT2Nklc77+FWm1Nie7MJAosjzP7YwAYG96T58vOswnq1cwOPlN1mUFRWjNVbfXzyGRfmqnPTiuUEdZnt1nD6mo9T9MrYWVJQaUbH1+kD1U0/I2PjxaO5hHorIAEKbVckeLsQi2BYjHIhEsNdT5eOBrJ7wVHmnp+bzniorrmxsHovN5l8cvBEn8zvY70ErrhG6+Nn8WZwZfxwvVkfW7OtIawuDyQ50mhk+KFtcSlm4rrAHt3cdwsXmHCbdMouyykLhiFA7houZPIA8ILaZYeGIGXbcZIaF23SUvbO/du9zMtavC6hxEeuLI7kzfKAYQGgTBA8dCf9oIKt3+rJ2u6/sg760e0LZsCLhqlbjOA8D3CyUkDiUHcTn+m/Ag/3X4HB2iKcC04oL4hDP2yN4ZPJJ/LL8BvwoXJOvQ0BgwGr1f2RUgg8MYSjRgY91HsRzlQuYm6uu2XOTFsXw1IIKZK3D1dMFGVvHVJRyjSg3bYS5V4wo88PB6v3fl7HxArdoMYDQxgsdZiTc20Ph3uTo6UOhaOwKZL3fV5UOTy1Y3Fq1OZlS42R+B74wcAM+038dtiU7GT5oVZxvzOIbU0/j72dfWtO99kllYle6B0PJDpg8/4PQGsl8JDuEGzv24qXqKEYdnqm3HkTCRyR8CVQlFAwVJ9JmWBwwwvxJHaV/Q8Wpt/pqd7+sYusxGVs/HMmd4eQbBhBap6GjEIugJ0ZU8mX1xkDZH3fV3BFXzXT4ylYxIhZpE7OkgRuKe/BbQ7fg/t6r0WPlWBRaFbNeFX83+wK+Pf0czjdm1/RryekkdqV60GcV+MDQkoFEETcW9+LxhTcx61VXfTIbfbBQOKKpJxJNPTEgIAeMMHfCCrtvt8LO23SYu26weurnAnJExHqaW7QYQGidGKzef9KX1XsDWf24ryoHfFktBrJuBbKuI8H555tdUpm4teMAfrt0Kz7RfQxdZpZFoVXhRD5+sfAGHpp4cl2MOs3qBLYlu1AwUnxw6O0bHaFwMDOI64q78WJ1FBebsyzKOhYjgqfKKpDNblfN3aqj9HVGlJ03wvyrOsr+YLB6/3fGso8+w0oxgNAaGKqePhAK75ZIuMccPXUskNWdrprrc/S0yWbyrSOnk/hY50F8eehW3NN9FHneeNGq3STEeMG+iIcmn8Dj5TfgroN3lTvMDAYSRaQ48Y1+RY+Vw/WFPXhs/nVMumV4EdsL1rtIuPCUqz01rwGRTgQ9PVbYuV9H2U/01j/+vIyt51Vs/nQ0+8irrBYDCK2gkj2ciRHmIxFc5cnyg66eu91VMwO+KpsRQhELvqBuJUUjjbu6j+C3h27DHV2HkOaha7SKzjVm8NDkk/jO9HPr4owFSxoYSnRgIFFk/we96/PjSK6Eawu78EptbM3GRNPliuHoactVc9skVMkICzdYYfe4FXT+cKD66YdkrJ8WUJWR3Jkaa8UAQstoyH5wry+rX/BV5c5AVnf70u70VDkZyBq7jLegTjODT/acwG8N3YLbOg7wjA9aVRW/ge9OP4+vTz6NcWdh3QTynake9Fl5Dl+gd9VlZnFVficeWziLcWcBYczeyI0WQmIRIEQgQj1lBbK+w5flLxhR7i4dZd80wvz3h+wH/2o099DrrBUDCF2Bkj3cFQn3ulB4J1w9fZ2nFq5q6okBTy3wUIctrNvM4dO9J/HloVtxY8deJKTBotCqcSMfP5l/DWcmHsertfF183X1WDnsTHWjYKT5ING7sqTGkdwQjue240V7FDOezaJsYIGsiUDWUgBSZlgcSAb9u82weE1f7Z7HVWw+K2Pr8ZHcGTb8MIDQRwgeiVgEe3xpP+ip+QccPb3fUwvJSPiSTeUMH5/qPYGvlj6GG4t7YUhmUVo9MWK8VB3F34z/Ar8sv4EgXj9nKnS2+z8YyOm9CAiUEp04kduOn6XOYt6vcRVkk2idLdIoydgYNMPiXYmg5zUz7Hh4qHr6IRHrN0ZyZxxWiQGE3sdg9dMf89TCsC8rN/mqst1VcwVPLfBxIvRZBZzqvQq/NXQLbijuYfigVXeuMYNHJp/C92dfQi1YP9dzU2r0WQX0Wnl+X9D7SioTBzIDOJQdxNn6BCrroH+JlkckXETClYGspQNZO2aFlW1GmD9tRPnHBqufPjOW/caPWCUGELpEe6vV4Uh417tq7h5HT17dNMYLIVc7qG0gUcQDfdfgy0O34qr8DjbZ0qor+w383cyLeGTyKYyts8PcCkYK25Nd6GX/B32Ya26yE0eyQ3hs/iwDyCblqQXtqYUuFVtdSX9gdyLoO9Rfu+d6GZu/lLH1ErdmMYBseUP2gzt9Wf2ip+Y+4+iZfb6spELZUJHgQUnU0mvl8WDftfhK6VZcld8JJSSLQqvKj0L8bP41PDz5JF6uja67r6/LzGJ7qgudRoYPFn2gDjODQ9kh7Ez14HxzBn4UsiibVChcNIzRgqvmbzei/HWJoPusGXZ+bch+8L+O5h46xwoxgGy94FE9fSIQjQccY+I2Ty4cdPRUt6fK3DtA77xQGhl8uvckvlK6FSfzOxg+aNXFiPFybRR/Pf4L/Hzh7Lq7WTOkQq+VRynRiaxO8gGjD5SQBvake3EwO4BnKufZjL7JRcJHpCrKV5VsIO0TiaA2aEbFu/pqd/9Yx6mHR7OPPMsqMYBsaiV7WMaItkfCO+mq+c87eurjTT3aFcgG9wzQr+k0M/h071X47aHbcDK/A1own9LqG3MW8PDkk/jB3Mvr4ryPd7uZHLCK6LZykIIvpfQhX1+NLPal+9Fr5RlAthBPlZWnyn06SvUmg6EjiaD3wED1U38tY/MZAXlhJHeGUwkYQDZjCnfv9VTlq66avclTs92+sk32edC7KRppnOq9Cl8p3YYbinsYPmhN1AIHfzvzAr428cS66/tYlNVJbEt1ocjxu/QRZLSF/Zl+7E334c3GFJqhx6JsIYFsiIZxoduXCw+aYdctVtj1mBnm/wOAb7E6DCCbxmD11N2BbNzT1BMfd/T0/qYxno7BPaf07nI6iU/0HMNXSrfh5uJ+TvWhtblAxyF+NPcK/nLs53i5OoYojtfl19lpZrAr1YNOk/0f9OFZ0sDedB8OZAfwy/IbDCBbUChchHrGdPX8YODX7gtFz+7e+sc/rqPU98ay3/geK8QAsiGV7GEdI+yNpHePq2e+3NDj17p6Kh0KTwAxC0TvKqMTuKf7GH576FZcX+CoXVobS+d9TPwSP5l/dV2d9/GOC5hQ6LeK2JnqRo79H/QR9Vh57En1otfKY9xZYEG27OtdiIYxmnb19Ekr6NmXDAauHqjdNygj83sCamokdyZglRhANlCydu73VeXLrpq5wVXzna6eNRg86P0klYnbOw/iK6XbcFvnQSSVyaLQmhhpzuFvxn+Jv515YV2/M5zWFgYTRfRaeW5TpI/MEArbU13YkezGy9UxuBGnT27pGCJc0TBGM6Fs3uwH5QNW2H2/Eeb/E4CvsT4MIOveYPX+a0PRvNfRU6eaxtiRpp7g23L0gSxp4JaO/fhK6Tbc3nkQaWWxKLQm5rwavj39HB6efHLdvyucVQkMJjo4/YouixIS25Pd2JvpQ24+iRmPAYRiuGrWcNVsXzKwP5H0Bwf7ancfVnHyO2PZR59gfRhA1p2SPZwJhXuHp+Z+r2GMfcxR07lQNjmShT6QIRVuKO7BV0u34a6uo8joBItCa6IRuvjB3Ev4q/Gf4/X65Lr/erutHLanupDl9wxdpoFEAfvS/egys5yGRe/Q1JNJT1auSYQ9+1L+4DUD1U//hYqtH4zkztRYHQaQdWGwev+1npr/iqvm73L19PamnkxwuxV9GAICJ3M78OWhW/HJnhMoGCkWhdZEEId4ovwWHpp4Ek+U34IXBev+e2cgUcTuVC+yiisgdHlSysKOVBd6rBzO1icQxpzCSotihLIh6vJCPhLuPVbQs98KO/5usHr/f+RqCAPImhqqnu6NhH+nq+Z+o2mM39rUowWeYE4fxcHsAL44eBPu77uKY0RpTZ1vzOLRyafwg7mXUAucdf/1JpSBoUQHSslODmugK9JpZjGU6EBKmahugOc+rX4QaeqJhKtm9yeDod6kP7BtoHbfX8rY+P5o9pEp1ocBZHXDh/3g7kBWf7dpTHypqceHAllTDB/0UWxPduFz/Tfggb5r0G3mWBBaM7NeFd+beR7fnXkeE055Q3zNOZ3EQKKIDpPBna5M0UhjV7oHHUaGAYTeUyR8NPVowZfl+5LBwLGk3/9fhuwH//fR3ENvsjoMICuuZA/LUDhfcPX0bzh6+saGMdIVCoe9HvSR9FkFfLr3Knym/1psT3WxILRm3MjHY/Nn8dDkEzhbn9gQX7MUAn1WAf2JAixp8EGkK9JhZLA33YcuM4uLzTnE3EJN7xNCPLWgQtncFgnv9xJBz+GB6qf+UsWJv+Ip6gwgK2bIfnBnIGunXDX71YZx8YijZ3jlo4+saKRxb88xfGnwJhzODkGA+ZXWxmLfx1+P/wI/n38dfrQxDkg1hF4an2pJXsboymS0hT3tACIEEDN/0AcIhSOq5uvdvix/MuVvK1lhV/eQ/eA3uRrCALLsBqv3X+3puX/e1JN3Omqqy1cVyarQR7U4bvcLAzfi6sJOKMGnEa2dC41ZPDL5FL4/+xLqobthvm5TKuxIdmNbsovnf9AVExDoNnPoNLPQQsGLee4cfTiOnjFC4R33w+r/ORn03ThYvf9/Gcs++hQrwwByxUr2cFcgG/e7evo3G3r8uqYxlokRsjD0kUkhcDK/HV8YvBE3dezj1hFaU7NeFd+ZeQ7fnXkOU25lQ33tKWWhlOxAj8XeKVoeSWWgx8ohp5OY9aosCH1ovqrIQFV7QtH8dEoM9vTXPvmfdZR6dCR3ZpbVYQC5LEP2AyVfVr/i6Kkv181ze3xZlRyvS5frUGYIXxq8GXd1HUGOB6fRGmqGHn4y/yq+NvEEXq2Nb7g9751mBv2JIg/spGWTkCYGEkUUjTTsoLnux1DT+hIjQsMYzfiqcnva2zmUCHoHhuwH/uNo7uERVufdcf/HexisnrrB0/P/rm6e/5O6+dYeX9oMH3T5z6dEB+7vuwqneq9Cr5VnQWgNL5QxXqiO4OGJJ/FE+c0N0/exyJQa25Pd6DFz3H5Fy8aSGgOJIrrMLPuK6LJfXX1py7r51p66ef5PPD3/7warp25gXd4dv8t+RckeToXCuddVs7/XNMZvaRijWW65oiuRN1K4t+cYPtt/PSde0Zo715jBo+2+j404cjSrE9ib7sNAoggpOMCBlkdCGRiwWgEkIU1UwXG8dHl8WZWB2eiOhHt/EgMdA9VP/YWKE98ZyZ1psDoMIO8VPhKBrP+mo6f+pGFcPOCpsmb4oCthSo1bO/bjcwM34GiuxIlXtKZmvSq+M/0cvjX9LMac+Q35b8jqJPake7mSSMt7MyQU+hJ5FI00V0DoisUI0TBGs4Gs3Z3yt5USQW93yR7+TwwhDCC/Zsh+cLenyv/Q0ROfb+ixIU65ouW4oB3PbcfnBm7ATcV93C5Ca6oRuvjZ/Fk8PPkkXrA37rbkDiODbcku9lHRsisaaRTNNJLKZDFoWUKIq+Z0hOBQJNx/nQj69g7ZD/6/OKqXAWTJYPX+qz218AdNY+zBmnGuOxZsPqMrIyCwO92Dz/Rfizu7DiOrEywKrZkgDvFM5QL+cvwxPF5+E0G8MVd2DakwkCig18rD5LvUtMyyOokuM4u8kWIxaNn4qiJtWd8WCf+3k4iyg9X7/2Is++gTW70uW/5d/sHqqTs9NfdvauYbv1k3LjB80LLosXK4u/soPtVzEgOJIgtCa+r1+iQemnwCfz/7Eir+xt0BUNBp7Eh1o8NM80GlZZeQBopGGgUGEFpmsQhQNy5018w3fstTc//tYPXUnVu9Jlv2LaSSPWyGovl5R0//flOPXtMwxviKQ8sioxO4rfMATvVehQOZAfZ90Joadebx0MSTeHTyKUy79ob+t3RbWexO9aLDyPCBpWUnIJBRCeQ1bwdo+UXCQ8MYTcWI706JoDBQva9fxcm/Hsmd8RhAtk746Alk/UFXzfxh3bxwxFWzPBGOloUUAoezQzjVexWuL+yBIdn3QWtn1qvi0cmncGbicbzVmN7wN4e9Vh67Uj3IcEsjrcRzTABpbaFocIWNVk7TGEtG0r0xRpC1wu50yR5+aCR3Znqr1WHLbcEq2cMFX1X+pGGM/suq+cYxhg9aTtuTXTjVexXu6DrMfcS0phb8Or4x9Qz+f6M/xQvViwjjaEP/e5SQ6LMKGEx2cEoRrZisTjKA0Ipz1axRNd841jBG/6WvKn9SsocLW60GW+pVfKh6+oCnFn6vqSd+o2GM9AeyxklXtGzyRgp3dh3Bqd6rMJToYEFozdhBE9+cegb/YeRHeLLy1oY7bPDdZLSFwUQHuswstzXSikkrroDQ6vBVRdVFuCNG+NUkosRQ9fRfjGYfeXWr/Pu3zA34kP1AyZf2P60b53+nbr41yPBBy8mUGjcX9+GBvmtwIDPAgtCaKfsNfGvqWfz7kR/h5wuvb4rwISAwkChiW7KT43dpRZ9nKWVyix+tmkDWZN18a7BunP8dX1b+dMh+YDsDyGYKH9XT+zw9/z/WjfNfaBijxVC4fNbTsl609qX78eneq3Bzx36OB6U1M+PZ+MbU0/jfR36An86/Bi/aHFP9DKlQSnRiR6obGcWbQ1o5SWUiy5BLqygULhrGaLFuXPi8p+f/7VD19L6t8O/e9HdKg9X7r/Zk+U/qxoXTDT2ajQVPNqfl1W1lcWf3YdzRdYjjG2nNjDnz+N7MC/jPoz/Dzxde3zThA2itMA4mOzCQKHKwA60oSxpI8SBCWmWR8FA3LhZjEZ1GjHiwev//Yyz76FOb+d+8qVdA2j0ff1Yz3xxuGAwftPySysQ1+V34VM9J7E33sSC0Js41ZnBm4nH8+4s/ws/mX0Mj3FyrvCllYsAqopPjd2kVwm5CcjYNrb5YhGgYo9ma+dZnPLXwZ0PV0wc28793066ADFZP3eCo2X/dMC58vGGMpYGYz25adnvSvfh071W4Kr8TSrCtiFZXEId4rTaBhyefxEMTT+DF6ijcyN90/86sTqIvkefWGFr5ACI0EooBhNYohCBE654V98WIEoPVU//jWPbrv2AA2SCGqqevd9Xcn9XNt+5u6gluGKYV0WVmcVvHQXy86zBPZqZV50Q+niy/hYcmnsC3pp/F2foEonhzvtGS00nkdJLbr2jlb4qkZB8frXkMaRij6ViEdwtPhIPVU//TZgwhm+67bKh6+oSjZv6HmvnW7a6etvhEppWghMTV+Z24t+c4dqV6OBaUVtWkW8bP5s/izMTj+P7sixv+hPP3IyCQkAYsaUDy+4xW4fkmwdVsWnuOnkrEiD+Z8XYlB6v3/6ux7KPPMICsU4PVUze4avZf1c1zH3P0JMMHrZh+q4C7uo/gxuJevitLq8aPQrxen8R3Zp7DwxNP4unKOdTDrTHVL+Y2WlqtACIYdGk9vOZFcPSkJSA+Jjzx3w9WT/27zbQSsmkCyFD19BFXzf9pzXzr7qae5LYrWjEpZeH2rkO4vfMQOk02xdLqmHDKeKpyDt+beR5/N/MiXquPb9otV78aPJzIhxcFiBhCaIUpIaEF31Si9aN9T3t3xpPNoerpfzuafeRFBpD1Ez72uWruv6sbFz7p6KkkG85pJR3IDOB039U4lB1kMWjFVfwG3mxM4Ydzr+BvZ17AU+VzmPHsLVWDatBEPXQRxhGfELSyN0VCQnOgCK0rMRw9lRSx/jQAY6h6+l+NZh85ywCy9uHjmCfL/6xuXPxE0xhLx+AFilZOj5XDXd1HcHNxP1KKu/xo5XhRgAvNWfxi4XX8cO4V/GTuVZxvzmyKk80/egBxMOtV0QhdFA0OfKCVEyFm0KV1GEEiNIzRNCDuEbGsDlVP/99Hs488zwCyVuHDfmDQU+U/qZnnPtPUY1mGD1pJUghck9+FT/eeRK+VZ0FoRfhRiPPNGbxgj+Cn86/hZ/Ov4Wx9AmW/sWVr0gw9jDbnMeNVMZjo4JOEVkwQhfBjnhlG6zOGNPVYBsBnMt6uYMh+4L8bzT08xgCy+uFju6fK/6ZhXPhMU4/zkEFacduSXbir+wiOZbexSZFW5CZ7zFnAy9VR/KL8Bh5feBMv10Yx6VS2fAN2M/Jwtj6B840ZHM4McfADrZgI8ZboraINGkFEiKYez8pYDbfvhf+vo7mHLzCArF74KAWy9jtNY/R0wxgtxiLgs5JWVFKZuL3zIO7oOoy8kWJBaHluduIYjdDFtGfjefsifr7wOp4sv4WXqqOY8WzeCLX5UYhXa+N43r6Imzv2odvMsSi0IjhSndZ/CAnQMEYLAuoBGeuxIfuBvxjNPTzCALLCSvaw9mX1y01j4itNPd4ZCZ/PRlpxO1PduLPrCA5mBlgMumJBHKIeuHi9PomnKufwbOUCXqyO4PX6JOb92pbs8/gg066Npyrn8Ep1HF2dWd4o0op9b/ox39Sk9S0SPhp6vEPG1leT/qBbsof/55HcmQ31xN1QAaRkD6cC2Rh29cyXGsbFUiAbvALRissbKdzReRjXFXfDkgYLQpdt3q/hQmMWb9SncLY+gVeqY3ipOorzzRnYQZMrHu8jjCM8UX4TfzvzAvam+9CfKLAotOz8KIQbMYDQBnhNlA1RNy4Mydj8kgjUSMkePjOSO7NhmgU3TAAp2cM6FO7drpr5x009us+XVc7JoxWnhMShzCDu7TmOnckeFoQ+0o1MLXRgB03MeVWMOQt4sz6Fl6qjeKE6gjfrU6gGDtyIq7gf1oRTxremn8WB7AAe6LsGaU6io2XmxQGaocdC0IYQyJps6tF9Ilb/WMR9dske/uZGWQnZMAEkEt7HPDX3hw3jwklXz/FtaFoVvVYet3YewPHcNja+0q+/LsWtkZ1BHMKJfLiRj0bowQ6amHIruNicxZv1KbxSG8dIcw7zXg0Lfp1nWlyBl6qj+Muxx1DQKXy86zCSymRRaPkCSBSgEbosBG0Y7XvikzI2/tAKu2oAvs8AskxaBw3O/1HduHi7o2d4taFVcyRbwh2dhzh2lxDEra0ZXhTAjXzUAxfloLEUKmY8G5NOBVNuBVNeBRW/gbLfwKxXxaxX5UrHcl1sIx8/mntlKXjc2nkAOZ1kYWhZOGHrTQSijSJGBEfPmCI2bxfQzaHq6ZGNcFDhug8gQ/YDJV/Zf9wwRu9sGmO8ytCqEBDoTxRwc8c+HMttgyk1i7IFRHEMPw7gRWF7NcNFNXBQCxzM+TXMeVUs+HXMe3Us+HWU/ToqQQMVv9n6db+9whG4W3507kqqBg7+duYFhHEEO2jits4DPB+ElkUz8lDnCghtxOeuMZaUMO+UsfHHQ/YD/7f1PhlrXd9Vlexh6cvqbzWMi19s6jG+BU2rxpQa1xZ24YbiHnSZWRZkE4nbJx37UYggjpa2XNhBK0RU/MY7Vjbm2p/n2wFk1qui7DfQDD0EcYQIEeK41STN0LF6yn4DfzfzIhb8OsadBXy86zB2p3uRUia04HZJujz1wIXtN1kI2pghRI/lZay+mI53TZTs4f9pJHdm3e71XdcBJJTNrzh66isNY6QzElwSpdXTaWZwbWE3DmWHuPqxQUVxjAjRUp+GE/ko+w0s+DVU/CbKQR1lvxU0Flc35rwaZtufq0FzacuVHwdLgSXgKcnrhh008dP513CxOYdn7Qu4qbgPR3Ml7Er1oGikoYWCFAJSCI7tpQ/15kQtdLDg11kM2pjXPeGhYYx0qij9FRnoSQD/ngHkIyjZwzoS3g1NPfGPGsaFPaFweeWgVZOQBo7ntuO6wm70mlx42yjCOEKz3QC+9OE3UQkaWPDr7a1TNUx7NqbdCub9OmqBg0boohn6aIYenMiHE3kch7uB+FGIN+tTmHIreLZyAQcyAziUHcTOVA+6zCzyRhIZlUBGJ5DVCWRUAgllQAnJUELvDCBxawWkzABCG/laKFxRNy7skbHxjwarp16XsfmL9TgZa10GkEh413lq4Z81jbGjnipzLZ1WVa+Vx60d+3E4O8TJV+vttSGOW3u0Axf10EWj/VEPXSz4dcx6Vcy4Vcx4NmZcGwt+HXbQRNlvoBY67T/voRG6DBmbTC1w8GJ1BGfrE/jZwmvoswroMDLIG0kUjDSKRhrdZg4dZuvHOZ1ESllIKwtJZSKlTKTaP07IVkChLfg8Ch2UgwYLQRuar8qqaYwdVXHin5lh8X8B8BgDyAcYqp7u92X1NxrG6J2umkvwaUSrSQqBPek+nMhvZ+/HGgnbfRlO5MNrb4Fy2g3hZb+xNG1qzq8ubZea92qoBA1Ug9a5G9WgCSf0ESJCGEcMG1uIFwWYcMqYdCpQQkIKAS0UkspYWglJKwsZnUBep9qBJIOikUanmWl9GFkUjBTS2kJCGjClhik1DKFhSgVTaq6ebNLXnlrgoOIzgNDG56q5hDSsO2Vsjg5VT58bzT4ywQDyHkr2cC6QtS85evpUU4/lIsGxlbS6BhMduLG4F4fZ+7Hi/CiEFwcILmkGr4ZNzHt1TLsVzHjVVl+G/3bAqPhN2EFrvG0tcNCMPLjtsbhBxCZweluMuNWvEwMeWoMG5lAD0JpyJ4WAKTWsdrhIShMZnUBOJ5HVSWR1AkUjjYKRRsFIodheRWmFlCwKuhVQtFDtDwlDKigh2QS/QTUjD/N+DWUGENoEIuGhqcdyOsqckr5xoWQP/28juTM2A8i7Fsu9wdHTX2nokW0MH7TalJDYl+7HdcXd6LMKLMgy3QSGcbQ0dcqJ/NY7jEED897bY2sX/Drs9ijbOb+KhfaY28UVjcXtUwwZtHzPyxjN0Pu1U68FBIRovR4kpYm0bm3TyupWL0nOSKJopNFhZNphpfVrOd3a6lXQKRTNNLI6iZQyYUkDWkhISGjJvpP1rBY4mPfqqIcOi0GbJIT4aOiRbTI2vpLyjRcAfI8B5FcMVU8fctXc7zf16H5fVbj5llZdwUjhRH47DmQGuPpxmUFjcSWjFjiotoOG7bcCRMVvXDLOtv3hV5fG3FaDJppha9sVR9rSWj6X4xiI4hB+1BpmcKnFLV2GUEgqE2llIW+k3rFKsrilq9D+9YxOIKWspcCyGE4S0oTZXjVhU/zaa61+1OGEfAOUNg9fVWQzHj2go/TvD1VPj45mH3mZAaStZA+bnlr4hw1j5B5Hz/Kkc1p1UgjsTffh2sIulJKdLMj73JxFcWtrSyP0loJGPXRQD11U/ObStqkZ18a0Zy+dBF5pb5tyIh9BHC6NtfXjgD0atGFEcQwvDuAhQD10MYsqRFNcsv2qtQXLkAqWNJBuB4/W9q0sutofBSOFDjODgm4FlIxOvGPFJaVMmFJDotXHQit8kxaFmHRa0/GciAGENhdHzxoqTt0jY3OiZA//i5HcmTU/22LNA0jJHs6Esjnsqtn7mnoiB77rSWsgp5M4mt2Gg5lBJKTBguDtZvBG6KEZtSZH2X7rHeF5v7Y0cWraqyw1g9tBsz3W1kMz9Jd+zAs6bfZg7kXvP+XSlHppwtaln1PKRE63Vk86zNbWrk4zs7SSkm9v70q3xwcnpYmEMmBJzV6TZeRGPibdMub9Gl+vaFO+SjX1RM4I8/epOPFMyR7+m5HcmdqWDiCRcK921cwfOnqixMMGaa0MJjpwIr8dg4mOLfXvXno3tz1tqtkOG9XAwbxXw4xnv2O71IJXR7m9rcoOmu3G8AbqofuBN2BEW9ni91jlPX5/cbVk8bySxb6TrE60t3e1wsjbzfDZpXHCSWUiKVsrJq2Vl9bELq6cfJQAEmDCLWPeq/G1jDbn9V54cPTENhVbf5CIe98C8KMtG0CG7AdKvqp8rmGMnXD1PLde0ZqwpIF96X4czZVQNNKb8H2PGEEUIUSEIArhxyHcyF/aLjXf7stYaDeFz3pVLPj1pVPDF5vEG6EHPwpbY20RIY7BPg2iZbsB9uFGPub91puSi6e3SyGgIGFKjYQyUNBpFM008jrVbnxPIW+kfu3Mk452H0pWJ2BJA4ZsTepSl3yw5+SdAXHSKaPsN+BHIQtCm/N1Rs8bAsZxHWU+N2Q/8NZo7uGRLRlAQtn4YlNPPOiqmWQMfsPT2uiz8jiaK2FXqmfTvGPoRyHqoYtq0FwKEJeeBr44fWpxEtV8uxG8HrpwIx9+O6gEccj+DKI10Pq+ixHGgI/WBDk7aGLatSEbYmncr9HuN0lIExlttc82ySwFkreDSqspPqeTyBsp5HUKeaM1cnhxS9hW5kQ+Zrwq7KDJN1Zo04oRwlUzyabOPShj4yKA/3lLBZCSPSwj4d3UNMa+VDcu9HPkLq3ZN4BQ2J3uxbHcNnRusIMH3chHM/RRDZqoBs7S51rovGP1YsZtH9jnV1H2G6gGzaUtU07ow42C1nkJRLRhwkkUh/ARovkuv7/YAG8KvbRyklImsjq5dPhih9EKKYsrKAUj9Y6DGheb4dOq9XNDbu5+k2m31cvmx9x+RZv89UP4qJvn+3Wc+tJg9dRjMjYfG8mdibZEAIlFcMRXlT9qqql9oWxyDZjWTE4nsT/Tj73pPljrcPSuFwVLB+0tBo5a6MD2myi3VzSmPRszrr3Ur7F4foYTvd0IvriywdUMos3Pj8J33UYk0Fo5ubSZPSENJNqnxGd18h3hpMNs9ZosnnmS0dZSM7wldWtrl1BLW7w2qmbo4UJzFgt+DXyJpK0gFI5oqql9Osr8kRkWbQDPb/oAUrKHdSCrdzb1+N2enkvwaUBrRUBgIFHEocwQSsnONdsPfekZGm7otydOeUvnZsx6Vcy0x9kurmaU/TpqoYNm6MMOWk3g9cCFE/lLB/8REf3qa00Qh6gFIWp452F7SrTG/VqyFUpS7VHAKfX2WOBsu+ekw8yg08gsNcJ3mq2AktNJpJS1FFAWxwgLgXXdbzLv13CuMYNZr8rtV7RleHou0YyTd6so8UTJHn55JHdmVZf/Vj2ARMK92VOV00092REKh6sftGZSysTudA/2Z/qR16lVufhHcStsNEOvdW5G0Ghvl6ovTZ1qnZnRmjBVDZqotFc77KA1ecqJWof1sT+DiJZL642L1upJK5xUfy2cGELDkhopZSGrE8gbqdbBiiqJtG7/2iU9KB1mGgWdXjp8cXG6V0IZrb9znZxxUvGbON+YwYJf5xOBts73vHBEU092mGHnaRmbT2OVp2KtagAp2cMFV838blOPXRvIGk87pzWVN1LYl+7HtmTXsl4EFw/qcy8Za1sPXJT91gjbxSbwxeCx4NffnkbltX69Gb09cSqIQ65oENHahxOEaITu0o26FOIdQcIQCgllINs+eHGxx2SxCf7SqV15nVo6KT6lrKVRwkllwBB6KfSsBjtoYtSZQy1w+WDTlhLImmzqsWtVZP1uyR5+biR3przpAkj7wMH7HD1zR1NPpPiw01rrMXPYnxlAr5X/yP/tpdumFkfb1gJnaXztYthY8OqY81uH9C32aLS2UDXQDD34cfCOv4NBg4g2isVmeLSnWDbbN/PTrg0B0R79q6CEaH+WrZPhjSQKurV1a/E0+I6lwxfTyLa3c7X+XOuk+MVpX8s9RjiKY0y7FUy5NlweQEhbUFNPpHSUvUPHmftK9vCjq3VA4aoFkEh4N7pq7vddPdMbC07cobWVVhb2ZvpwKDuInE5+qMDhhD6qgbO0Ncpuj7id9+pYaJ+fsfixeCr44ingTru3Y3HELRHRZrZ4OryHd24rn0UVaLa2dSXazesJacJamtbV2sq1uIKyuJ0rp5MommkUdKoVUIxkK8zoJDI6gYQ0ls5O+SgqQQPnmzNL568QbbnvVRHC1TO9RpT7/UTcMwPgbzdNACnZwylPLXyyqceu82XF4MNNa20gUcTV+V3Yl+5/xzK/E/moBU7rI3RaY20DB3bQXFq9eHvaVA0Vv4lq0EQj9FALHTRCF43Q40m6RETvI4wj1EO3vXjSeMfvLa6eLG7LSilzaVJXRrc+Oow0Cu0G+G4z944xwlmdWGqiz7R//F7nnEw4Zbxen8S8xwBCW5cvK0ZTj12no/QnS/bwz0ZyZxqbIoCEwr3bUwt3OnoqxTM/aD1IKhMxYrxRn8SFpmoFiMBZOgl8MWzMt0PG4tSpeuAunbXhRcFSYzkRES2PpdWTKEDlknAiIJYmai1O6spoaylkpJXV7itJL23r6mpP6ioaaWR0AqbU0EIipSwYQuGF6kW8UZ9qhSGiLSoSPhw9lbLC7rtUlPoRgEc2fAAZsh/c6ejp323qiX0MH7QeaKEQI8b5xgy+HjyNadfGmDOPauCgHrpLE6caobd0dgZHMxIRrX0wab3fE7dGj4cuZry3wwmApWZ4q71isjhCON0+w2Rxe9eOVDc6jAxeqo7irfo0t8YSQ4jw0dQT+1SU+t0h+8HnR3MPnduwAaRkDydC2bzN1TPXeYpnftD6kDeS2J3qxbZkF8I4ghO1ejvm/RqqgYMFv4Zm6LcudoghBIBYMIQQEa3jcAIAYXvUuRsFqAbN1qoJBCypl84x2ZnqQUYnUPYbeKU2hkm3zNd3IgCemrNcnbvOjPK3lezhqZXcirWiASQS3lWeLH/eU/MdXP2g9UBAoM8q4IbiXtzdfQQAMOVWMOtVYQdN1AIXdtBY6v2ohy5qQasXpHUOR+v3GqEHJ/K4/YqIaA1JIZBoj+9Nq8TS9KyMSlzSA2Iu9YTkdArbkp1IKwtPVc5hzqtx+xXR0n27D0/Nd3iy/HkrVm8C+OmGDCCBbDzQNMZv9uQCG89pXdBSopTsxLFcCcdy26CFQhCHCNqnhy9+eFGARuih7Ncx79faZ3W8Pemq3P754lYtJ/LghsFSE/riOR5BzGV9IqLLISCgpYQpNJLtEJFUBhKy1ZSelCZyRnKpIb1gpNBhvN2UXljq/bBgytbZIqbQSGsLZ2uT+MHcy5j2Khx/TnQJTy4YTWP8ZhUnT2+4AFKyh3Uk/JNNPX67oydzHLtL60VKWdie7MJgogNaqNY3gVBLP/513UtBwosCeHEAP2r9uBY6Sw3qC+2gMutVMeO2Q0pQR8VvrZo0Q3+pqdKLAwRRK/QwoBDRViXb54Po9hkfptAwpFo6bX3xAMNie9pVp5lBp5FFwUih08wsHW6YVla7ubz990gNo/33vtthhvN+DT+cexk/nH0ZM26VDwTRJWIRwtGTOSvo+thQ9fT1ItZPjeTOLPtozxUJIDGiUiDtP3D17L5QOIIPJ60XHUYae9N96E8UPvR/Y0gFA62RkO9msY+kHrhotBsj66G7tBqyGFAWTz6fax9EWPYbqAQN2EET9cCF847TzxlOiGjjWzyAUAu5FA6S0lwal1tsn5ZevGQFY/Gk9KxOIK0tJOViE7n1jlPTL+ek9Gbo4e9mXsRfj/8CL1ZH+TpL9G73NcIRrp7dp6PM75thcRrAsjekr0gAiYR33NEz9zhqOseHkdaTbjOH3eledBiZZfs7F0/3TSvrPQOKFwVLhxiW/dbKyGL4sP0mykEroFSDZnvVpLVyUvGbaIQumlHrbBE/enu7GC+cRLSWFrdIaaEgIWBKDVNqJKSBtLaQ1UlkdQJZlUTeSCJvpJBVrR6NnH77I2+klj4XdApJZb7n6sUV3ZvEMV6sjuDb08/i6co5voYSvQ9HTee0Tt2jo/Q3NkQAGbIfGPRV5ROumu4LZYOrH7RumFKj28qh3ypACblq/18lZOsdO2Wix8otnR2yON43jCP4cYhq0ETZb2DOq/3aqkk5qMP2m0uHI1aD5tLY4MXVEzcKELUnwESIEMfgZBciuuxwIQQgISEEoCChhIQljV8ba7t48F9WJ5DXKeSMJAo63QoU7Y+O9kpHVidhSQ0pJFT77178f3zUU8w/qgl3Ad+deR4/mz+Lst/gg0z0PkLZEI6a6UvInnuH7AeeGM09PLZuA0jJHpaBrH/GVXN3+qrKxnNaVzIqgcFEEQUjveYXdiUE1CXX2iSAnE5iMNHxdr9J9HbfyWL/SD10seDVMedXsdBeSSn7dVTaqyXVoLm0BaweuEunszdDD43Q45kmRPSupBBISnPpzZKUMtuTpKyl7U9ZnVjaHlUwUsjp1tapDrPVi5Fq92KYUi/1c5hSw2r3Z6ylauDgx3Ov4tvTz+GtxjQfcKIPIVBV7ar5O2WceKlkD/8/R3Jnlm1iw3KvgHT40v5EwxjdGQmPqx+0rhTNNLYlu5DR1rr+OrVQ0Eoh9R7X6yhuHcLVbE/bckIfzchDI3i7/2ShvYIy1x4v3Oo5qS+tmjRCF24UtP6O0IMTtZrkOQ2GaHNSQi6FgZSykJAGEu2JUillIqvb26R0amkrVIeZaQeN5NIY28RSSHn7v00oY8VXL65EjBgv2Bfx6NRTeN6+yNc5og8pEp5oGKM7dJS9R0fp/wpgdt0FkJI9nApF8w5fVY56al7zYaP1ptvMYm+6b81XQK6UFGJp28O7WWyKv/Qck8UVkXrotldLWg3wC15rete8X0e13Y9SDZylYOPHAYI4WpoExgs30fpzaS+GFq3PptRLzdpZnUBGJ5b6LDqMDDrMNAo6jZzR6tNo9bG9fWZGWlvIqgSSyoQpN/Yl/UJjFt+afhY/nnsVtcDhE4boQ4f3CJ6a175aOGaG+TtK9vA3l+twwmV7VYlFcNRXld901VwPHzJab5SQ6DZz2Jnqfs9m8c30b720Kf7SnpMQb59z4oQ+qmErdNjtrVuLvSV20Gxv8WpN65r3a0uhpRa4qIcO3Kg1Tnjx7+ShjEQrFzAWeyUunSiVan+fL4aLxbMvCu1tUovbpRb/TOuzhZxurWoklQlDtqZUSQhIISAhl735ey3VQxc/mHsZ35l+DuPOAp9MRJfBVfO9pir+lgyNiwB+ua4CSCjck46euclXZYsPFa03hlDoMrPosfJb8uZlsefEQGtfV1pZgAH0o7DUuB4iQhCF8OMQbuSjGbZWURYndC0GkMUm+MVJXgt+vb1y0mqSb4b+2wGlvWrCcEL0waQQ7YDROgtj8fC9xVO9s0shoxU0MiqBzCXTpgpGGoV2E3haWUhIs30+hrwkaGyugPF+gjjEM5Xz+MbU03ixOsonGNFl8lXZdPT0jTrKnlxXAWSoerrXUwu3uGqmg+d+0HqU1Un0WDmk3uMsj61+0yNF66wTyF+fHRFeMvbXbTfDu5GPRui9Y6WktUrSGh/cGinsLAWYxa1dTuTDjX71UMaIjfG0JSyGi8VD9xZ7MpLtcJFbHFurk+2ViiRySw3fb2+fyukkMjqBhDR+7eA9LeW67sdYTecbs3ho4gn8dP41uJHPghBdplA4wlWzHUnZf8tQ9fRDo9lHptY8gJTs4VQga19w1fyNgawpPky0Hi/6RSONbjO35pNYNmr9lJAw0WpevdTi6okXt0KJG7Y+L/aQ1EIH897iSOG3p3Utnodit7d81QKn3SDv/No44cUfE61nrZXG1vfK4kqGErJ96J7VXq1ILAWNxbBRbE+QWjzxO69TS4fvJZQBS2pY0lg6X2Px76X3N+/X8PezL+Fb089i2rVZEKIrFMiactX8jSpKfqFkD//FlfaCXHEAiUWQ9WX1PldNlWLBQ31o/UlIA51mBn2JwoZvplxvLl09WdzW9Y4XrDiEH4VLE7ecyIcTee1T471W43t7FaU1tasGO2i0+1HePu9k8VT5WuCgEXp8N5PWnBYKGW0t9WEkVft073bQWOy5ePuU77d7Mxb/fEIZS6NvE+2QYUoNKQRXMa6AH4V4fOFNPDr1FEfuEi2TWIRw1VTJCHP3qTjxVwDWLoCU7GEZCfekr8qHHD1rgNsoaD0GEGWg28qh18zD4ArIqt+kaaWQVCYKRuqdL2aIEUTR0opJI/TQuGRa1+KqyOKp8IuHNC60V1IWQ4nT7jlptscRN8PWqfFEl0tALG2NWvq4ZPxsa7JUEh1ma9WiaGSWJtPldAoZ/c6JUkllLIUMq72KQSt0k4QYbzWm8Z2Z5/CLhdf5WkC0bN9bERw9a1hh9yEr7DhZsoe/dyXnglxRAIlFcMCXtQc9Ve5i+KB1G0CkiU4jg75EHoZkAFlPN3mGbO2Hz+DtkcJRHCNqT9YK4whuu+dk8WDFxc+1wF3a1lX2G0tnncz5taXzT1phJGyNE45aW8X89s/ZGL+1g7Ep9VIvxuIIW1NqJKWJDjONDiOztHKRb5/snWufk3HpysfiSsfiNilDtkbhrtbp3vROs14V355+Ft+feQlzXo0FIVrmGOKpcpcvaw+akboI4OU1CSCh8K529eydvrQ5+YrWLUtqFI00Oo0sbwY2gNYoULXUr7PUd2K9M5wsnk/iRQGc9gpKLXCWJnXVAge10EHZb7QPY2xt85pfPPukvZriRQGixVHF7Z4Tnhi/GZ5Dsv1ZQLZH1+Z0EsV2uFjcGtVhZFp9GUarL+PtXo23Pyel+a4BY7Hfg9aHxa1XX5t4Aq/WxlkQopX4PpO25erZO5Wf/OmaBZBIODe6ampbIOtcT6Z1K6UsdJiZ9zy4jzZmOLEA4FcWtBa3dUVoBRSv3XvSCD3UQqc1Srg9TrjSPv/k0mZ4O2gsnRxf8VsjhhuhhyBmf9t6p4REwUih28yhw2ytXlw6VWqx8Tu/OFGqPa42qxNvnwzeniq12OitBCdKbSRn6xN4aPIJPFU5x+9ZohUSyLp01dS2RNB9I4D/tKoBpGQP60h4Nzh68oSnbPZ+0Lq2+C5nSnGhbrNb3NYFtAJKWlkoGuml3790pHAYx/DjVkBZ6jXxm+2T4WvvWClZHDHcjDy4oY966C41z3OP+drI6SS6zCw6zSyKRhp9Vh79iQL6rAK6rRy6zSwKRnopgCSlubR6wYCx+cx4Nr4x9Qy+N/MCGqHLghCtmBieso1A1k4MVk/dImPzFyO5Mx/5Qni5KyCZQNY/46mFvbHgxZfWt8WDu7hVgi4dKbzEWHxJjd+xtcuPF888CVrnmbR7TMpBAzOujXFnAW81pvFGfQpTbgXzfo1hZAUlpIGMTqBgpDCY6MC+dD/2Z/qxK92DUqITXWYWCWW0D99TMITmFqktohl6+P7MS3hk8kmMNOdYEKKVjiAigKcW9uko+xkzNF8GML8qASQWwYAv7ZsdPd0Rg8uctN4DSJqrH/SBBERrapdQSLzLgYwx4kt6Tnw0Qw+VoIGR5hyerpzHj+dexbP2ecx6VTa4LxMpBNLKQo+Vx+HsEI5mSzicHcKOVDe6zCzyOtXq0eABo1tWGEd43r6IR6eewtOV8ywI0WoEEIRw9HTRCPO3GlF2YNUCSAT/qK/snb6ssveDNkAASfEEdFqWgLJ4TsPi1K4SOnE4O4Tjue24vrAHjy2cxfdmnsczlQvcBnIFEtJAr5XH/swAjuW24VB2ELtSPdiR6ka/xfN86G0TbhkPTz6JH8y+zPOBiFaRL6vSV/b2KAiOAnhxxQPIkP3Adl9VbvelnWXvB20ERSPdOiSPaIWCyUCiiIFEEYezQ9iZ6saZicfxk7nXMO9zDOhHkTdS2JbsxMHMII5kSzie24aT+R0YTHRwKxX9mmrg4AezL+Hb089h0i2zIESrKoYvq9lQNm4bsh94bDT38IUVDSCR8G/yVPmmUNb5ljJtmJuatGYAoZXXnyjgwb5rMZAoomCk8ejkU1jw6yzMBygYKexM9eBwdgg3FffhhuIebE91LZ2vQfRr9yJxjF8uvIG/Hv8FXuPIXaI1Ecq66anyTSpK3QRgZQNIKJvXuWp2dygcbr+iDSGjuEecVvH5phO4teMAlJDwogDfmHoa1cBhYd5FUpnYk+7FtYXduLXjAI7lStiW7EKXmWVx6H29Xp/Et6afxS8W3oDDrVdEaxNAhCNdNbPbDIvXAfivKxZASvZwV1OPH3b1TCoS/IanjXJDaL1rUzHRSjGlxk3FfXBCHwt+nfvTf/XCIxS2JTtxdWEn7ug8jGsLu3AwO8itkvShLPh1fHfmOfztzAuY9aosCNEaiYQPV8+mUn7pcMke7hrJnZld9gBSsodzoWje66vq7lA43IxLG0ZaJbiNg9YkhNzSsR+jzjwmnTKesy/ydHUAHUYGJ/LbcWfXEdzauR/Hc9uR00k+YehD8aMQT5XP4VtTz/K0c6J1IBSO8FV1txk27y3Zw4+O5M7YyxpAYkTdgap9ypeVXpabNhJLamihWAhadRmdwMe7DuM5+wIuNue2dFO6KTX2pP//7P3pk1zXmed5/s691/dwj30BEEEsBEmQIImFaypFbRRTFDdJheyyqbSunrEam7GZf2Bs3o1VW7V1T5lV19a1WmVPl1WX1JaZIRIkQHGRSImrSBA7SOxr7HuEh+/33nPmBSiWsiiRIOgAwiO+nzeUkaEIj+d6uN+fn+ecp1/f7r5bT/bu0COdW9WTzMs3dPPi2p0ujzPtHFhpHwx4i/2R3/W0F6Xel9TkAGKiLQ1vcXfDn8tSarRWAEko4CYHt8hQult/0nmHDixe0MHFtXnT1JPM68GOLfpB7/36Ts892ta2nrZIfGUzjaJemzmu12aO0XoFrCB1fz6bjLseSJj2LZLONzWAWBNua/iL6yKvSvsVWkrSCxR4rIDg1kh4vu7JD2pXYZPOlCbW1KlYnjG6LdOj7/fcq6f7d+nRzq3qT7XLiLcRfDUNG+m9+bPaP3VYFyszFARYQWKvYhr+4kAmWr9N0uvX9P5wLV80uPyjdbGp7oy9SprZH2jFG0DaPHArDaa7tD0/uKZOd0p6gXYUNurvD35T/7eN39MTvfdpINVB+MB1OVOe0C+mj+jg0kXFzlIQYOWFkHRsqjsHl3+0rikBZKi4x7OKvhN5pV2xqTF+Fi3Hk5HHTQ9uoUKQ0WCmS72pwpoIw1k/pce6tun/sfH7+r8MfVsPtG/mhCtct5lGUa9MH9Ubsx9rKaxQEGAlBhBTCyKvtMsq+s5Qcc+XvtF96ReMFIZt7FUfbvjzm62pcxeHlmOM4VNX3FIJz1dPMq/+ZPuq3/vQkcjqz3rv0/994/e0Z93D2pLtYwUS161mQ70zf1ovTR2i9QpYwaypm4Y/vzn2qg+PFIa/dJnyWlZA2mJTvavuz+eZ/YFW5Jzj+FPc2hAso45EVn2pgnLB6l0J6Enm9Wz/A/p/bvq+nunfpe5kGxcf139D45yOLl3W8PiHa/YAB6B1Akiouj+fj031rqHini998Q+u4RveHXvVjZG/zC5eALhOKS+htiCthFmdnazr0h16tn+3/rvBb+mhji1KenTs4usZrc3ptZnj+vXcSZXjOgUBVrjIX/Zjr7rRmWi7pA++6Gu/cAVkqLiny5ratyOv0uvEpi+0JlqwsBL8bi/SanwmDmW6tWfdw/oHQ9/RI523Ez7wtRWjqn4zd1KvzhzVeG2BggAtwMkq8sq9sal+e6i4p+u6A4g14e2hV/pu6BXzlBUt+wdBCxZWgMhZNVwku8qei0OZbv1k4CH9nwe/pQc7tjD0E19baGMdWbqs/VNHdLw4wus30Ep/v95yIfRK37YmvP26A4hTtCn0l7aH/iLHl6B1/xhczLGNuOUqcV3FsKpavHr20q1Pd+q5/gf03w7+qXa1b2KzOZriYnVa+6cP672FMypGVQoCtNI9l7+YDP2l7U7RpusPICbaGHpLPbGp0b+C1v1jsAQQ3FrWOS2GFc00iqraxqr4nXqTBT3dt0t/seEb2lkgfKA55sOSfj17Uq9OH9NYbZ6CAC0mNjUTeks9zkQbryuADBX3ZGPTuCPySmnKiVbWsJEiAghuoboNNd1Y0nS9qIaNWv73aU9k9UTvffqLwW/owY4tSni0XaE5r9UfLpzX/unDOl0al3W0XgGtKPJK6dg07hgq7sl+pQAyVNzjWdN4MPaqd8emwcdaaGk1Gyp0EYXALbMc1TReW9BsY7nlV+PSXkKPdd2lv7fhG3q08w42nKNpzpYntW/qsN6fP6ua5dh/oFXFpuHFXvVuaxoPDhX3BNccQCQlY1P/k8grbXQmpv0KLR5AGqviU2e0rrlwWWO1BZXiWkv/Hp4x2tW+SX93/aN6rOuuVT9UETfPbGNZr84c0y9nj2umUaQgQAtzJjaRt7wxNvU/lZT8KgEka73afaG31O0YPogWV47qqhNAcKteiOU0U1/WSHVOlbi193/cmVunHw88qCd671N7IsvFRVPUbaj35s/o5xMf6lx5ioIALR9AQoVescd6tfskZa85gDgTpWJT3dLwF7PM/0CrW45qqsYNCoFbIrSxxmrzGqnOtfTzsDdZ0A/7durH6x7UQKqDC4umObE8qp9PHtDhpcscGAKshgAiq4a/kIlNdbMzUeLaA4jc+sir9kdeifYrtLxiVFWFKbq4RSpxQ6O1eU3UF1v25irrp/RY9116bmC37sgNcFHRNGO1ef1i+oh+NXOC12lgFYm8som8ap+TG7ymADJU3JO1pvGQNbUC5cNqsBCWVeaNDbfIYljWeG1Bi2G5ZX+HbW3rtWfdw3qo4/ZVOssdt0IpqunN2U/0i+mjGmPaObDqWFNrt6bx0B86DetzAcTJrotNbVds6hlKh9VgKay0fO89WvTF1zlNN4qaqRdbdgDh+nSnnuy7X9/qvls5n5m0aN7fxonlUe2bOqwjS5eZdg6sQrGpp2NT2+Fk1315ADHRltir3hWbWpLSYTVYjMos7eOWqNtQo9Wr7VetOIsmML6+2XWXfjTwoNax7wNNNFKb0/6pw3pn/jSvz8CqDSC1ZOxV73Im2nINASQejLzyUOxVOdwdq8Jco6RiWKUQuAUBJNKl6ozGawuKXNxyj393+yb9ZOAh7SjcxqRzNE0pquntuVPaN3WIaefAag4gXjWIvPKQM/HglwYQq6gv8ko91tRp9MWqsBCWtRCWFdqYYuCmqsR1jVbnNdtYbrnHvi7doWcHdut7PduVYt4HmsQ6p4NLF7V38qBOlsYpCLCa/95N3UReqccq6vvSAOJMtC70ilnL/A+sEqWopvmwpOWYVRDcXHONkibriypFrTWAMOun9HjPvXq6b5f6UpxHgua5XJ3VS1OH9Nb8SdWZdg6s8gASKvSKWWeiL94DMlTc02dNOBSbqk/ZsFrUbKi5RklzjRLFwE0TuVjj9QVN14sKW6j9yjNGu9s36c/XPaJ78hu4kGiaYlTVL2eP65czJzRdZ9o5sBbEpupbEw4NFff0/cEAMlTc41nT2GZNbb0zlvYrrJ4AEoeaaRQ1UVtkyBVumqWwqgvlac00ii31vNuaHdBzAw/oG1130HqFpgltrAOL5z9tvRqjIMAa4Yw11tTWW9PYNlTc430ugEjKWtPYGXnVPjH9HKspgNiGZurLmqgvsOSPm2YhLOtSdaalPuntSrTpuz336MneHepN0nqF5jlXmdSLk4f0wcI5NWxEQYA1wyryqn3WNHZKyn4ugDgT5ayp3xObaoczBBCsHtU41FR9SeO1BTai46ZZDMu6Up1VMWqNvUcpL6GHOrboqb6durONaedobhh/fea4Xps51pIHMgC4fs5YxabaYU3jbmei3OcCiJzXFpvGpsgr5RwrIFhFIhdrISxrqr6khuOTN9x41jnNNpY1UVtUzbbGEMytuX49079bj3bSeoXmvv6+v3BW+6eO6Fx5ioIAay2AyCrySrnY1DfLeW2fDyDG5mKvOhB5y0kxkRSrTCmuabpeVCli4BVuvEpc13htQXONkqxb+a+nPcm8vtezXd/tuYdTr9DEGw+nU6Vx7Zs6pA8Xz7XkLBwAX/+VIPKWk7FXHZCxn18BcbJZa+pdscf8D6w+DRtpqr6ksdp8S9wQorXNhSVdqc5pISyv+Mea8hJ6tHOrnu7fpa25fi4emmaqvqR9U4f1y5kTWgwrFARYo2KvbqypdzvZP7AHRK43NvWcE59QYBU++Z3VZH1JZ8uTWo6YB4Ibx8lpqr6ky9UZLUUr+6bLyOje/KCe6d+thzq20HqFpqnGDb03f1b7pg7pfIXWK2Btvy/Gik096+T6/1YAGSruSTvT2GpNI0mZsFpN15d0pjTREp9Ko8XDbm1Ro7V5VeOVvf9jMNOlJ/t26PGee9WVaOPioWkh/Fjxil6aOqgTy6OsOgOQNY2kM+HWoeKe9GcBxCnutiba4kwUUCKsVgthWZers1pusanUaC0NG2myvqSp+tKKnv/RFqT1jc479YO++7Up28OFQ9NcrszqlZmjemvulJZovQIgyZkosCbc5BR3S5I3VNwTyLhBa+pDThET0LFq1WyoidqiphtLFAM3zFJY1VR9SUvhym3184zR9vygnu7fqfvytykwvPSjOZajmn4zd1KvTh/TSG2OggC4GkAU+dbUh2Tc4FBxT+BJCqyidbGpD1gTepQIq9XVfSCLOleeYkMkbgjrnKYbSxqpzq3ovUYbMz16sneHvt19tzoSWS4cmnSD4XS8eEUvTR3SkeJl5i4B+C/vjyb0YtPot4rWSQo8SUln4n5rGt3WRJyAhVVtplHUqdK4xmsLFANN13CRJmqLGqnNrdhWv/ZEVt/s2qYf9u3QYLqbi4amGanOad/0Yb07f2bF738CcLMDSHT1JCwT90tKXg0gst2xVys4VkCwyi1HNZ0tT2qkNsfGSDRdNW5orLag8drCipx5EBhfuwqbrrZeFYbkGT5zQnMUo6p+OXNC+6YOabK+SEEA/C3OhF7s1dqdbLekpOdM5DsTd8SmlrWGKdFY3UIb60p1Vleqsy0zoRqto/zpAMKV2uK3KdujH/bt0De77lLWT3HB0LTX1d8unNXPJw/oVGmcggD4HGsixaaWcSbucCbyPUmeU9xuTTXFDBCs+gQup+l6UWdKk5qoLVIQNNViWNZ4bUGVuL7iHltXok3f7d6uH/Tdr/XpTi4WmuZcZVL7pg7rvfkz7PsA8Efuv2JZU0tJcUGS58mZQMYWIq/KMShYExbCsk6VxnS2PKm6DSkImiJysSZrSxqtzam8wgJIykvogY7NenZgt+5u2yAjWq/QHHONkl6bPq7XZ44zYwnAF79PepXAGdsuZwJPxuWs4jZr6uz/wJrQsJEuVWZ1tjypUlSnIGiKStzQWG1eY7WFFRdst2T79IPe+/Vwx+1Keox7QnPUbKgDi+e1b5pp5wC+nDV1zyrKy7ic5xT3OxPlnWHZFGvHZH1Rp0sTzARB0yxHVY3XFjRdL66oAw66Em16vHe7vt97r/pSBS4Umubk8phemjqkg4sXab0C8KWcieVM3OYU93vWxLc5RW1OnAiEtWMhLOuT0qjOliY5LhJNsRRWNV5fWFHzP5JeoIc7b9cz/bu1rW09rVdomrHavF6bOa7XZo7RegXg2gKInJyiNmvi2zyneMiaKEdZsJbEzupSZUYfL49qtrFMQfC1X1SnG0uaqC2qblfOaYK3Z/v1k4GH9GjHVqW8BBcKTVGNG3p77rRenj6si5UZCgLgmlkT5ZziIc+ZaJ0zEaNwsebMNJZ1bPmKLlVnxAogvo5K3NBodX5Fzf/oTrbph3079IO++9XOtHM0MWyfKo3rpalDOrx0SbGzFAXAtb+GmCjrTLTOsybstSbkQHisOeWorpPL4/pkeWzFTq1GayhFNV2pzmmqvrQi9n/4xtM3u+7SnnUP67YM087RPOO1Be2fPqx350/zugngK7MmTFkT9npOUcEpZm0eay+Fy+lydUaHly7pYmWaVRBct8WwosvVGU3Vl1bE8+i+/JB+MvCQdndsZt8Hmhq035z9RHsnD2qkNkdBAFzHvVeccIoKnjM2b02YEDdfWIOKUVXHild0YnlUFTaj4zqD7HxY0mR9SVV7659D/al2PTfwgB7vvVdp9n2gSaxzOlK8rL2TB3WseGVFnfQGoHXeMa0JE87YvOcUtTkTcTA81uyb6oXKtD5avKBJJqPjOtTiUBO1Rc01lnWr78nyQVrf69mup/t3aTDdxcVB04zU5rR/6rDenj+lxgo6aAFAi0UQEwVOUZtnTZR1ipiCjjVrtrGsQ0sXdXx5RDUmo+MrKkZVXarOaK5RuuXtV/fkB/Xn6x7RffkhLgyaZiEs67WZY3p15pim6sxOAvA1Aogi35oo6zkTpayJmIKONSt2VufKU/pw8bwmWAXBddycXaxM3/LjnIcy3fph3w59o+sOZfwkFwZNEdpYh5cu6cXJgzq5PEZBAHwt1kSeM1Hac4qTTjEBBGvaTKOo9+bP6GjxMu0F+ErmGiVdKE9rMazcsseQ8ZP6fs+9erZ/t/qS7VwUNM3Z8qT2Th7U+wtnWSEG8LU5xZ5TnPSciRLORByTgjUttLFOLI/o3fkzulLldBdcm8jFn21Av1XzPwLj65GOrXqmf7e25wflGV7O0RzzYUlvzn2sV6aPaq5RoiAAvn4AMZFxJgo8a+KEM3ziC8w3yvpg4ZwOL11SlROxcA1KUV1jtXnN3cL2q9sy3XpuYLe+2XUX087RNDUb6t35M9o3dVjnK1MUBECzAoisiROeUxRYsQICODl9vDyqN+c+1sXKDAXBl5ppFHWhPH3LBrJ1JLJ6vOdePdF7n/pSBS4ImvZaeKY0oX1Th3Rg8TzTzgE0jVVsnKLAcybynYmpCKCrLQfvzJ/W+wtnVYyqFAR//EXUOY3XFnSxMnNL5n8ExtfDHVv1o4EHtDU3wAVB00zWlvTqzDH9Zu4krVcAmsqZWM5EvudkWf0Afs+lyox+M3dSJ5fH+OQPf1TkYk3UFnWpOqNafHM353rG6O78ej3dv1OPdG5l4CCapmZDvb9wVnsnP9L58jQFAdDsCCInazwnywlYwO8pRXV9uHhO7y6c0UyjSEHwBzVspOnGkqbqSzd9/kdvsqA/671fP+jdoZ5knouBpvl4eVQvTh3UkaXLt+xgBQCrPYJYz3MmZgUE+K+y+aXKrF6fOa5DS5d4E8YftBCWNV5b0NJNPn434yf1p1136qm+ndqa6+dCoGkm64vaN3VIb8x+rHJcpyAAbsx9lomNJ1qwgM+p21C/XTir12eO04aAz7HOaay2oJHqvOo3cW6MkdE9bRv0bP8DerBji3zDAjaaoxLX9avZj/Xy1BGNVucpCIAb+S5qAidHAAH+gMWwojdnP9GduXUaSLWrPZGlKPgsoI5U5zRam1Pobl4AGcx06Yne+/RY110qBBkuBJrCyel4cUR/M/6Bjhav3PSWQgBr7jXH0IIFfIHTpXHtnz6sI8XLbEjHZ2o21JXqrMZrC7Lu5tys5fyUvt19t57p361N2V4uAprmSnVOP588oHfmT6vOtHMANzqAmNh4TtxUAV90o3lg8bz2TR3W5eosBYGkq+0q47UFzd6kAYS+8bSjfaN+2LdDO9s30nqFpilFNb3xaevV7C0cqAlgDQUQWXksfwBfbLpe1L6pQ3p95vhN33CMlWmuUdJEffGmbdQdynTrh3079I3OO5XzU1wANEXk4s+O3D1TnqAgAG4aPkYDrsG58pSGJz7UewtnaMVa42o21FhtXpP1RYX2xp+Qlg/Seqxrm57ouU9DmW4uAJrmQmVaL00d0rvzZ9S4iYcpAFjbjKSArWbAl/vdJ4W3TXTrtkyPtucHKcoaVQyruliZ0XT9xs+IMTLa1b5Jzw3s1vb8IK1XaJqZRlGvTh/Tr2ZP0HoF4CbzXEALFnBtSlFNr80c11CmWz3JvPpT7RRlLT4P4pouV2c1H5Zu+M/anO3VU3279K2uu9UWpCk+mqJhIx1YvKAXpw7qXHmKggC4qYzznWfkswgCXKOR6pyen/hIr84cUzGqUpA1GkQnaosqRbUb+nPagrQe77lXP+zbob5UgcKjaU6WxvTS5CEdWLxA6xWAmx9A5MmTI4AAX8XHy6P66ei7enf+tGocWbmmxM5qplHUZH1Rlbhxw35OwvP1UMcWPTfwgO5u20Dh0TQzjaJemT6mV2eOcqgGgFsVQVxgZAggwFfwu/0gGya61Jlo08Mdt8szNDOuBaWoppHqvKbrxRt6GMGWbJ9+1P+g/qTzDiU8n8KjKWo21Dvzp/Xy9GFdqnCsOIBbFT98F9CCBXx1xaiq16aPqSvRpq5kTnfm1lGUNWA+LOtiZVozjRu3Ab072abv9WzXk3071J1so+hoCienE8UR7Z08qMNLl5h2DuDWBRB51jO0YAHXZbQ2r5emDurnEwd0hSGFa8JcY1kj1bkbtv8j4fl6tPMO/Z2Bh7U110/B0TQj1Tm9MnNUv5k7qeUbvH8JAL40gkiGoQbAdTpXntJfj3+gfVOHb+in4rj1rHOaC0uaqi+pfgM27hoZ3ZVbr6f6durhzts5chdNU4pqenv+tF6eOqLR6jwFAXBLw4eRcZ7nfGuYRwhcl9hZHV++op+OvatfTB/lk8VVrGYbmqovaaq+pNA1P4CsS3foqf6d+l7PdhWCDAVH04Lz4eIl7Zs6pKPFK4pcTFEA3ML44ck43wZGQWRcQs7UqQpwHUIb66PFi8r67yjrJ/XDvp3K+SkKs8oshVWNVuc121iWdc3tXM36KT3SsVVP9+2i9QpNdaU6q1enj+mdudOqxLzPA7jFAcQFMvKjwLggMs53MuIYH+A61T89XSZhfKW9pL7fe6/SXoLCrBJOTtONJV2uztyQAYTb2tbrJ+se1K72TQoMp16hORbCst6c+0SvzxzXeH2BggBYAQHEd8YFUWDkh54CF4sAAnwd1bih38ydVNILlPB8fatrmzJ+ksKsArGzmqovaaQ6r1LU3E+RB1IderLvfj3ec6/yTDtHk4Q21sHFi9o7+ZE+Xh5t+qodAFwPT4Ez8sPAc0HDON9KbAQBvq5yXNevZk8oML6ss/pO9z2EkFWgYSNN1Zc011hu6vGlaS+h7/feqx8NPKj16U4KjaZwcjpdHtfL00f03vxZlWm9ArBCGOc7zwVhYFxQ91zARyNAkyxHNb0yc1Sxs4qd07e77+aT7RZXiuoarc43tf0qML4e6rhdPx54UPcXbqPIaJrpelG/mvlYr88c53Q+ACuK5wJrXFALjPyqURBLomEdaNoNa01vzH0sJ6fIxZxs1OIWwrJGanNaCMtN+55DmS49079L3+i8k/1CaJq6DfXR4gW9OnNMZ8uTFATAimIUxEZ+NfBcUDYuiCgJ0FxLYUWvzRxXw0aq21B/1nu/OhM5CtNiYmc1WV/U5cqsilG1Kd+zI5HV93q26wd992tduoMio2nOlCb10tQhHVg8r7oNKQiAlRVAXBB5LigHxgUlzwXR1T3odGIBzVSJ6/rN3EnVbKi6jfRU3071JPMUpoXUbaiJ2qLGawsK7defoeAZowc7tujHAw9pW9t6Coymmawv6rWZY/rV7AnNNpYpCICVFj/kuSAyLigFRkHRKOBjEuAGKcd1vTN/Wg0bqRLX9Wz/bm1Id1GYFrp+E/WFprVf3ZEb0NN9u/SNrjuUovUKTQzK782f1fOTB3SxMkNBAKzQCBKERkExMM6fNS7giAzgBmrYSO8vnFUlbmg5quknAw/p9lwf43dawEJY1kh1viknCXUl2vRk3w79We/96kq0UVw0zbHiFT0/eUAHFy8qdpaCAFiZAcQFdeP82cBzwbTnElVKAtxYsbM6UrykatxQMaxqz/qHtb1tUAmPwXMrlZPTdL2oy9UZVeLG1/peaS+hRzq36sneHbojN0Bx0TTT9aJemT6m12eOq8a+DwArmOcSVc8F04FRMOopqFAS4MazzulkaUz/eewdzYXL+m/WPapHOm9X1k9RnBUotLFGq/O6VJlV9WsGkK25AT03sFsPddxO6ETTVOOG3pz7WPunD2uqvkRBAKzsAKKgYhSMBp4LLhsXlCgJcPNcrMzo5xMHtBRWtRiV9VjXNjanr0CVuKHx+oIm64tfawBhTzKvx3u36/s996k7SesVmiNysY4Vr+jnEwd0vDhCQQCseJ8efnU5MPInjQtKxvlyhtN4gZtlqr6kl6cPa66xrNnGsp7ouU+3ZXrkGfaFrBSLYVlT9SWVotp1f4+E5+tPOu/Q0327tDnbS1HRNFeqc9o/fVjvzp9RhWnnAFZ8+PBkXFAy8icDObNg5C17LuliE3HnA9zUG9yKfjN3UnNhSaPVeT3Tv0v3F27jdKQVwMlpsr6kseq8Qnd9x+8aGW1vG9SzA7v1SOdW+cajsGiKUlTTW3On9OLkIY3XFigIgBXPcyln5C3LmYVAxjWM84u+S8exKgHlAW6umg11aOmiFsOyJuuLeq7/AT3aeQetOrdYaGON1xY09jXmf/SlCvqzvvv1ne57VAgyFBVNC8eHi5e0b+qQTpXGv1Z7IADcLL5Lx8b5RRnXCCRZI78Y2Eyj4ZuAYYTAzWed07nylOYaV1dCrlTn9ETvfdqS7aMl6xap20iXqjMaqc0puo4VkJSX0J923aln+3drS7aPgqJprlTn9MLER3p7/hTTzgG0CKPAZhtGflGSDYwLYuP8Jc+lq54LstbwYgbcKgthWW/MfqzR2ryuVGf13MAD2lG4jVOyboHlqKrR6vx1nSxkZHRvflA/GnhQOwsbab1C0yyGFb0+c1y/nD2h6XqRggBoCZ5LyHfpqnH+onFBHEiKjPw536VLnkt0WRPycStwC9VsqOPFES2GFV2szOjp/p36Tvc9Gsp0U5ybxMlpplHUZH1RtfirfygzlOnW0/279HjPdrUFaQqKpghtrA8Xz+mFyY90qjROQQC0UAAJnOdSy0b+vKQokNQwzp/1bXrBuMSgJA6oB1bADfCV6qym60u6WJnW+fK0Hu/drp2FTcpzQ3vDNWykkeq8puvFrzxVuhBk9J3uu/VU305tSHdRTDTNmfKEXpo6pPfnz6phObUSQOswLmGvZg1/VlLj0xUQb8xzqSlPie0EEGDlqNlQHy1d0FhtQR8vj+q5gd36Ztc2DWW6FBj+VG+UStzQ5eqMZhrFr7TBN+kF2tW+ST/s26nt+UEKiaaZaRT16swx/XLmhOZDRncBaC2eEtZzyUkjb0yfroBExgVjnkuMGRdYSgSsLNY5jdXm9fL0EZ0tT+rQ0iU9279bD3Zs4WSlG6QYVXWhPP2V939szvbqqb6d+kbXHbReoWmqcUNvz53Wy1NHdK48RUEAtBzjAuu55IRxwdUAMlIYtkPFPTOeS17yXBBJYrcrsAJV4rqOFi9rvLags+VJPd6zXY91bdP2/KAyfpICNdFiWNbFyowWwvI1/386Ezl9u/tu/ZDWKzRR5GKdWB7RS1MHdXDpwnWdyAYAt5rngshzyUtG3sxIYdj+bu5HyXOJM55LcAQWsMLNNIp6eeqITpXGdbR4RU/03qdHOrZqY6ZHCY+2rK/LOqfpelFTjaVr7rMPjK9HO+/Qc/0P6K62dZx6haYZqc7rleljenv+tBbDCgUB0JKMEqHnkucklSQpkKSRwrDdsPzshOdSVcl0MAsEWNmcnM6XpzRRW9ShpYt6ouc+Pd57r+7LD2kg1UEQ+RqKUVUj1TktfoXVj21t6/Vs/279SdcdSnrMc0VzLIUVvTt/Wq/OHNXlyiwFAdCy8cO3qZqRNzZSGLafBZCr/8kr+i696LvkQGzqHMULtIBKXNfx4ogmaos6sHhBj3XfpW93360dhY3qTraxUf06zDWWdbk6q6Wwek1f35ss6Ad99+u7PfeoK8H0ejSHdU7Hl0f0yvRRHVm6TOsVgJblu6TzXXrByPtseNHvf1RX8VxqOrD5rbHfSLAKArSO2cay3p4/pXOVq5vUv9l1lx7p2Kp78hs0kOpgmvpXrOW58pSWoy8PIEkv0KOdW/Vs/25tzfVTPDSFk9OFyrRenj6it+ZPqRzXKQqAFmUU2HzkudS0pMrnA4gzZd+lRgKbqzb8+YQjgAAtZ6K2qOl6USeXx3R46ZIe7rhdj3beoTtyA+pN5VkRuQYzjWVdqc5e003f9k+nnT/QvpnaomnmG2W9OfexXps+ptHqPAUB0MLxwyiwuarvUiNypvy5AGLklz2bPh3Y3JKcV5DhRF6gFcXO6nJ1VtONog4sXtBvF87p0c6terBji7a1rVdvssAekT+iYSNN15c00/jyAYSD6S491bdTP+i7nyN30TShjXV46ZL2Tx3WJ6Ux8WEggJbmPAU2t+TZ9Gkj//MBRFLJc8mjvs3MGnlDvOQBra0aN3SlOquZRlEnlkf09vwpPdK5VQ+0b9aduXVal+5Q1ufU7d831yhpvL6g5aj2hV+X9VN6rHubnunfrQ3pTgqHprlYndYrM0f1/sJZVeMGBQHQ0ow8+TYz67nkUX16AtbfCiAjheFosPiTE55LjRt5OyXRNA6skiBytjypS9UZfbI8pg/y57SjsFG72zdre35Q69OdyvmpNb9PxDqn8fqCrlTmVPmC9isjo3vyG/R0/y7dXxiS4aUSTbIYVvTm7Cf65cwJzdSXKQiA1RBAnOdS455LnBgpDEefCyCfftGI75Kjnk3Z2K/RowGsIqGNdaEyrZHanD5cPK+72zbogfbN2tG+Ufe0bdBtmR51JnJrtj0rdJFGqnO6/CX7PwYzV1uvHuu6ixUkNE3kYn2weE4vTh7UJ6VRWq8ArAqeTVnfJUeNvJHf//d/K4CMFIajgdITEwnbVo/8UtaJY/+A1RhEputFLYRlfbI8pjfnPtG9+SHtKNym+wpD2pzt00CqQ/k1tq8htLEmaouaqC8otH/4tS8fpPVY1zY91bdTg+lunkxomrPlSb0w8ZHeWzjzR59/ANBKjHwlbFvduMTE769+fC6AfPrFU4EtLHh2PhN7VXoLgFV8wz3TKGqmUdTZ8qQ+WDinO9oGdE/bBm3PD+q+wpDWpTrVmcwp7SVWfT3qNtJ4bUFzjdIf/O+eMdpZ2KQfDzyo+wpDHG2MpplpFPXa9HH9cvY4084BrBqeTbrAFhaM/Kn/+r99PoC4YCywuVHfZfpjVRnpC6wBpaimM9GELlandWDxvDZn+3R323rdmVune/KD2ta2Xj3JvHJBatWGkYWwrMn64h+d/zGU7tYP+3boW93baL1C00Qu1m8XzunFqYO6WJmhIABWDd9l4sDmRo0Lxr40gHjyLwcue9F36fv/0H8HsHr9rj1rtrGs48UR9Sbz2pob0La29bqzbUB35tZpa25A69MdSnkJecasik3YkYs1WpvTVH1JdRt97r8Xgoy+17Nd3++9V/2pdp4oaJpPlsf0i+kj+mjxwpce/QwArRVA0mHgshc9+Ze/NIAYF1zxbPqIb9M/kJShfMDaY51TJa7rcrWu8fqCjhYvqzdZ0OZsr+5qW6+72tZpMN2lwUyXNmf7VAha+6WiHNV1uTKrifri5/rvA+NrZ/tGPTuwW/fmh3hyoGmm60XtnzqsV6ePqfhHVt4AoGUDiE3VPJs+Zlxw5UsDiKSi75K/9V16WRIH3ANrXGhjzTaWNdtY1vnKlA4tXVJvKq+hdPene0YGtSXbp75UQV3JNvUk8y3XplWJGxqpzWmmXvzc6UObs716pn+3Hu24Qxk/yRMCTVGNG3pn/rT2Tx/Whco0BQGw+gKIy5R8l/qtpOKXBpCRwrAdLP74gm8z855L3WZNnQoCkHR1UvhkfVGT9UWdKU3qwOIF9aby6k+1a2OmR9vaNuie/AbdmVun7mSbUl5CKS9Q0lvZ3ZxLUUVXKnNaiv72BuD2RFaP99yrp/t2aV26gycAmuZkaUzDEx/qeHGEYgBYdTyXkm8zc8b5F0YKw/ZLA4gkGflV36UvJ+OOu2vBdEqcRw7gv1K3oWYaoWYaRZ0uTagtSKsneVrrUh1an+7UunSHNmf6tDXX/+m+kU6lvYQCz1tx+0ZmG8uarC+qFoef/TvfePqTzjv03MBu3dk2wAVH04zXFrRv6rB+PfcJrVcAViGjZNxR9136spFf/kNf8cc+lqx5Ln0qYdsfbbj5fmtCagngj4qd1VJY0VJY0fnylBKerzY/rXXpDt2W6dFQulu3Zbs1mO7WunSHBlLt6ku2qzvZdstXRypxXaPVec00igpd/OlLp9EduQE93bdLj3RuVWCYy4rmqNlQv5o9oecnDmiitkhBAKw6nguUsO1LnkufkVT7KgGk4dv0h4k4/4RJ+H1SyIH3AK5ZaGMt2LIWwrLOlCYVGE8pP6HuRJs2ZXu1JdunjdmezwJJTzKv9iCrQpD57Khf33g35bEuhGVdqExrorb42SlEPcm8nunfrSd671NXoo0LiqZwcvpo8YL+evwDHVu+wrRzAKuSke8ScX7Mt+kPJTWuOYCMFIYbQ8U97wQud9pzyZ2xqRFAAFyXyMWKXKyaDbUUVnSlOqcDi+eV8ZPK+il1J9o0lOnWbZke3Zbp1oZ0l/pTV1dHCkFGaT+hjJdUyk8oaYKmDwBcDCu6Up3VbGNZkpT0Aj3Sebue7d+tO3K0XqF5xmoL+vnEAb0zf1rWET4ArE6eS7rA5U57Ct4eKQxfewD5NIRMD5SeOO3bbBh6RaZuAWhaIFmOYi1HV1dlL2lGx5dH1JHIqj3IKh9kVAgy6kzk1JcqaCDVoYF0u3qThc9CST7IKOMnr25wN4ESnq/UdayaODnNhyVN1Bc/m/+xPT+onww8pJ3tG5l2jqaZD0tXj9ydOaqFsExBAKxavs2Enk2dHs3vnfpjX/OFzdeeEpcStrDYcHPsAwFwwzRspOl6UdP1/3JSn2eMMl5SPcm8upJt6kzkPg0oabV/GlY6k7nP/n1HIqu2IK2cn1LKSyjp+Up7SfnGU2A8BZ5/9Z/G/yyoRNZqqr6k8dqCIherL1XQD3rv13d7trf8bBOsHHUb6oOFc/qbiQ90tjxJQQCsWp5LKGHbFz0lLn7R131hADHOv5iMO841/Pauuj+boKwAbhbrnMpxXeVqXZerszIyMkby5Mk3nnJ+Sh2JrDoSud9bPUmrkMiozU9/Fkayfkq5IPXp/77a9tUeXA0rC2FJHy1e0KXKjNJeQo/33Kun+ndqKNPFBUDTnClNav/U1Wnn//WgSwBYTRK2PUzGHeeM879WADkf2Px7iTh/T92fZSghgFvGyck5yerqnpK6DTUfluQZo4QJPlvlSHy6wpEwvgLPV9pLKOenlA8yaguuBpLftXEVo4remz+ruUZJu9o36dn+3drdvplTr9A082FJv5w9rtdnjmsxrFAQAKs7gMT5cmDz7xvnn7/+ACJ/IrCZN3yX+zuS6WQeCICVxjqnugtVl6Qv+HD590NJwvhKeP7V07rCsgZSHXpuYLce696mnM+WNzRHNW7onbnT+sX0UaadA1gDjHyXmwts5ldG/sQXfeUX7tgcKQxbz6U+CmxuLLAZ0geAlhU7q5oNVYpqWgjLmq4XtRCWlfYSeqL3Pv144EFtSLPQi+ZwcjpZGtPzkwf00eIFRY7WKwCrW2AzLrC5Uc+lPvpD08+vOYB8at636XPJuLNqRFsCgNXDM0aPdt6hPese1t1tG1bchHa0ronaol6bOa63509z6hWAVc/IVzLurPo2fV7S/Je+/37ZF4wUhq3vMgeTcfeoZ1OsggBYNbZk+/TswG59s+uuWz6RHatHzYZ6d/6MXp46okuVGQoCYNXzbMol4+4x32UOftnqxzUFEEnyXerXCdt+wncpS4kBrAZdiTY90Xufnui5T91Jpp2jOaxzOla8opemDulI8ZJix9smgNXPd0mbsO3HfZf69TUFlmv5IuOCU77NHPZdpkGJAbS6hOdrd8cmPdO/W3e2Me0czTNRX9DLU0f09vypz4ZtAsDqDyDZhm8zh40LTjUtgFzdjJ48nojb5zzHCTEAWttdufV6pm+3Hu64XSmPEUdojqWwojdmP9YrM0d1pTpLQQCsCZ5L6WpGSB6/lvaraw4gV7/QP5+MO04l43ZWQQC0rL5UQd/vvVc/6Luf1is0Teysjhav6IXJj3SiOCLr2DIJYG1Ixu2NZNxxytMXz/64rgBiXDCZsPlXk3EXH+sAaElpL6FvdN6pp/t2aWuun1Ov0DQXKzN6efqw3ps/q3JcpyAA1lAA6ZpN2PzrxgWTTQ8gkuZ9m9ubsIVLnqNlAUBrMTLa1rZezw08oIc6tjDtHE1TjKpXW6+mj2myvkhBAKwZnksoYQuXfJt7Xtdw/O7vXPO5k5/2dJ3tK3/7VDLueKgezCecGKwEoDUMpNv1Z33367GubWpPZCkImqJhI32wcE77pw/rZGmMggBYM67O/ugIfZs5PVp4/uxXCi5f9Yf5LnMwFfeP+cwEAdAi0l5Cf9p5l57t361N2R4KgqZwcjpXntLeyYN6f/6sGjaiKADWDN+mXCruG/Nd5uBX/f9eRwBJvZWMOz8MbI5XWgArnpHR/YXb9Ez/Lu0sbKT1Ck0zVV/SG7Mf643ZjzXTKFIQAGtKYHNRMu464LvU2zc8gBgXnAls7i3ftZUpPYCVbkO6Uz/s26nv9tyjtiBNQdAUNRvqw4Xz2jd1SBcq0xQEwJrju7ZyYHO/udbZH18rgIwUhhu+S32UiAuTvkvThgVgxWoL0vpOzz16sm+HhjLdFARNc6Y0oVdmjurA4gXVbUhBAKyx8JF2V7NA6qORwvBXHtHhXc8PNS64mLTtH6Wi3rI4xhLACuSZq61XPxl4SPcVhjhyF00zXS9q/9Rh/WrmY82HJQoCYI0xSkW95aRt/8i44OJ1vUdf508uBnHbvlTcc9k4+qkBrDwbMz16um+XHuu+Szk/RUHQFHUb6t2F09o7dVBny5MUBMCa47lAqbjnchC37ZN0XRvgriuAjBSGa77L7E/Y/OHAtnEWL4AVJR+k9Z3ue/Rs/271JgsUBE3z8fKohsc/1LHiFTnRhQxg7fFtLk7Y/GHfZfaPFIZrNy2AfBpCSr7NHEjHfXPsBQGwYl4YjaeHOm7XjwYe1La29RQETTNam9e+qcN6c+4TVeMGBQGw9t5jXdql475532YOjhSGr7sH1fs6D8JzyY/SUe9vE3E7O/AArAibs716rv8BfaPrDiU8WkTRHKWoptdnjuulqUMary1QEABrUiJuD9NR7/ueS370tTLE1wwgRwJb+JuEbV/kkgC41XqSef1Z7/36fu+9tF6haSIX63Dxkl6aPKSjxcsUBMDaDSC2fTGwhb/xXPLQLQsgI4Xhim/T7yTi9gsJm7eciAXgVkl6gR7s2KK/s+4hbc31UxA0zWh1Xi9MfKR35k8rtGx7BLAWGSVs3ibi9gu+Tb8zUhiu3LIAcvXheDNJ2/7rdLRulhOxANwqW3P9eq7/AT3YvkUpL0FB0BRLYUVvzn2iX86eYNo5gLUbP5yvdLRuNmnbf23kzXzd7/e1A8hIYbgU2NzPUlHPYd+lLZcIwM3Wmcjph3079cO+HWpPZCkImiJysd5fOKvhiQ85chfAmua7tE1FPYcDm/vZ19l83rQAIkmj+b3HAtv2VjLuqniOTx4B3DxJL9B3e+7Rc/0PaGO2h4Kgac6UJrV/+rDemz/DqVcA1izPJZSMuyqBbXtrNL/3WFO+Z/OSUepAJuo/kbCFiEsF4GYwMtqeH9SedQ/rwY7NTDtH0yyEZb06c1SvTR/XQlimIADWrIQtRJmo/4TvUgeaFmqal46Sh5Nx518l485FLhWAm2F9ulPP9O/Sd7rvUZZp52iS0Mb67cJZ7Z86onMVWq8ArG3JuHMxGXf+leeSh1dcABkpDM/6NvdiMu4869us40QsADdSxk/q291367n+B7Q+3UlB0DSflEY1PPGhDi5dkHXM2QWwVhn5NuuScec53+b2jRSGZ1dcALn6ML2LCdv+m2w0OOu5JNcNwA3hGaMH2jfruYHdurcwREHQNOO1Bb06fUxvzH6sxbBCQQCs3fdal1Q2GpxNXD356mJTv3czv9lIYdj6Nvs36ajvXd+mOSwdwA1xW6ZHT/fv0mNd25TmyF00STVu6L2FM3pp6pCuVOcoCIA1zbfp+Oo9ffZvRgrDTd3j7TX7wY7lXzwY2LZXUnHPEidiAWi2rkSbHu/Zru/33EvrFZrGOqdjxSvaN3VYR4qXFTtOlQewdnkuoVTcsxTYtlfG8i8ebPr3vyGJyaXeTkf9v03FPVUuIYBmCYyvHe236bn+B7Q9P0hB0DRjtXn9Yvqo3pz9RKWoRkEArGmpuKeWjvp/67vUuzck4NyIb2pccCkZd/7/UlHvCNPRATTL7bk+Pdm7Q490blXGZ58ZmqMU1fSbuZP6xfQRjdB6BWCNM85XKuq9kow7/jfjgkstE0BGCsMV36VfTMad76fi3jonYgH4ujoTOX2vZ7ue7NuhvlSBgqApIhfraPGKXpo6pBPLo3Li1CsAazp+KBX31JNx5/u+y+xtxtTzmxZAPg0hjcC2vZANNxxP2DzNtACuW8Lz9VDH7Xqqb5fuyW9g4CCa5nJlVq/OHNX7C2dViesUBMDafr+1eZsNB48Htu2FkcJw40b9HO9G/hK+S7+XjLufT8ZdJVZBAFwPI6M7c+v0bP9uPdq5VYGhrRPNsRRW9Ou5k3p1+pjGavMUBMCaf8dNxl2lZNz9vO/S793In3RDA8hIYXg6cJmXU1HvJ8m4I+LCAviq+lIFPd5zr77bc496knkKgqaIndWhpUvaP3VYJ5ZHGTgIYM1Lxh1RKur9JHCZl0cKw9MtG0Akybjgk1Tc9bNMtG6CVRAAX0XaS+jRzq16un+nbs/1UxA0zfnKlF6cOqjfLtJ6BQCSUSZaN5GKu35mXPDJjf5pNzyAjBSGG75L/3Uq7nkrFXeH5sb/SACr4qXQaHt+UM/079YjHVsZOIimmWkU9frMcb0+c1yTtSUKAmCNv996SsXdYSruect36b++kXs/bloAkaTR/N6JIM7vz4ZDZ4I4z4R0AF9qXbpDT/Tep+9236P2RJaCoCkaNtKHC+e1b+qwzpWnOPUKwJoXxPn403v0/aP5vRM342fetOUIT8GvU1HvT1NxV5FLDeCLtAVpPda1TU/27dCmbC8FQdOcLk1o39RhfbBwTnUbUhAAa14q7iqmot6fegp+ffNywU0ymt87Edjcz9LRwKFk3MWGdAB/+EXJGN2bH9RT/Tu1o7BRvqFtE80x21jWL6aP6PXZ41oIyxQEwJqXjLuidDRwKLC5n92s1Y+bGkAkabTw/MVk3Pm/5cLbzvguxbo3gM/ZnO3TD/t26jvdd6uD1is0SSmq6ddzn+iFyY90sTJNQQCseb5LuVx425mE7fiPo4XnL97Mn+3d/F82sy8Zd7+UivoqxgVcfQCfaU9k9d3ue/RU304NZbopCJoidlbHl0f084kDOlq8wpG7ANY8zyWUinorybh7f2Cz+2/6z7/ZP3CkMLwY2OyrmWj9wWTcSQMuAElSYHztKmzSk307tD0/yLRzNM3l6qxemzmmd+ZPc+QuAEhKxB1hJtpwKLDZV0cKwzd9Eustaa72XPKDVNTzb9Nx35hxTDUGIN2W6dZT/Tv1jc47lfGTFARNUYpqemvulF6ZPsq0cwCQZOQrHfeNp+Luf+u55Ae3JAvcih86Uhiu+C69Nx31/SITbVhmNgiwthWCjL7Xs10/6L1fA+l2CoKmiFyso8Ur2jd1SMeLI7ReASB8yFMm3LCcjvp+4dvMiyOF4dKaCSC/CyGBzf9lLhx6IxF3cCoWsEZ5xuiBjs368/WPaFvbelqv0DSXK7N6YfIjvTt/RmVarwBAibgjyoVDbwQ2/x9uVfi4pQFEksbyLx5MxO3/ORsOXk7YguVpAaw9t2f79ZOBh/SNzjuV9DiYAs2xFFb0xtzH2j91WJP1RQoCgPBhCzYbDl5OxO3/eSz/4sFb+Vhuee+T55LvpaO+v0pH/XO0YgFrSz5I68m+HXq6f5fyQZqCoCmsc/pw8bz2Th7U2fIkBQEAGaWj/rl01PdXnku+d8vv/2/1AxgtvDAWuNy/TEcDb6eingZPEGBt8IzRn3bdpR8PPKjNTDtHE12oTGvf1GG9N39GkYspCIA1Lx31NtLRwNuBy/3L0cILY2s+gEhXp6Qn4/Z/lw03HkrYPK1YwBqwNTugPese1oMdW9j3gaZZDCt6deaofsm0cwCQJCVs3mbDjYeScfu/u5nTzld8AJGksfy+11Jxz19mwg2TvkvxbAFWsXXpDj3dv0vf6b5HhSBDQdAUDRvp/YUz2jt5UKdLExQEwJrnu5Qy4YbJVNzzl2P5fa+tlMflrawiJfdnovU/z4SDc+ITUWBVSnsJPdpxh3408IA2ZXsoCJrmbHlSL0x+pA8Xzyt2LKYDWOuMMuHgfCZa97zvkvtX0iNbUQFkNL93ImHzf5mJ1r2VjnobbEoHVp978oN6un+XdrdvVmAYRIrmmG0s6/WZ43pj9mMthRUKAmCNRw9P6ai3kYnWvRXY/F+ulNarFRlAPg0hRxJx+/+eDW87zHwQYHXpT7Xryb779b2e7Zx6haYJbax3589o39RhXarMUhAAa14i7oiu3ku3/6ex/IuHV9rjW5FLDL5Lv5aKe/9VJlo/4rs0o2uBVSAfpPW9nu16um+XNmZovUJzWOd0YnlE+6cO66OlC5x6BWDN813aZaL1I6m491/5Lv3aSnyMKzKAjBSGS4HNDmeigZ9mw6FZI9o0gFaW8ZP606679H9a/yd6oGOzPMMeLzTHRH1B+6cP6405Wq8AwMhXNhyazUQDPw1sdvhWTjv/Iit27PBIYbgyVNzzzzLa0Bt55b9fDSYyEoshQCu6LdOt73Tfo90dm5X0AlXjhhx/z7hOnvFkJC1HNb01d0ovTx3Rxco0hQGw5uNHOuqvZsINzyfi9n82UhhesZ/KBCu5jCOF4dkNy8/9+1xj0wan+Pu1YIrzeYEW4xtP+SAj66w+Xh7VmdKEajaUcwQQXOcbl+fLSLpcndVr08d1qjQuy/MJwBqXjvrqucamNxK28O9HCsMrekNcsNKLOZZ/8eCG5Wf/qQ3DbmvqDzX8RfqxgBYT2VhLUUVT9SUFxlMtDikKvnYAma4XtRRV2PcBYM1Lxh1xNhw6koq7//lY/sWDK/51vBWK6rnkm+m499+7MMo4c+6+0FvmfF6gRcTO6kjxso4UL1MMAACaLGHzNhduPpGO+/6d55JvtsJj9vX37lvxD7KYOuk6avdf8FzSSt491qsWrGmwixUAAABrOHwUbDbceCUTrf/Xgc3+bKQwXCWANDeE1Dvq20d8m0pJuiP0i3lnWHYHAADA2uO5hHLhxslsuP4/Bi7zH0cLz8+1ymNvmQByNYScLnXU7/vEc4n1ztitsVdOO2N5BgIAAGBNhY9MNLiUCwdfSLj8/zSa3zvZUo+/1Qo+mt87FdjCX+bCoV+kor4qT0EAAACsJam4t5oLh15O2Pb/MJrfO9Vqj7+lVkB+Zzl1eryztnPUk3+XNeH6yKsEPBUBAACwuhmlo/56W7jp/VTc8z+M5vd+0Iq/RUsGEEkqpk6PddZ2XfBdaktsakOxV+F4XgAAAKxaqag3zDdufzsV9/7DsfyL77Xq79GyAUSSllNnrnTUdi74Sm62Xn0dIQQAAACrMnzEPWFbuOXDVNz7T8bz+15v5d+l5VuXfJfan476a072H7mk3d3w52nHAgAAwKqRjLuiXGPT4XTU/w89l/xVq/8+LX+zPlIYtpJeX7/8dF7S/2s5aR8MmZYOAACAVSARd8RtjS0H01H/Px7Lv/T6avidWroF6/ctp86e7KztKnsK7oxNrdd6NaalAwAAoLXDR7j5RCZa90/G8/v/erX8XqvqJt136eFMuP6/bws3f5KwBQaEAAAAoDXDhy3YtnDzyUy4/h/5Lj28qu7ZV8sKiCQVUyfjT1dCSr5Nb468ah8rIQAAAGip8BF3xPnG1uOZeOB/Hs+//LNi6mRMAFnhSslzxzpru4uegrusqXfHhBAAAAC0gGTcGbWFmz/JxAP/eLzt5f99Nf6Oq/bEKN+ln8+E66vG+f/vUvL8Aw1/gdOxAAAAsLLDR+P2g+mo/3/yXfqVVXufvhpXQCSpmDoZLafOnuqs7VzyXWbImsYAc0IAAACwEqWi3jAf3n4gHfX+0/H8yz8vpk5GBJAWtZw6+0lXbdeop8SdzkT9ESEEAAAAK4ZROuprtIWbDqaj/n84nt//0mr/jVd9ALkaQs6c76o9cMl36Q3WhIORV6YdCwAAACsgfPTX2xpbfpOO+/7RWH7fL9fCb70mAsinIeRiZ23ntO/SfZJZF3uVpDOc1AsAAICbz3MJZaINpVy48depuPufrpXwsaYCyKch5HxXbfcx36X7JQ1GXjXjTMxfAAAAAG5i+EgpG25YyEUbX07F3f+fsfxL76+l339NBRBJKqZOT3fWdp73XVaeSwzFXiVvTWj4UwAAAMCNFtisy4Wbx7PR0E+Ttv1fj+b3HltrNVhzAeTTEDLZWdtxwlc6YZQYcqZRYFYIAAAAbqRE3BHnoo2Xs9H6/5SI8/9itLD37Fqsw5oMIFdDyKnlztquI77LLPguNRR71b7YqxNCAAAA0GRGybgjzjduP56J1v2LhM3/h9HC89NrtRprNoBcDSEnq521HSd9l1r0XbZPJu6LvFKCPxIAAAA0SyZaV20Lb/8gHfX+L4HL/h8jheHiWq7Hmg4gn4aQcDl19lhXbfclz6UHJK23Xj3hTMy+EAAAAFz/jbZLuUy0vpwLN72Zjnv+v+P5/XuLqZPhmq/LWg8gv7OcOnOpq7b7cGDbfOP8TZFXyTkTEUIAAABwHeEj7bLhxum2cPN/StnO/3Es/+IBqkIA+Zxi6vRsZ23Hcd9lne/SA87E7TGT0wEAAPAVpOKeMNfYfDYbbviPCZv/l6OFvRepCgHkC0LIqeVS8sKvO2u7i75LbZBxvdY0AuaFAAAA4It4Lql03FfLhRsPpeP+fzrZ9uq/KKZOLVOZvy2gBH+kMDb7154bGPdd5v8aBLknyonLPdaEFAYAAAB/IHwklAtvm81E619PxO1/6bnku1SFAPKVjBSGa5J+Nbj8oynjgknPpX9UCyaH6v4sp2QBAADgM6m4J0xHAyPpqG9vwub/19H83hNU5Y+jBetLFFOnp7tqu98NbG7Sc8lBZ2yPNfXAGUtxAAAA1jDPJZS62nJ1OBuu/8cJm/83o4XnR6kMAaQJIeRko6N+/4nApa8kbMF6LtUfe7W8NQ1OyQIAAFiDAtvmcuHm8Vy46flU3PWvfJfeO1IYrlOZa6gdJbg2I4VhK+m1weUfHfXCxKjv0nuqwcTWuj+TZoM6AADA2mCcr1TcW8tE686lop7hwGX/zWh+7xSVuXasgHxFxdTpcmdt16HAZk8FLpeT0VDslVO0ZAEAAKxunksoG20otoVbXk5Hvf84cLm/Gi08P09lvhpWQK7DSGG4KOmVDcvPTXkueSkZdz5VDca31oKpFNUBAABYfdJRfyMTrTuXjLtfDmzu/xjLv3iQqlwfVkC+huXU6cmu2u5f+TYz77t0j+cSXc7YpDV19oYAAACsAglbsJlo/VIuGvwgHff984TN/7PRwgvjVIYAcssUUyddR/3+M4HLHAxsYSawmW7rhT2xV2WCOgAAQMsySsU9YVtjy/FsOPgfkrbjX3ou9dZIYTiiNl8PLVhNMFIYbkg6NlTcc8ZTcNmvZ/687s8+Wg0m+0J/kSACAADQQhJxe5yJ1k2n4p7fJmzhb3yb+fmnM+LQlGj34t+jCk02VNzTE3nL/6AezP5FNZi4q+EtpWKvQlsWAADACubbrEva9no6Gjidjnp/Gtj8/zpSGJ6lMk2uMy1YzVdMnax01naeDGzuRMK2L/ku021N2B57VY/qAAAArDzJuDNqCzefz4Ubf5aKe/6177L7RwrDc1Sm+VgBucGGins6Iq/890Nv6dl6MHd/3Z/tbvjztL4BAACsiODRFaXinrlU1H08YdtfDGzuP40UhhepzI3DCsgNVkydrHXWdhwKbPaXCds257t0r5HXaU0YyFgjOYoEAABwExl58m3aZaKBajYcOpqN1v/rZNzxP/ou9euRwnCFCt3o+rMCctMMFfe0WVP/ZuzVvt3wFr5fDSa3VxPjGUIIAADAzbv9zYTrq5lo4OOk7fylb9O/8VzqnZHCcInaEEBWtfXLT/849It/0fDnH2n4C70Nfz4dmxob1QEAAG4A36VdMu6qJePOmWTc9UEiLvx0PL//BSpz87EX4db9Eezz4uCDRNz+YMrr/m9qwfTj1WCiP/LKvjMcLw0AANAMxgUKbC7OROum0lHfrwJb+GtP/kfGBTNU5xZdE1ZAbr3B5R/dG5v6dyOv/M3QW9pVC6ZuqwVTKSoDAABw/dJRfz0d9V9J2PbDgc2947vUm6P5vSeoDAEEn7p6Ylblz0Nv8e/Wg7mdobfUHnrFROxVac0CAAC4Br5Lu0TcHiZs+1Iq6j6SsB1/Fdjs33CyFQEEfzyEZJ2JNlmFuyO/9FTNn/lWNZgYCP0ln83qAAAAf/y29uoE84GpdNz3myBue9lT4pBxwSVOtiKA4Bpdbc2qPhV5lUcjr3RXw18YqgVTbWxWBwAAuMp3aZeO+kvJuHMksG2nfZv9IHCZ/bRaEUDwNQwV92StqX8r9Ip/UQ/mH2v48/2RV0rFpupZE1IgAACwpnguId9lbGDb6sm4ayoVdb2dsIWfei71FqsdBBA00eDyj+60iu+wpv5g6Be/V/dn7qsF0x2RV2JFBAAArAmBbXPpqG8xFfceT8SFNzyX+siTf3Y0v/cM1SGA4AbasPzMk5FXeSryyjsjb3lT6JU6Q38hG3rLHtUBAACrScLmbSLurCRs20Jg85cCmzsS2OzLY/l9r1AdAghuoqHinqQzUadV+K3IKz/Z8Be/0fBnbwv9YtqaholNw7BxHQAAtOItqu+SznNJl4gLtWTccyUZd7wX2NwrnhJvGRcsjBSGG9SJAIJb6Gp7VnSvNeG22KvuDL2lHfVgZqjuz2Ws4e8TAAC0Bs8llYq7q6modyRh24/6NnPEc4lTnoITtFkRQLBSw0jxx0OxV/tx5JW/E3mluyKv1Bebai70llORX/KdYooEAABWyM2oryBuixM2X/ddphzYtunAtp0ObO7Xvk2/MFp4YYQqEUDQAoaKe9LORO2SemPT2GVN9VsNf+mhhr+wqeEt5GOv6jnFcsaKNi0AAHAzbz+N82Tky7cZm7Sdy8m481Iybj/gucxbvkseljRjXLA0UhiuUS8CCFrU1RatcJc14Tbr1bfGpro19JZva/iL3aG/kIpNnSIBAIAbyncpJeLOWjLunEvYthHfZc57NnX2aotV4jAtVgQQrFJDxT2eNY2HY1P7QeSVHom8yu2RV+qxppaOvXoiNrUg9qqGVi0AAHD9N5m+fJtxvktHvk2FnkvXAts2G9jcucDmfuu79OueS340UhiOqBYBBGsniHQ5E/VI6rSKtlivvj0ylQcjr7S14S/2N/z5bOxVPCdLsQAAwDXeXHrybdYm465KMu6YCmzbucBlP/Js6mNPwQVJC8YFsyOF4XmqRQABgaTNmsZua8J7rWncYU1jY2xqG2Kv1hebcnvkVbKRV05EXolZIwAAQJIU2DYb2FwY2GzFd7kl36anfZce81zysueSZz2XOOG55KGRwnCJaoEAgi81uPyjbbFpfNOa2u7Y1LbGXnVD5JX6IlPNWdMIrAk9ZyLPmtBcPe6XDe0AAKzGW0bPJeW5hPNcYD2XsMYlo+DTU6t8mxnzXfqc59KHfJd8ZzS/9xQ1AwEE122ouCfrFPc6Y3sk1+UUdzgTb7CmcVdsardfDSXl3sgrtUVeKRV6JY8gAgDA6rhVTNg2G9i2emDbSoHNzfyXsJE8ZZw/YeQvSmbeOG/WyJ8ZKQxXqBsIILhRwaTLmsa91oR3WRPe7hSutybst6bRZU1YsCbMWdPIWNNIWtNIxqbuW1P3Yq/GhHYAAFbIraBv085zKeu7VOS5ZOi5ZMNzyarnEmXPJYqeS857LjFllBj3XOK85xKnPZc8wR4OEEBwK4OIJymQ5EnynInykjZZE95j1bjDeo0haxobYlPvtqbeEZt6W+xVsrGpB06xkXHm6kZ3a343l8RJRrJyspJxV/8NoQUAgC+8rTMykjMyV9+SdfUTv6tzNyTPGXmSM87Id75LRb7NVnyXKnkutei71KznkuOeTY54Sp71XOITSZeMC5alq2/UkqKRwjCn04AAghUbTAJnol5JnU62y8m1y9h2J1uQbJuTbXcm7nYm7rSKOp0J262Jsk5xzpkoZU2YsiZKOoWBM7HnFAWhX0wwswQAgKsCm3WeS8ee851REBvnx0aJyHNBw3OJunFB3cgvey6oGJdY8hQsGOcvGOfPGXlLklcy8opy3pKRWTLy5nX1lKoZjsfFDXveUgLcKCOF4WiouGdK0pyRkpICOSWdiXw5E8i4nHN2nTXRoKd4vTNRv1Pc7UzU4Uyct4ranIly1kQZySasiVJGQT70llJUFwCw1hmXtAnbVvNcqm7kx8b5DSO/4bmgalxQ9hSUjPOXjQsWjfw544IpI3/cc8GokTchZ8oyLjIuiCU1JEW/+yerHLixz11HWwsAAACAm4N5DgAAAAAIIAAAAAAIIAAAAABAAAEAAABAAAEAAAAAAggAAAAAAggAAAAAAggAAAAAEEAAAAAAEEAAAAAAgAACAAAAgAACAAAAgAACAAAAAAQQAAAAAAQQAAAAACCAAAAAACCAAAAAACCAAAAAAAABBAAAAAABBAAAAAAIIAAAAAAIIAAAAAAIIAAAAABAAAEAAABAAAEAAAAAAggAAAAAAggAAAAAAggAAAAAEEAAAAAAEEAAAAAAgAACAAAAgAACAAAAAAQQAAAAAAQQAAAAAAQQAAAAACCAAAAAACCAAAAAAAABBAAAAAABBAAAAAABBAAAAAAIIAAAAAAIIAAAAABAAAEAAABAAAEAAABAAAEAAAAAAggAAAAAAggAAAAAEEAAAAAAEEAAAAAAEEAAAAAAgAACAAAAgAACAAAAAAQQAAAAAAQQAAAAAAQQAAAAACCAAAAAACCAAAAAAAABBAAAAAABBAAAAAAIIAAAAAAIIAAAAAAIIAAAAABAAAEAAABAAAEAAAAAAggAAAAAAggAAAAAAggAAAAAEEAAAAAAEEAAAAAAgAACAAAAgAACAAAAgAACAAAAAAQQAAAAAAQQAAAAACCAAAAAACCAAAAAACCAAAAAAAABBAAAAAABBAAAAAAIIAAAAAAIIAAAAAAIIAAAAABAAAEAAABAAAEAAAAAAggAAAAAAggAAAAAEEAAAAAAEEAAAAAAEEAAAAAAgAACAAAAgAACAAAAAAQQAAAAAAQQAAAAAAQQAAAAACCAAAAAACCAAAAAAAABBAAAAAABBAAAAAABBAAAAAAIIAAAAAAIIAAAAABAAAEAAABAAAEAAABAAAEAAAAAAggAAAAAAggAAAAAEEAAAAAAEEAAAAAAEEAAAAAAgAACAAAAgAACAAAAAAQQAAAAAAQQAAAAAAQQAAAAACCAAAAAACCAAAAAAAABBAAAAAABBAAAAAAIIAAAAAAIIAAAAAAIIAAAAABAAAEAAADQKv7/AwB01OLNLTFj9wAAAABJRU5ErkJggg==;" vertex="1" parent="1">
          <mxGeometry x="-56" y="345" width="177" height="177" as="geometry" />
        </mxCell>
        <mxCell id="nP1oVnhMzVwhyK_QxXf1-2" value="" style="shape=image;verticalLabelPosition=bottom;labelBackgroundColor=default;verticalAlign=top;aspect=fixed;imageAspect=0;image=data:image/jpeg,/9j/4QAYRXhpZgAASUkqAAgAAAAAAAAAAAAAAP/sABFEdWNreQABAAQAAAAeAAD/4QN6aHR0cDovL25zLmFkb2JlLmNvbS94YXAvMS4wLwA8P3hwYWNrZXQgYmVnaW49Iu+7vyIgaWQ9Ilc1TTBNcENlaGlIenJlU3pOVGN6a2M5ZCI/PiA8eDp4bXBtZXRhIHhtbG5zOng9ImFkb2JlOm5zOm1ldGEvIiB4OnhtcHRrPSJBZG9iZSBYTVAgQ29yZSA1LjUtYzAxNCA3OS4xNTE0ODEsIDIwMTMvMDMvMTMtMTI6MDk6MTUgICAgICAgICI+IDxyZGY6UkRGIHhtbG5zOnJkZj0iaHR0cDovL3d3dy53My5vcmcvMTk5OS8wMi8yMi1yZGYtc3ludGF4LW5zIyI+IDxyZGY6RGVzY3JpcHRpb24gcmRmOmFib3V0PSIiIHhtbG5zOnhtcE1NPSJodHRwOi8vbnMuYWRvYmUuY29tL3hhcC8xLjAvbW0vIiB4bWxuczpzdFJlZj0iaHR0cDovL25zLmFkb2JlLmNvbS94YXAvMS4wL3NUeXBlL1Jlc291cmNlUmVmIyIgeG1sbnM6eG1wPSJodHRwOi8vbnMuYWRvYmUuY29tL3hhcC8xLjAvIiB4bXBNTTpPcmlnaW5hbERvY3VtZW50SUQ9InhtcC5kaWQ6OTRiYTRkMGUtOTdhMS03MTQ4LTgxZTItNDE2ZDU3ZTRjMzliIiB4bXBNTTpEb2N1bWVudElEPSJ4bXAuZGlkOjY1MkE5OEE3RjZEMzExRURBRjIxQzhBREZGREY3M0I1IiB4bXBNTTpJbnN0YW5jZUlEPSJ4bXAuaWlkOjY1MkE5OEE2RjZEMzExRURBRjIxQzhBREZGREY3M0I1IiB4bXA6Q3JlYXRvclRvb2w9IkFkb2JlIFBob3Rvc2hvcCBDQyAoV2luZG93cykiPiA8eG1wTU06RGVyaXZlZEZyb20gc3RSZWY6aW5zdGFuY2VJRD0ieG1wLmlpZDphZTYzNzgzOS04MzhmLTFjNDEtOWFhZi03MjZmOWM4NjgxYmEiIHN0UmVmOmRvY3VtZW50SUQ9InhtcC5kaWQ6OTRiYTRkMGUtOTdhMS03MTQ4LTgxZTItNDE2ZDU3ZTRjMzliIi8+IDwvcmRmOkRlc2NyaXB0aW9uPiA8L3JkZjpSREY+IDwveDp4bXBtZXRhPiA8P3hwYWNrZXQgZW5kPSJyIj8+/+4ADkFkb2JlAGTAAAAAAf/bAIQAEAsLCwwLEAwMEBcPDQ8XGxQQEBQbHxcXFxcXHx4XGhoaGhceHiMlJyUjHi8vMzMvL0BAQEBAQEBAQEBAQEBAQAERDw8RExEVEhIVFBEUERQaFBYWFBomGhocGhomMCMeHh4eIzArLicnJy4rNTUwMDU1QEA/QEBAQEBAQEBAQEBA/8AAEQgAgACAAwEiAAIRAQMRAf/EAJwAAQABBQEAAAAAAAAAAAAAAAAGAQIDBQcEAQEBAAMBAAAAAAAAAAAAAAAABAEDBQIQAAIBAwIDBAMLCQYHAAAAAAECAwARBBIFITEGQVEiE2EyFHGBkaGxUnKyI3MH0YIzYzR0FTUW8MFCYlQ28ZKi0oMkRBEAAgECBAUEAwAAAAAAAAAAAAECEQMhQVEEMWFxEiKhwTJSseEU/9oADAMBAAIRAxEAPwDoFKUoBSlKApWum37bYMw4ckv2ii8jAXSP6bDl/d21sa5dHkNj52coPEmeEg9zalNa7k3FJrXEs2O2huJTjJtOMfFLNnUQQRccQeRqtefAv7DjX5+Un1RWetiJJKja0dCtKUoYFKUoBSlKAUpSgFKUoBSlKAhHWOduSb5jYuJkSQL5IIVHKhmdyLtb3K1DbPks7yNko0khJkcxkliedyWrZdXf7nxfuU+u1XHnVe1sW7kZOarR0JtxeuW5R7JdtVkeVV30ABd2kAHAAarC351Xqm/kgfxeTj9P/ur0Cr15j3ape0s/X1ZP/Td+3ojQNvm/K7J/EJTpYrfU3Gxt31T+P7//AK+X/mNeOb9NJ9N/rGs+PBH5fnTaivYFBPLvtXLlhUtncUIKUquuCSxbfIzf1Bv/APr5fhNB1Dv4/wDvk+GrWjx5MdpApjYXK8CBbsF+RvXirCdRauq53YOLi+1pnQejdxytxxJ5sqRpHVkHE3AOnjp7r1I6iX4e/sOUP1i/VqW1k2ClKUApSlAKUqlAQPq3j1TjD9VH9dquDBiwF/CbcRb4Kt6s/wB1Y33Uf12q8lyzal02PA3vcVdsm6NV4y05ehHu1iuUfcx+0QDgXt7tZkYNpZTdTYg99YUbUxGgrbtI/tzrOvMe7Vq6kbIpL+lk+m31jWbHydCmGQ/ZG9+HHj2Cr8XEGZnNCZEiXWxLSMEFg3EAtwvathn7RtEUbti5yuysvB3DWQhzf7NDqLWFrcu2uJJVb6nVnbjOHbJfp6o1uZlCWyR8Ix71zXmqU/0/09rCjNNr2I9ogvovbzL6eXo51q9227BwsfHfGl82WT9JaWOVRwB4BArD3xWEqYC3bjbgoRWCJD+Hv7DlfeL8lS6oj+Hn7Fl/eL8hqXVk9ilKUApSlAKhm+Pv2d1M22bbmnFWPHWULq0L26r2BJJqZ1zrq3Ey83qmSDDjaWb2eNgqGx0gNqN7igNTBk5OVuMEuXK08wfQZHOo2VrWB7qkQD6m1EFb+G3dUYwLDKx/Q/L3xUoAsTxLXN+NXbKtHx+WXTMj3dKrh8ffIw6skckQ+nVas8d7i/PttWDy5uQm7bg6Qfhq4yDGhaaZ7rH4ibW9xeFWVom3VJaklK0SpXkaLEwvbc94DKkALOWkkIUABjyuRc9wrY7j0y+BjvN5xkCOEuIwqG7tH62s8fDci1aMsWJY82JY++b1UsxFiSRe9r9tcZ8WddcDfz9LRY5cTZUiaBM3GCxZccBmZby8QQfCa8e57HLtsXnO+pGkVIzp0hw0Yk1KbngCdNawuzcWYn3TQsxsCSbcr9lYBs9rXeV2zKzNtyjjQYo1ZCqwVnNzYrdTyFdD2bIlytpw8mY6pZYUZ25XYjia5dFi5U2G08UbtjwL/wCw6nwqCxtq48a6X04b7DgfcJ8lAbOlKUApSlAKi0mdtOB1hlz7jIIZTiwrjyPwSx1GQX7zYVKa5r1sGPUkgUFj5MXBQWP+LsFAa8HFbdy2ECMRp2MF730FhbnxqREVFcJ1SeKRjZFbUx7gCK2mVvlyVxEt+tkHyJ+WrNrehbhNyeeCzJdzanOce1ZccjZTzw4yeZO2heztLehR21pcmfN3R0SCFjDr0xRLYlntq8XH1re8K8UkkkrmSVi7nmzG5r04xQRAjMONIr6imkm3YHUrxv31rvbmVzBeMdNep7s7eNvyflL8dDF7Hl6S/kOFCeaWIsPLB0l+PZq4VbHj5Eo1RRO6jtANq9YndYxGu5NosU0AMLITqIu1/CTxrHaNLL7cSkiux8sN4ZARYOp+dcm4qc3mFMXKkUMkLsp4ggVYyPG+iRSrDmp5j3a9kZB0oNxMYW2ksG034X4j++vNPbziRN7RexMtiLnu8XHh30Bvem83acfZ9wxtzlCpkjwxcdUgGoHRbtvUv6Yv/T+335+QnyVzBVYwoyqSq6i7AEhQWt4iOVdP6Z/kGB9ytAbSlKUApSlAKh2+QdQ4nUp3TasT2gSY6xarBl7dQI1KQeRFTGlAcgyMXMxJjHmxNBO4aQqwAJ1m+oaeFr1iqRddfzxP3VfrtWDYMfYpopzusio6kCLUzLz7bKRegNHVakbYnTYkF2jMXlyFiszatYZQnMns9FepMLo9YUSSRGkDMrv5zXsNVm8Jt3chQERqtS72Lo3UbSobSLYGRwNJ0k8z3X/41X2bop3cKyKoQFT5kg8V3v67XvwHCgIfValk+J0gHQQNGw0tqvK4BbUgFzq4WF6125Q9PrtaPgsDmh1VxqYkix1GzcKAwbOd7fb8nF2qDz4ckFMogKStywFizC1xfvroOx4s2HtGHizgLNDEquoNwCByvUd/Dz9BmfSX5XqYUBWlKUApSlAKUpQHPeuv54n7qv12qOFlB4kCpJ13/O0/dV+u1a/FEZgQ+0CPwEFLLwa7dpHM3+SgG35HTi4oGfDI+UHsWRrLoJHH1hxAPxVnkyekWSURxTI5P2LE6gBYesPMHberLgMD56MBx4aV7eQ1Dw+/QMFH6dCRY/4Rf1LgXHhPA8Tw4mgPVkbj0lLMjjHZdAHCNVRSQH9ZdZvx01iiyOkZZD5sckI0niSxUtZDyRjY31AdnKsRdCLeeo9Ph7j6Of8Am5Vc0kQF/PQk3NuBA9cjV87na45cKAoZulVhCKk0klipk9U3s3jt5hX1tPCtMGUngR8Nbc5C2IDJfWDcspNuHMgeJfQKxTzK2M4LJcjgA6s17J3Djxv7nOgJD+Hh+xzB/mX5XqZVC/w89XMHpX5XqaUApSlAKUpQClKUBEOqtg3bcN1iy8GJJYlhEbBnC2YMx4huYsai26bRnbSY/boBH52rywsmv1bXvYemusVinxcbI0+0QpNpvp8xQ1r87agaA475i/M+M1TzV+b8Zrr427bxyxYR/wCNfyVcMLCHLHiH5i/koDj3nJ2p8Zqvnx/M+M12IYuMOUKD80fkq4QxDkij3hQHHFkRuSf9Vbfaun87doZJsURhY20HW5B1W1cLKe+unBVHIAUoCO9JbHnbR7SMsIBJo0FW1E21Fr8B31I6UoBSlKA//9k=;" vertex="1" parent="1">
          <mxGeometry x="386" y="369.5" width="128" height="128" as="geometry" />
        </mxCell>
        <mxCell id="nP1oVnhMzVwhyK_QxXf1-4" value="" style="endArrow=classic;html=1;rounded=0;fillColor=#d5e8d4;strokeColor=#82b366;" edge="1" parent="1" source="nP1oVnhMzVwhyK_QxXf1-1" target="nP1oVnhMzVwhyK_QxXf1-2">
          <mxGeometry width="50" height="50" relative="1" as="geometry">
            <mxPoint x="166" y="433" as="sourcePoint" />
            <mxPoint x="216" y="383" as="targetPoint" />
          </mxGeometry>
        </mxCell>
        <mxCell id="nP1oVnhMzVwhyK_QxXf1-5" value="" style="endArrow=classic;html=1;rounded=0;entryX=1;entryY=0.5;entryDx=0;entryDy=0;fillColor=#f8cecc;strokeColor=#b85450;" edge="1" parent="1">
          <mxGeometry width="50" height="50" relative="1" as="geometry">
            <mxPoint x="386" y="441.5" as="sourcePoint" />
            <mxPoint x="121" y="441.5" as="targetPoint" />
          </mxGeometry>
        </mxCell>
        <mxCell id="nP1oVnhMzVwhyK_QxXf1-6" value="" style="sketch=0;outlineConnect=0;fontColor=#232F3E;gradientColor=none;fillColor=#3F8624;strokeColor=none;dashed=0;verticalLabelPosition=bottom;verticalAlign=top;align=center;html=1;fontSize=12;fontStyle=0;aspect=fixed;pointerEvents=1;shape=mxgraph.aws4.iot_thing_freertos_device;" vertex="1" parent="1">
          <mxGeometry x="724" y="390.5" width="86" height="86" as="geometry" />
        </mxCell>
        <mxCell id="nP1oVnhMzVwhyK_QxXf1-7" value="" style="endArrow=classic;html=1;rounded=0;fillColor=#d5e8d4;strokeColor=#82b366;" edge="1" parent="1" source="nP1oVnhMzVwhyK_QxXf1-2" target="nP1oVnhMzVwhyK_QxXf1-6">
          <mxGeometry width="50" height="50" relative="1" as="geometry">
            <mxPoint x="510" y="433" as="sourcePoint" />
            <mxPoint x="560" y="383" as="targetPoint" />
          </mxGeometry>
        </mxCell>
        <mxCell id="nP1oVnhMzVwhyK_QxXf1-9" value="" style="endArrow=classic;html=1;rounded=0;fillColor=#f8cecc;strokeColor=#b85450;" edge="1" parent="1">
          <mxGeometry width="50" height="50" relative="1" as="geometry">
            <mxPoint x="724" y="441.5" as="sourcePoint" />
            <mxPoint x="514" y="441.5" as="targetPoint" />
          </mxGeometry>
        </mxCell>
        <mxCell id="nP1oVnhMzVwhyK_QxXf1-10" value="串口通信" style="text;html=1;strokeColor=none;fillColor=none;align=center;verticalAlign=middle;whiteSpace=wrap;rounded=0;fontStyle=1;fontSize=14;" vertex="1" parent="1">
          <mxGeometry x="589" y="422" width="60" height="30" as="geometry" />
        </mxCell>
        <mxCell id="nP1oVnhMzVwhyK_QxXf1-11" value="网络通信" style="text;html=1;strokeColor=none;fillColor=none;align=center;verticalAlign=middle;whiteSpace=wrap;rounded=0;fontStyle=1;fontSize=14;" vertex="1" parent="1">
          <mxGeometry x="216" y="421" width="60" height="30" as="geometry" />
        </mxCell>
        <mxCell id="nP1oVnhMzVwhyK_QxXf1-14" value="下发:01 03&amp;nbsp;&amp;nbsp;00 01 00 01 D5 CA" style="text;html=1;align=center;verticalAlign=middle;whiteSpace=wrap;rounded=0;fontColor=#82B366;" vertex="1" parent="1">
          <mxGeometry x="133" y="391" width="222" height="30" as="geometry" />
        </mxCell>
        <mxCell id="nP1oVnhMzVwhyK_QxXf1-15" value="下发:01 03&amp;nbsp;&amp;nbsp;00 01 00 01 D5 CA" style="text;html=1;align=center;verticalAlign=middle;whiteSpace=wrap;rounded=0;fontColor=#82B366;" vertex="1" parent="1">
          <mxGeometry x="502" y="390.5" width="222" height="30" as="geometry" />
        </mxCell>
        <mxCell id="nP1oVnhMzVwhyK_QxXf1-16" value="接收:01 03 02 00 17 F8 4A" style="text;html=1;align=center;verticalAlign=middle;whiteSpace=wrap;rounded=0;fontColor=#82B366;" vertex="1" parent="1">
          <mxGeometry x="133" y="456" width="222" height="30" as="geometry" />
        </mxCell>
        <mxCell id="nP1oVnhMzVwhyK_QxXf1-17" value="接收:01 03 02 00 17 F8 4A" style="text;html=1;align=center;verticalAlign=middle;whiteSpace=wrap;rounded=0;fontColor=#82B366;" vertex="1" parent="1">
          <mxGeometry x="502" y="456" width="222" height="30" as="geometry" />
        </mxCell>
      </root>
    </mxGraphModel>
  </diagram>
</mxfile>
